G04 #@! TF.FileFunction,Legend,Top*
%FSLAX46Y46*%
G04 Gerber Fmt 4.6, Leading zero omitted, Abs format (unit mm)*
G04 Created by KiCad (PCBNEW 4.0.7) date 02/13/18 18:01:40*
%MOMM*%
%LPD*%
G01*
G04 APERTURE LIST*
%ADD10C,0.100000*%
%ADD11C,0.300000*%
%ADD12C,0.200000*%
%ADD13C,0.120000*%
%ADD14C,0.010000*%
%ADD15C,0.150000*%
G04 APERTURE END LIST*
D10*
D11*
X122511429Y-84161429D02*
X122511429Y-83304286D01*
X122511429Y-83732858D02*
X124011429Y-83732858D01*
X123797143Y-83590001D01*
X123654286Y-83447143D01*
X123582857Y-83304286D01*
X123868571Y-84732857D02*
X123940000Y-84804286D01*
X124011429Y-84947143D01*
X124011429Y-85304286D01*
X123940000Y-85447143D01*
X123868571Y-85518572D01*
X123725714Y-85590000D01*
X123582857Y-85590000D01*
X123368571Y-85518572D01*
X122511429Y-84661429D01*
X122511429Y-85590000D01*
X124011429Y-86018571D02*
X122511429Y-86518571D01*
X124011429Y-87018571D01*
D12*
X123190000Y-87630000D02*
X123190000Y-88900000D01*
X123190000Y-81280000D02*
X123190000Y-82550000D01*
X122555000Y-81915000D02*
X123825000Y-81915000D01*
D11*
X131072857Y-88298571D02*
X131072857Y-86798571D01*
X131930000Y-88298571D01*
X131930000Y-86798571D01*
X132858572Y-88298571D02*
X132715714Y-88227143D01*
X132644286Y-88155714D01*
X132572857Y-88012857D01*
X132572857Y-87584286D01*
X132644286Y-87441429D01*
X132715714Y-87370000D01*
X132858572Y-87298571D01*
X133072857Y-87298571D01*
X133215714Y-87370000D01*
X133287143Y-87441429D01*
X133358572Y-87584286D01*
X133358572Y-88012857D01*
X133287143Y-88155714D01*
X133215714Y-88227143D01*
X133072857Y-88298571D01*
X132858572Y-88298571D01*
X134644286Y-88298571D02*
X134644286Y-87512857D01*
X134572857Y-87370000D01*
X134430000Y-87298571D01*
X134144286Y-87298571D01*
X134001429Y-87370000D01*
X134644286Y-88227143D02*
X134501429Y-88298571D01*
X134144286Y-88298571D01*
X134001429Y-88227143D01*
X133930000Y-88084286D01*
X133930000Y-87941429D01*
X134001429Y-87798571D01*
X134144286Y-87727143D01*
X134501429Y-87727143D01*
X134644286Y-87655714D01*
X135358572Y-88298571D02*
X135358572Y-86798571D01*
X136001429Y-88298571D02*
X136001429Y-87512857D01*
X135930000Y-87370000D01*
X135787143Y-87298571D01*
X135572858Y-87298571D01*
X135430000Y-87370000D01*
X135358572Y-87441429D01*
X138572858Y-88298571D02*
X137858572Y-88298571D01*
X137858572Y-86798571D01*
X139287144Y-88298571D02*
X139144286Y-88227143D01*
X139072858Y-88155714D01*
X139001429Y-88012857D01*
X139001429Y-87584286D01*
X139072858Y-87441429D01*
X139144286Y-87370000D01*
X139287144Y-87298571D01*
X139501429Y-87298571D01*
X139644286Y-87370000D01*
X139715715Y-87441429D01*
X139787144Y-87584286D01*
X139787144Y-88012857D01*
X139715715Y-88155714D01*
X139644286Y-88227143D01*
X139501429Y-88298571D01*
X139287144Y-88298571D01*
X140430001Y-88298571D02*
X140430001Y-86798571D01*
X141072858Y-88298571D02*
X141072858Y-87512857D01*
X141001429Y-87370000D01*
X140858572Y-87298571D01*
X140644287Y-87298571D01*
X140501429Y-87370000D01*
X140430001Y-87441429D01*
X141787144Y-88298571D02*
X141787144Y-87298571D01*
X141787144Y-87441429D02*
X141858572Y-87370000D01*
X142001430Y-87298571D01*
X142215715Y-87298571D01*
X142358572Y-87370000D01*
X142430001Y-87512857D01*
X142430001Y-88298571D01*
X142430001Y-87512857D02*
X142501430Y-87370000D01*
X142644287Y-87298571D01*
X142858572Y-87298571D01*
X143001430Y-87370000D01*
X143072858Y-87512857D01*
X143072858Y-88298571D01*
X144430001Y-88298571D02*
X144430001Y-87512857D01*
X144358572Y-87370000D01*
X144215715Y-87298571D01*
X143930001Y-87298571D01*
X143787144Y-87370000D01*
X144430001Y-88227143D02*
X144287144Y-88298571D01*
X143930001Y-88298571D01*
X143787144Y-88227143D01*
X143715715Y-88084286D01*
X143715715Y-87941429D01*
X143787144Y-87798571D01*
X143930001Y-87727143D01*
X144287144Y-87727143D01*
X144430001Y-87655714D01*
X145144287Y-87298571D02*
X145144287Y-88298571D01*
X145144287Y-87441429D02*
X145215715Y-87370000D01*
X145358573Y-87298571D01*
X145572858Y-87298571D01*
X145715715Y-87370000D01*
X145787144Y-87512857D01*
X145787144Y-88298571D01*
X132537143Y-90848571D02*
X132537143Y-89348571D01*
X133108571Y-89348571D01*
X133251429Y-89420000D01*
X133322857Y-89491429D01*
X133394286Y-89634286D01*
X133394286Y-89848571D01*
X133322857Y-89991429D01*
X133251429Y-90062857D01*
X133108571Y-90134286D01*
X132537143Y-90134286D01*
X134037143Y-90848571D02*
X134037143Y-89348571D01*
X134680000Y-90848571D02*
X134680000Y-90062857D01*
X134608571Y-89920000D01*
X134465714Y-89848571D01*
X134251429Y-89848571D01*
X134108571Y-89920000D01*
X134037143Y-89991429D01*
X135608572Y-90848571D02*
X135465714Y-90777143D01*
X135394286Y-90705714D01*
X135322857Y-90562857D01*
X135322857Y-90134286D01*
X135394286Y-89991429D01*
X135465714Y-89920000D01*
X135608572Y-89848571D01*
X135822857Y-89848571D01*
X135965714Y-89920000D01*
X136037143Y-89991429D01*
X136108572Y-90134286D01*
X136108572Y-90562857D01*
X136037143Y-90705714D01*
X135965714Y-90777143D01*
X135822857Y-90848571D01*
X135608572Y-90848571D01*
X137322857Y-90777143D02*
X137180000Y-90848571D01*
X136894286Y-90848571D01*
X136751429Y-90777143D01*
X136680000Y-90634286D01*
X136680000Y-90062857D01*
X136751429Y-89920000D01*
X136894286Y-89848571D01*
X137180000Y-89848571D01*
X137322857Y-89920000D01*
X137394286Y-90062857D01*
X137394286Y-90205714D01*
X136680000Y-90348571D01*
X138037143Y-89848571D02*
X138037143Y-90848571D01*
X138037143Y-89991429D02*
X138108571Y-89920000D01*
X138251429Y-89848571D01*
X138465714Y-89848571D01*
X138608571Y-89920000D01*
X138680000Y-90062857D01*
X138680000Y-90848571D01*
X139394286Y-90848571D02*
X139394286Y-89848571D01*
X139394286Y-89348571D02*
X139322857Y-89420000D01*
X139394286Y-89491429D01*
X139465714Y-89420000D01*
X139394286Y-89348571D01*
X139394286Y-89491429D01*
X139965715Y-90848571D02*
X140751429Y-89848571D01*
X139965715Y-89848571D02*
X140751429Y-90848571D01*
X141822858Y-90062857D02*
X142037144Y-90134286D01*
X142108572Y-90205714D01*
X142180001Y-90348571D01*
X142180001Y-90562857D01*
X142108572Y-90705714D01*
X142037144Y-90777143D01*
X141894286Y-90848571D01*
X141322858Y-90848571D01*
X141322858Y-89348571D01*
X141822858Y-89348571D01*
X141965715Y-89420000D01*
X142037144Y-89491429D01*
X142108572Y-89634286D01*
X142108572Y-89777143D01*
X142037144Y-89920000D01*
X141965715Y-89991429D01*
X141822858Y-90062857D01*
X141322858Y-90062857D01*
X143037144Y-90848571D02*
X142894286Y-90777143D01*
X142822858Y-90705714D01*
X142751429Y-90562857D01*
X142751429Y-90134286D01*
X142822858Y-89991429D01*
X142894286Y-89920000D01*
X143037144Y-89848571D01*
X143251429Y-89848571D01*
X143394286Y-89920000D01*
X143465715Y-89991429D01*
X143537144Y-90134286D01*
X143537144Y-90562857D01*
X143465715Y-90705714D01*
X143394286Y-90777143D01*
X143251429Y-90848571D01*
X143037144Y-90848571D01*
X143965715Y-89848571D02*
X144537144Y-89848571D01*
X144180001Y-89348571D02*
X144180001Y-90634286D01*
X144251429Y-90777143D01*
X144394287Y-90848571D01*
X144537144Y-90848571D01*
X135858572Y-92041429D02*
X135930001Y-91970000D01*
X136072858Y-91898571D01*
X136430001Y-91898571D01*
X136572858Y-91970000D01*
X136644287Y-92041429D01*
X136715715Y-92184286D01*
X136715715Y-92327143D01*
X136644287Y-92541429D01*
X135787144Y-93398571D01*
X136715715Y-93398571D01*
X137644286Y-91898571D02*
X137787143Y-91898571D01*
X137930000Y-91970000D01*
X138001429Y-92041429D01*
X138072858Y-92184286D01*
X138144286Y-92470000D01*
X138144286Y-92827143D01*
X138072858Y-93112857D01*
X138001429Y-93255714D01*
X137930000Y-93327143D01*
X137787143Y-93398571D01*
X137644286Y-93398571D01*
X137501429Y-93327143D01*
X137430000Y-93255714D01*
X137358572Y-93112857D01*
X137287143Y-92827143D01*
X137287143Y-92470000D01*
X137358572Y-92184286D01*
X137430000Y-92041429D01*
X137501429Y-91970000D01*
X137644286Y-91898571D01*
X139572857Y-93398571D02*
X138715714Y-93398571D01*
X139144286Y-93398571D02*
X139144286Y-91898571D01*
X139001429Y-92112857D01*
X138858571Y-92255714D01*
X138715714Y-92327143D01*
X140430000Y-92541429D02*
X140287142Y-92470000D01*
X140215714Y-92398571D01*
X140144285Y-92255714D01*
X140144285Y-92184286D01*
X140215714Y-92041429D01*
X140287142Y-91970000D01*
X140430000Y-91898571D01*
X140715714Y-91898571D01*
X140858571Y-91970000D01*
X140930000Y-92041429D01*
X141001428Y-92184286D01*
X141001428Y-92255714D01*
X140930000Y-92398571D01*
X140858571Y-92470000D01*
X140715714Y-92541429D01*
X140430000Y-92541429D01*
X140287142Y-92612857D01*
X140215714Y-92684286D01*
X140144285Y-92827143D01*
X140144285Y-93112857D01*
X140215714Y-93255714D01*
X140287142Y-93327143D01*
X140430000Y-93398571D01*
X140715714Y-93398571D01*
X140858571Y-93327143D01*
X140930000Y-93255714D01*
X141001428Y-93112857D01*
X141001428Y-92827143D01*
X140930000Y-92684286D01*
X140858571Y-92612857D01*
X140715714Y-92541429D01*
D12*
X174079048Y-89261905D02*
X174079048Y-88461905D01*
X174917143Y-89185714D02*
X174879048Y-89223810D01*
X174764762Y-89261905D01*
X174688572Y-89261905D01*
X174574286Y-89223810D01*
X174498095Y-89147619D01*
X174460000Y-89071429D01*
X174421905Y-88919048D01*
X174421905Y-88804762D01*
X174460000Y-88652381D01*
X174498095Y-88576190D01*
X174574286Y-88500000D01*
X174688572Y-88461905D01*
X174764762Y-88461905D01*
X174879048Y-88500000D01*
X174917143Y-88538095D01*
X175221905Y-89223810D02*
X175336191Y-89261905D01*
X175526667Y-89261905D01*
X175602857Y-89223810D01*
X175640953Y-89185714D01*
X175679048Y-89109524D01*
X175679048Y-89033333D01*
X175640953Y-88957143D01*
X175602857Y-88919048D01*
X175526667Y-88880952D01*
X175374286Y-88842857D01*
X175298095Y-88804762D01*
X175260000Y-88766667D01*
X175221905Y-88690476D01*
X175221905Y-88614286D01*
X175260000Y-88538095D01*
X175298095Y-88500000D01*
X175374286Y-88461905D01*
X175564762Y-88461905D01*
X175679048Y-88500000D01*
X176021905Y-89261905D02*
X176021905Y-88461905D01*
X176326667Y-88461905D01*
X176402858Y-88500000D01*
X176440953Y-88538095D01*
X176479048Y-88614286D01*
X176479048Y-88728571D01*
X176440953Y-88804762D01*
X176402858Y-88842857D01*
X176326667Y-88880952D01*
X176021905Y-88880952D01*
D11*
X190627143Y-102120000D02*
X190484286Y-102048571D01*
X190270000Y-102048571D01*
X190055715Y-102120000D01*
X189912857Y-102262857D01*
X189841429Y-102405714D01*
X189770000Y-102691429D01*
X189770000Y-102905714D01*
X189841429Y-103191429D01*
X189912857Y-103334286D01*
X190055715Y-103477143D01*
X190270000Y-103548571D01*
X190412857Y-103548571D01*
X190627143Y-103477143D01*
X190698572Y-103405714D01*
X190698572Y-102905714D01*
X190412857Y-102905714D01*
X191341429Y-103548571D02*
X191341429Y-102048571D01*
X192198572Y-103548571D01*
X192198572Y-102048571D01*
X192912858Y-103548571D02*
X192912858Y-102048571D01*
X193270001Y-102048571D01*
X193484286Y-102120000D01*
X193627144Y-102262857D01*
X193698572Y-102405714D01*
X193770001Y-102691429D01*
X193770001Y-102905714D01*
X193698572Y-103191429D01*
X193627144Y-103334286D01*
X193484286Y-103477143D01*
X193270001Y-103548571D01*
X192912858Y-103548571D01*
X189841429Y-100437143D02*
X190984286Y-100437143D01*
X190412857Y-101008571D02*
X190412857Y-99865714D01*
X192412858Y-99508571D02*
X191698572Y-99508571D01*
X191627143Y-100222857D01*
X191698572Y-100151429D01*
X191841429Y-100080000D01*
X192198572Y-100080000D01*
X192341429Y-100151429D01*
X192412858Y-100222857D01*
X192484286Y-100365714D01*
X192484286Y-100722857D01*
X192412858Y-100865714D01*
X192341429Y-100937143D01*
X192198572Y-101008571D01*
X191841429Y-101008571D01*
X191698572Y-100937143D01*
X191627143Y-100865714D01*
X192912857Y-99508571D02*
X193412857Y-101008571D01*
X193912857Y-99508571D01*
D13*
X177613000Y-69790000D02*
X177613000Y-72450000D01*
X195453000Y-69790000D02*
X177613000Y-69790000D01*
X195453000Y-72450000D02*
X177613000Y-72450000D01*
X195453000Y-69790000D02*
X195453000Y-72450000D01*
X196723000Y-69790000D02*
X198053000Y-69790000D01*
X198053000Y-69790000D02*
X198053000Y-71120000D01*
X181550000Y-114875000D02*
X181550000Y-117535000D01*
X199390000Y-114875000D02*
X181550000Y-114875000D01*
X199390000Y-117535000D02*
X181550000Y-117535000D01*
X199390000Y-114875000D02*
X199390000Y-117535000D01*
X200660000Y-114875000D02*
X201990000Y-114875000D01*
X201990000Y-114875000D02*
X201990000Y-116205000D01*
X225985000Y-64825000D02*
X232485000Y-64825000D01*
X225985000Y-64825000D02*
X225985000Y-73225000D01*
X232485000Y-64825000D02*
X232485000Y-73225000D01*
X189290000Y-104200000D02*
X189290000Y-101540000D01*
X171450000Y-104200000D02*
X189290000Y-104200000D01*
X171450000Y-101540000D02*
X189290000Y-101540000D01*
X171450000Y-104200000D02*
X171450000Y-101540000D01*
X170180000Y-104200000D02*
X168850000Y-104200000D01*
X168850000Y-104200000D02*
X168850000Y-102870000D01*
X152460000Y-77530000D02*
X152460000Y-74870000D01*
X139700000Y-77530000D02*
X152460000Y-77530000D01*
X139700000Y-74870000D02*
X152460000Y-74870000D01*
X139700000Y-77530000D02*
X139700000Y-74870000D01*
X138430000Y-77530000D02*
X137100000Y-77530000D01*
X137100000Y-77530000D02*
X137100000Y-76200000D01*
X152460000Y-82610000D02*
X152460000Y-79950000D01*
X139700000Y-82610000D02*
X152460000Y-82610000D01*
X139700000Y-79950000D02*
X152460000Y-79950000D01*
X139700000Y-82610000D02*
X139700000Y-79950000D01*
X138430000Y-82610000D02*
X137100000Y-82610000D01*
X137100000Y-82610000D02*
X137100000Y-81280000D01*
X157540000Y-120710000D02*
X157540000Y-118050000D01*
X139700000Y-120710000D02*
X157540000Y-120710000D01*
X139700000Y-118050000D02*
X157540000Y-118050000D01*
X139700000Y-120710000D02*
X139700000Y-118050000D01*
X138430000Y-120710000D02*
X137100000Y-120710000D01*
X137100000Y-120710000D02*
X137100000Y-119380000D01*
X168970000Y-104200000D02*
X168970000Y-101540000D01*
X151130000Y-104200000D02*
X168970000Y-104200000D01*
X151130000Y-101540000D02*
X168970000Y-101540000D01*
X151130000Y-104200000D02*
X151130000Y-101540000D01*
X149860000Y-104200000D02*
X148530000Y-104200000D01*
X148530000Y-104200000D02*
X148530000Y-102870000D01*
X168970000Y-101660000D02*
X168970000Y-99000000D01*
X151130000Y-101660000D02*
X168970000Y-101660000D01*
X151130000Y-99000000D02*
X168970000Y-99000000D01*
X151130000Y-101660000D02*
X151130000Y-99000000D01*
X149860000Y-101660000D02*
X148530000Y-101660000D01*
X148530000Y-101660000D02*
X148530000Y-100330000D01*
X154753000Y-69790000D02*
X154753000Y-72450000D01*
X172593000Y-69790000D02*
X154753000Y-69790000D01*
X172593000Y-72450000D02*
X154753000Y-72450000D01*
X172593000Y-69790000D02*
X172593000Y-72450000D01*
X173863000Y-69790000D02*
X175193000Y-69790000D01*
X175193000Y-69790000D02*
X175193000Y-71120000D01*
X180400000Y-120710000D02*
X180400000Y-118050000D01*
X162560000Y-120710000D02*
X180400000Y-120710000D01*
X162560000Y-118050000D02*
X180400000Y-118050000D01*
X162560000Y-120710000D02*
X162560000Y-118050000D01*
X161290000Y-120710000D02*
X159960000Y-120710000D01*
X159960000Y-120710000D02*
X159960000Y-119380000D01*
X189290000Y-101660000D02*
X189290000Y-99000000D01*
X171450000Y-101660000D02*
X189290000Y-101660000D01*
X171450000Y-99000000D02*
X189290000Y-99000000D01*
X171450000Y-101660000D02*
X171450000Y-99000000D01*
X170180000Y-101660000D02*
X168850000Y-101660000D01*
X168850000Y-101660000D02*
X168850000Y-100330000D01*
X172660000Y-97850000D02*
X177860000Y-97850000D01*
X172660000Y-92710000D02*
X172660000Y-97850000D01*
X177860000Y-90110000D02*
X177860000Y-97850000D01*
X172660000Y-92710000D02*
X175260000Y-92710000D01*
X175260000Y-92710000D02*
X175260000Y-90110000D01*
X175260000Y-90110000D02*
X177860000Y-90110000D01*
X172660000Y-91440000D02*
X172660000Y-90110000D01*
X172660000Y-90110000D02*
X173990000Y-90110000D01*
X203260000Y-120710000D02*
X203260000Y-118050000D01*
X185420000Y-120710000D02*
X203260000Y-120710000D01*
X185420000Y-118050000D02*
X203260000Y-118050000D01*
X185420000Y-120710000D02*
X185420000Y-118050000D01*
X184150000Y-120710000D02*
X182820000Y-120710000D01*
X182820000Y-120710000D02*
X182820000Y-119380000D01*
X203140000Y-115630000D02*
X208340000Y-115630000D01*
X203140000Y-72390000D02*
X203140000Y-115630000D01*
X208340000Y-69790000D02*
X208340000Y-115630000D01*
X203140000Y-72390000D02*
X205740000Y-72390000D01*
X205740000Y-72390000D02*
X205740000Y-69790000D01*
X205740000Y-69790000D02*
X208340000Y-69790000D01*
X203140000Y-71120000D02*
X203140000Y-69790000D01*
X203140000Y-69790000D02*
X204470000Y-69790000D01*
X247600000Y-63470000D02*
X247600000Y-84270000D01*
X247600000Y-84270000D02*
X242550000Y-84270000D01*
X242550000Y-84270000D02*
X242800000Y-83770000D01*
X242800000Y-83770000D02*
X237400000Y-83770000D01*
X237400000Y-83770000D02*
X237700000Y-84320000D01*
X237700000Y-84320000D02*
X235650000Y-84320000D01*
X235650000Y-84320000D02*
X235950000Y-83770000D01*
X235950000Y-83770000D02*
X235000000Y-83770000D01*
X235000000Y-83770000D02*
X235000000Y-63470000D01*
X235000000Y-63470000D02*
X247600000Y-63470000D01*
X247600000Y-84980000D02*
X247600000Y-105780000D01*
X247600000Y-105780000D02*
X242550000Y-105780000D01*
X242550000Y-105780000D02*
X242800000Y-105280000D01*
X242800000Y-105280000D02*
X237400000Y-105280000D01*
X237400000Y-105280000D02*
X237700000Y-105830000D01*
X237700000Y-105830000D02*
X235650000Y-105830000D01*
X235650000Y-105830000D02*
X235950000Y-105280000D01*
X235950000Y-105280000D02*
X235000000Y-105280000D01*
X235000000Y-105280000D02*
X235000000Y-84980000D01*
X235000000Y-84980000D02*
X247600000Y-84980000D01*
X247600000Y-106570000D02*
X247600000Y-127370000D01*
X247600000Y-127370000D02*
X242550000Y-127370000D01*
X242550000Y-127370000D02*
X242800000Y-126870000D01*
X242800000Y-126870000D02*
X237400000Y-126870000D01*
X237400000Y-126870000D02*
X237700000Y-127420000D01*
X237700000Y-127420000D02*
X235650000Y-127420000D01*
X235650000Y-127420000D02*
X235950000Y-126870000D01*
X235950000Y-126870000D02*
X235000000Y-126870000D01*
X235000000Y-126870000D02*
X235000000Y-106570000D01*
X235000000Y-106570000D02*
X247600000Y-106570000D01*
X217725000Y-118785000D02*
X217725000Y-108545000D01*
X222366000Y-118785000D02*
X222366000Y-108545000D01*
X217725000Y-118785000D02*
X222366000Y-118785000D01*
X217725000Y-108545000D02*
X222366000Y-108545000D01*
X219235000Y-118785000D02*
X219235000Y-108545000D01*
X217725000Y-115515000D02*
X219235000Y-115515000D01*
X217725000Y-111814000D02*
X219235000Y-111814000D01*
X217725000Y-107990000D02*
X217725000Y-97750000D01*
X222366000Y-107990000D02*
X222366000Y-97750000D01*
X217725000Y-107990000D02*
X222366000Y-107990000D01*
X217725000Y-97750000D02*
X222366000Y-97750000D01*
X219235000Y-107990000D02*
X219235000Y-97750000D01*
X217725000Y-104720000D02*
X219235000Y-104720000D01*
X217725000Y-101019000D02*
X219235000Y-101019000D01*
X210105000Y-107355000D02*
X210105000Y-97115000D01*
X214746000Y-107355000D02*
X214746000Y-97115000D01*
X210105000Y-107355000D02*
X214746000Y-107355000D01*
X210105000Y-97115000D02*
X214746000Y-97115000D01*
X211615000Y-107355000D02*
X211615000Y-97115000D01*
X210105000Y-104085000D02*
X211615000Y-104085000D01*
X210105000Y-100384000D02*
X211615000Y-100384000D01*
X217725000Y-74970000D02*
X217725000Y-64730000D01*
X222366000Y-74970000D02*
X222366000Y-64730000D01*
X217725000Y-74970000D02*
X222366000Y-74970000D01*
X217725000Y-64730000D02*
X222366000Y-64730000D01*
X219235000Y-74970000D02*
X219235000Y-64730000D01*
X217725000Y-71700000D02*
X219235000Y-71700000D01*
X217725000Y-67999000D02*
X219235000Y-67999000D01*
X217725000Y-97195000D02*
X217725000Y-86955000D01*
X222366000Y-97195000D02*
X222366000Y-86955000D01*
X217725000Y-97195000D02*
X222366000Y-97195000D01*
X217725000Y-86955000D02*
X222366000Y-86955000D01*
X219235000Y-97195000D02*
X219235000Y-86955000D01*
X217725000Y-93925000D02*
X219235000Y-93925000D01*
X217725000Y-90224000D02*
X219235000Y-90224000D01*
X217725000Y-86400000D02*
X217725000Y-76160000D01*
X222366000Y-86400000D02*
X222366000Y-76160000D01*
X217725000Y-86400000D02*
X222366000Y-86400000D01*
X217725000Y-76160000D02*
X222366000Y-76160000D01*
X219235000Y-86400000D02*
X219235000Y-76160000D01*
X217725000Y-83130000D02*
X219235000Y-83130000D01*
X217725000Y-79429000D02*
X219235000Y-79429000D01*
X127829000Y-69790000D02*
X127829000Y-72450000D01*
X150749000Y-69790000D02*
X127829000Y-69790000D01*
X150749000Y-72450000D02*
X127829000Y-72450000D01*
X150749000Y-69790000D02*
X150749000Y-72450000D01*
X152019000Y-69790000D02*
X153349000Y-69790000D01*
X153349000Y-69790000D02*
X153349000Y-71120000D01*
X111680000Y-113070000D02*
X111680000Y-102830000D01*
X116321000Y-113070000D02*
X116321000Y-102830000D01*
X111680000Y-113070000D02*
X116321000Y-113070000D01*
X111680000Y-102830000D02*
X116321000Y-102830000D01*
X113190000Y-113070000D02*
X113190000Y-102830000D01*
X111680000Y-109800000D02*
X113190000Y-109800000D01*
X111680000Y-106099000D02*
X113190000Y-106099000D01*
X225985000Y-108455000D02*
X232485000Y-108455000D01*
X225985000Y-108455000D02*
X225985000Y-116855000D01*
X232485000Y-108455000D02*
X232485000Y-116855000D01*
X215975000Y-116970000D02*
X209475000Y-116970000D01*
X215975000Y-116970000D02*
X215975000Y-108570000D01*
X209475000Y-116970000D02*
X209475000Y-108570000D01*
X225985000Y-87500000D02*
X232485000Y-87500000D01*
X225985000Y-87500000D02*
X225985000Y-95900000D01*
X232485000Y-87500000D02*
X232485000Y-95900000D01*
X225985000Y-98295000D02*
X232485000Y-98295000D01*
X225985000Y-98295000D02*
X225985000Y-106695000D01*
X232485000Y-98295000D02*
X232485000Y-106695000D01*
X225350000Y-76070000D02*
X231850000Y-76070000D01*
X225350000Y-76070000D02*
X225350000Y-84470000D01*
X231850000Y-76070000D02*
X231850000Y-84470000D01*
X112970000Y-101660000D02*
X115630000Y-101660000D01*
X112970000Y-96520000D02*
X112970000Y-101660000D01*
X115630000Y-96520000D02*
X115630000Y-101660000D01*
X112970000Y-96520000D02*
X115630000Y-96520000D01*
X112970000Y-95250000D02*
X112970000Y-93920000D01*
X112970000Y-93920000D02*
X114300000Y-93920000D01*
X121870000Y-79265000D02*
X109270000Y-79265000D01*
X109270000Y-79265000D02*
X109270000Y-89615000D01*
X109270000Y-89615000D02*
X110220000Y-89615000D01*
X110220000Y-89615000D02*
X109970000Y-90115000D01*
X109970000Y-90115000D02*
X111870000Y-90115000D01*
X111870000Y-90115000D02*
X111920000Y-90115000D01*
X111920000Y-90115000D02*
X111670000Y-89615000D01*
X111670000Y-89615000D02*
X117070000Y-89615000D01*
X117070000Y-89615000D02*
X116770000Y-90115000D01*
X116770000Y-90115000D02*
X121870000Y-90115000D01*
X121870000Y-90115000D02*
X121870000Y-79265000D01*
X173705000Y-66560000D02*
X176905000Y-66560000D01*
X176905000Y-68060000D02*
X173705000Y-68060000D01*
X176905000Y-68060000D02*
X176905000Y-66560000D01*
X161640000Y-66560000D02*
X164840000Y-66560000D01*
X164840000Y-68060000D02*
X161640000Y-68060000D01*
X164840000Y-68060000D02*
X164840000Y-66560000D01*
X180385000Y-68190000D02*
X179185000Y-68190000D01*
X179185000Y-66430000D02*
X180385000Y-66430000D01*
X168955000Y-68190000D02*
X167755000Y-68190000D01*
X167755000Y-66430000D02*
X168955000Y-66430000D01*
X180400000Y-117535000D02*
X180400000Y-114875000D01*
X162560000Y-117535000D02*
X180400000Y-117535000D01*
X162560000Y-114875000D02*
X180400000Y-114875000D01*
X162560000Y-117535000D02*
X162560000Y-114875000D01*
X161290000Y-117535000D02*
X159960000Y-117535000D01*
X159960000Y-117535000D02*
X159960000Y-116205000D01*
X187265000Y-73600000D02*
X187265000Y-76260000D01*
X194945000Y-73600000D02*
X187265000Y-73600000D01*
X194945000Y-76260000D02*
X187265000Y-76260000D01*
X194945000Y-73600000D02*
X194945000Y-76260000D01*
X196215000Y-73600000D02*
X197545000Y-73600000D01*
X197545000Y-73600000D02*
X197545000Y-74930000D01*
X197545000Y-78800000D02*
X197545000Y-76140000D01*
X189865000Y-78800000D02*
X197545000Y-78800000D01*
X189865000Y-76140000D02*
X197545000Y-76140000D01*
X189865000Y-78800000D02*
X189865000Y-76140000D01*
X188595000Y-78800000D02*
X187265000Y-78800000D01*
X187265000Y-78800000D02*
X187265000Y-77470000D01*
X197545000Y-81340000D02*
X197545000Y-78680000D01*
X189865000Y-81340000D02*
X197545000Y-81340000D01*
X189865000Y-78680000D02*
X197545000Y-78680000D01*
X189865000Y-81340000D02*
X189865000Y-78680000D01*
X188595000Y-81340000D02*
X187265000Y-81340000D01*
X187265000Y-81340000D02*
X187265000Y-80010000D01*
D14*
G36*
X133026447Y-111310680D02*
X133378839Y-111416996D01*
X133580101Y-111591343D01*
X133604000Y-111691409D01*
X133561804Y-111795530D01*
X133399679Y-111837372D01*
X133064317Y-111824823D01*
X132844719Y-111803745D01*
X132279716Y-111783337D01*
X131920500Y-111872937D01*
X131737803Y-112086293D01*
X131699000Y-112341952D01*
X131746479Y-112546262D01*
X131930791Y-112682657D01*
X132238750Y-112782647D01*
X132906165Y-112987677D01*
X133353608Y-113204429D01*
X133614226Y-113465764D01*
X133721164Y-113804542D01*
X133709166Y-114240344D01*
X133546916Y-114615420D01*
X133195196Y-114905238D01*
X132711113Y-115085507D01*
X132151772Y-115131935D01*
X131751414Y-115073138D01*
X131333444Y-114940821D01*
X131120541Y-114788571D01*
X131064000Y-114595192D01*
X131130379Y-114459771D01*
X131349750Y-114482306D01*
X132063046Y-114637687D01*
X132601811Y-114624973D01*
X132902819Y-114503934D01*
X133169780Y-114234338D01*
X133203390Y-113954947D01*
X133021416Y-113694105D01*
X132641627Y-113480159D01*
X132184312Y-113357699D01*
X131784101Y-113237291D01*
X131446040Y-113055890D01*
X131428662Y-113042308D01*
X131198076Y-112708215D01*
X131135197Y-112278959D01*
X131241353Y-111851304D01*
X131409002Y-111612553D01*
X131714202Y-111423332D01*
X132128957Y-111311507D01*
X132588096Y-111274737D01*
X133026447Y-111310680D01*
X133026447Y-111310680D01*
G37*
X133026447Y-111310680D02*
X133378839Y-111416996D01*
X133580101Y-111591343D01*
X133604000Y-111691409D01*
X133561804Y-111795530D01*
X133399679Y-111837372D01*
X133064317Y-111824823D01*
X132844719Y-111803745D01*
X132279716Y-111783337D01*
X131920500Y-111872937D01*
X131737803Y-112086293D01*
X131699000Y-112341952D01*
X131746479Y-112546262D01*
X131930791Y-112682657D01*
X132238750Y-112782647D01*
X132906165Y-112987677D01*
X133353608Y-113204429D01*
X133614226Y-113465764D01*
X133721164Y-113804542D01*
X133709166Y-114240344D01*
X133546916Y-114615420D01*
X133195196Y-114905238D01*
X132711113Y-115085507D01*
X132151772Y-115131935D01*
X131751414Y-115073138D01*
X131333444Y-114940821D01*
X131120541Y-114788571D01*
X131064000Y-114595192D01*
X131130379Y-114459771D01*
X131349750Y-114482306D01*
X132063046Y-114637687D01*
X132601811Y-114624973D01*
X132902819Y-114503934D01*
X133169780Y-114234338D01*
X133203390Y-113954947D01*
X133021416Y-113694105D01*
X132641627Y-113480159D01*
X132184312Y-113357699D01*
X131784101Y-113237291D01*
X131446040Y-113055890D01*
X131428662Y-113042308D01*
X131198076Y-112708215D01*
X131135197Y-112278959D01*
X131241353Y-111851304D01*
X131409002Y-111612553D01*
X131714202Y-111423332D01*
X132128957Y-111311507D01*
X132588096Y-111274737D01*
X133026447Y-111310680D01*
G36*
X138668433Y-111268156D02*
X138741467Y-111345982D01*
X138784156Y-111529512D01*
X138804554Y-111862782D01*
X138810716Y-112389826D01*
X138811000Y-112640732D01*
X138800119Y-113242508D01*
X138770715Y-113777926D01*
X138727648Y-114178602D01*
X138689668Y-114348590D01*
X138410977Y-114750358D01*
X137969119Y-115016945D01*
X137428819Y-115125343D01*
X136854799Y-115052541D01*
X136779000Y-115027839D01*
X136419446Y-114843462D01*
X136166622Y-114559680D01*
X136007423Y-114140214D01*
X135928745Y-113548786D01*
X135917485Y-112749115D01*
X135919745Y-112649000D01*
X135938271Y-112053607D01*
X135964099Y-111667404D01*
X136006896Y-111445593D01*
X136076330Y-111343376D01*
X136182068Y-111315952D01*
X136207500Y-111315500D01*
X136316200Y-111332937D01*
X136391785Y-111413381D01*
X136443166Y-111599026D01*
X136479260Y-111932068D01*
X136508979Y-112454704D01*
X136525000Y-112818408D01*
X136557706Y-113474340D01*
X136596105Y-113923329D01*
X136648865Y-114212415D01*
X136724651Y-114388637D01*
X136832129Y-114499034D01*
X136835023Y-114501158D01*
X137193487Y-114647985D01*
X137605662Y-114666808D01*
X137892570Y-114574876D01*
X138081913Y-114314392D01*
X138214093Y-113814579D01*
X138287479Y-113083961D01*
X138303000Y-112427588D01*
X138307026Y-111875395D01*
X138325975Y-111529457D01*
X138370156Y-111342071D01*
X138449873Y-111265536D01*
X138557000Y-111252000D01*
X138668433Y-111268156D01*
X138668433Y-111268156D01*
G37*
X138668433Y-111268156D02*
X138741467Y-111345982D01*
X138784156Y-111529512D01*
X138804554Y-111862782D01*
X138810716Y-112389826D01*
X138811000Y-112640732D01*
X138800119Y-113242508D01*
X138770715Y-113777926D01*
X138727648Y-114178602D01*
X138689668Y-114348590D01*
X138410977Y-114750358D01*
X137969119Y-115016945D01*
X137428819Y-115125343D01*
X136854799Y-115052541D01*
X136779000Y-115027839D01*
X136419446Y-114843462D01*
X136166622Y-114559680D01*
X136007423Y-114140214D01*
X135928745Y-113548786D01*
X135917485Y-112749115D01*
X135919745Y-112649000D01*
X135938271Y-112053607D01*
X135964099Y-111667404D01*
X136006896Y-111445593D01*
X136076330Y-111343376D01*
X136182068Y-111315952D01*
X136207500Y-111315500D01*
X136316200Y-111332937D01*
X136391785Y-111413381D01*
X136443166Y-111599026D01*
X136479260Y-111932068D01*
X136508979Y-112454704D01*
X136525000Y-112818408D01*
X136557706Y-113474340D01*
X136596105Y-113923329D01*
X136648865Y-114212415D01*
X136724651Y-114388637D01*
X136832129Y-114499034D01*
X136835023Y-114501158D01*
X137193487Y-114647985D01*
X137605662Y-114666808D01*
X137892570Y-114574876D01*
X138081913Y-114314392D01*
X138214093Y-113814579D01*
X138287479Y-113083961D01*
X138303000Y-112427588D01*
X138307026Y-111875395D01*
X138325975Y-111529457D01*
X138370156Y-111342071D01*
X138449873Y-111265536D01*
X138557000Y-111252000D01*
X138668433Y-111268156D01*
G36*
X141748452Y-111304577D02*
X142320471Y-111493384D01*
X142439309Y-111563593D01*
X142738549Y-111867250D01*
X143008174Y-112320236D01*
X143196257Y-112818861D01*
X143253210Y-113188750D01*
X143256000Y-113538000D01*
X141922500Y-113538000D01*
X141298671Y-113545455D01*
X140892618Y-113570886D01*
X140668466Y-113618887D01*
X140590344Y-113694054D01*
X140589000Y-113708816D01*
X140700480Y-113994261D01*
X140998077Y-114188748D01*
X141426527Y-114280378D01*
X141930564Y-114257252D01*
X142450088Y-114109500D01*
X142752562Y-113987775D01*
X142936471Y-113922502D01*
X142954009Y-113919000D01*
X142984399Y-114031621D01*
X143000970Y-114312086D01*
X143002000Y-114413962D01*
X143002000Y-114908925D01*
X142197847Y-115048962D01*
X141735783Y-115127336D01*
X141436325Y-115163941D01*
X141211768Y-115160142D01*
X140974408Y-115117305D01*
X140779500Y-115071053D01*
X140157188Y-114842529D01*
X139691516Y-114475472D01*
X139582849Y-114347175D01*
X139391076Y-113934647D01*
X139309570Y-113387616D01*
X139338531Y-112800492D01*
X139403195Y-112553732D01*
X140621674Y-112553732D01*
X140646582Y-112690237D01*
X140888316Y-112758990D01*
X141302990Y-112776000D01*
X141704907Y-112771713D01*
X141898271Y-112742373D01*
X141928530Y-112663259D01*
X141841131Y-112509652D01*
X141828334Y-112490250D01*
X141540965Y-112241841D01*
X141181870Y-112168858D01*
X140849742Y-112286261D01*
X140795466Y-112333676D01*
X140621674Y-112553732D01*
X139403195Y-112553732D01*
X139478156Y-112267685D01*
X139578060Y-112069311D01*
X139959516Y-111675495D01*
X140496230Y-111408313D01*
X141116457Y-111280447D01*
X141748452Y-111304577D01*
X141748452Y-111304577D01*
G37*
X141748452Y-111304577D02*
X142320471Y-111493384D01*
X142439309Y-111563593D01*
X142738549Y-111867250D01*
X143008174Y-112320236D01*
X143196257Y-112818861D01*
X143253210Y-113188750D01*
X143256000Y-113538000D01*
X141922500Y-113538000D01*
X141298671Y-113545455D01*
X140892618Y-113570886D01*
X140668466Y-113618887D01*
X140590344Y-113694054D01*
X140589000Y-113708816D01*
X140700480Y-113994261D01*
X140998077Y-114188748D01*
X141426527Y-114280378D01*
X141930564Y-114257252D01*
X142450088Y-114109500D01*
X142752562Y-113987775D01*
X142936471Y-113922502D01*
X142954009Y-113919000D01*
X142984399Y-114031621D01*
X143000970Y-114312086D01*
X143002000Y-114413962D01*
X143002000Y-114908925D01*
X142197847Y-115048962D01*
X141735783Y-115127336D01*
X141436325Y-115163941D01*
X141211768Y-115160142D01*
X140974408Y-115117305D01*
X140779500Y-115071053D01*
X140157188Y-114842529D01*
X139691516Y-114475472D01*
X139582849Y-114347175D01*
X139391076Y-113934647D01*
X139309570Y-113387616D01*
X139338531Y-112800492D01*
X139403195Y-112553732D01*
X140621674Y-112553732D01*
X140646582Y-112690237D01*
X140888316Y-112758990D01*
X141302990Y-112776000D01*
X141704907Y-112771713D01*
X141898271Y-112742373D01*
X141928530Y-112663259D01*
X141841131Y-112509652D01*
X141828334Y-112490250D01*
X141540965Y-112241841D01*
X141181870Y-112168858D01*
X140849742Y-112286261D01*
X140795466Y-112333676D01*
X140621674Y-112553732D01*
X139403195Y-112553732D01*
X139478156Y-112267685D01*
X139578060Y-112069311D01*
X139959516Y-111675495D01*
X140496230Y-111408313D01*
X141116457Y-111280447D01*
X141748452Y-111304577D01*
G36*
X134844619Y-111264483D02*
X134913404Y-111327089D01*
X134958384Y-111477548D01*
X134984592Y-111753593D01*
X134997057Y-112192956D01*
X135000810Y-112833368D01*
X135001000Y-113157000D01*
X134999335Y-113889147D01*
X134990988Y-114405031D01*
X134970926Y-114742385D01*
X134934120Y-114938940D01*
X134875539Y-115032428D01*
X134790150Y-115060580D01*
X134747000Y-115062000D01*
X134649380Y-115049516D01*
X134580595Y-114986910D01*
X134535615Y-114836451D01*
X134509407Y-114560406D01*
X134496942Y-114121043D01*
X134493189Y-113480631D01*
X134493000Y-113157000D01*
X134494664Y-112424852D01*
X134503011Y-111908968D01*
X134523073Y-111571614D01*
X134559879Y-111375059D01*
X134618460Y-111281571D01*
X134703849Y-111253419D01*
X134747000Y-111252000D01*
X134844619Y-111264483D01*
X134844619Y-111264483D01*
G37*
X134844619Y-111264483D02*
X134913404Y-111327089D01*
X134958384Y-111477548D01*
X134984592Y-111753593D01*
X134997057Y-112192956D01*
X135000810Y-112833368D01*
X135001000Y-113157000D01*
X134999335Y-113889147D01*
X134990988Y-114405031D01*
X134970926Y-114742385D01*
X134934120Y-114938940D01*
X134875539Y-115032428D01*
X134790150Y-115060580D01*
X134747000Y-115062000D01*
X134649380Y-115049516D01*
X134580595Y-114986910D01*
X134535615Y-114836451D01*
X134509407Y-114560406D01*
X134496942Y-114121043D01*
X134493189Y-113480631D01*
X134493000Y-113157000D01*
X134494664Y-112424852D01*
X134503011Y-111908968D01*
X134523073Y-111571614D01*
X134559879Y-111375059D01*
X134618460Y-111281571D01*
X134703849Y-111253419D01*
X134747000Y-111252000D01*
X134844619Y-111264483D01*
G36*
X143606892Y-103075464D02*
X144198352Y-103223895D01*
X144368262Y-103298605D01*
X144654192Y-103490786D01*
X144766284Y-103733681D01*
X144780000Y-103958114D01*
X144780000Y-104404707D01*
X144204976Y-104067721D01*
X143861109Y-103886167D01*
X143553056Y-103791828D01*
X143180212Y-103765183D01*
X142730173Y-103781577D01*
X142246054Y-103818161D01*
X141931605Y-103882043D01*
X141702545Y-104005629D01*
X141474595Y-104221323D01*
X141412799Y-104288092D01*
X141033987Y-104858083D01*
X140818369Y-105523071D01*
X140758768Y-106230594D01*
X140848006Y-106928188D01*
X141078906Y-107563390D01*
X141444289Y-108083737D01*
X141936978Y-108436766D01*
X141983133Y-108456812D01*
X142460236Y-108563642D01*
X143044641Y-108568844D01*
X143632830Y-108482805D01*
X144121285Y-108315912D01*
X144267213Y-108227620D01*
X144530240Y-108045656D01*
X144697259Y-107952991D01*
X144711357Y-107950000D01*
X144756491Y-108061902D01*
X144779317Y-108337507D01*
X144780000Y-108400980D01*
X144750917Y-108707247D01*
X144617436Y-108892098D01*
X144310209Y-109050511D01*
X144303750Y-109053245D01*
X143846133Y-109184857D01*
X143259192Y-109271295D01*
X142643627Y-109305643D01*
X142100139Y-109280984D01*
X141814354Y-109224222D01*
X141096066Y-108869205D01*
X140525375Y-108331396D01*
X140116167Y-107643963D01*
X139882327Y-106840068D01*
X139837737Y-105952878D01*
X139996284Y-105015557D01*
X140019133Y-104936116D01*
X140357003Y-104226408D01*
X140891899Y-103636988D01*
X141576757Y-103217882D01*
X141671635Y-103179552D01*
X142238289Y-103048646D01*
X142918456Y-103015499D01*
X143606892Y-103075464D01*
X143606892Y-103075464D01*
G37*
X143606892Y-103075464D02*
X144198352Y-103223895D01*
X144368262Y-103298605D01*
X144654192Y-103490786D01*
X144766284Y-103733681D01*
X144780000Y-103958114D01*
X144780000Y-104404707D01*
X144204976Y-104067721D01*
X143861109Y-103886167D01*
X143553056Y-103791828D01*
X143180212Y-103765183D01*
X142730173Y-103781577D01*
X142246054Y-103818161D01*
X141931605Y-103882043D01*
X141702545Y-104005629D01*
X141474595Y-104221323D01*
X141412799Y-104288092D01*
X141033987Y-104858083D01*
X140818369Y-105523071D01*
X140758768Y-106230594D01*
X140848006Y-106928188D01*
X141078906Y-107563390D01*
X141444289Y-108083737D01*
X141936978Y-108436766D01*
X141983133Y-108456812D01*
X142460236Y-108563642D01*
X143044641Y-108568844D01*
X143632830Y-108482805D01*
X144121285Y-108315912D01*
X144267213Y-108227620D01*
X144530240Y-108045656D01*
X144697259Y-107952991D01*
X144711357Y-107950000D01*
X144756491Y-108061902D01*
X144779317Y-108337507D01*
X144780000Y-108400980D01*
X144750917Y-108707247D01*
X144617436Y-108892098D01*
X144310209Y-109050511D01*
X144303750Y-109053245D01*
X143846133Y-109184857D01*
X143259192Y-109271295D01*
X142643627Y-109305643D01*
X142100139Y-109280984D01*
X141814354Y-109224222D01*
X141096066Y-108869205D01*
X140525375Y-108331396D01*
X140116167Y-107643963D01*
X139882327Y-106840068D01*
X139837737Y-105952878D01*
X139996284Y-105015557D01*
X140019133Y-104936116D01*
X140357003Y-104226408D01*
X140891899Y-103636988D01*
X141576757Y-103217882D01*
X141671635Y-103179552D01*
X142238289Y-103048646D01*
X142918456Y-103015499D01*
X143606892Y-103075464D01*
G36*
X133997330Y-106161874D02*
X134306470Y-106976709D01*
X134583379Y-107709659D01*
X134815938Y-108328393D01*
X134992027Y-108800581D01*
X135099526Y-109093892D01*
X135128000Y-109178124D01*
X135016288Y-109205994D01*
X134742193Y-109219705D01*
X134690322Y-109220000D01*
X134447315Y-109205348D01*
X134286835Y-109124709D01*
X134157215Y-108923060D01*
X134006785Y-108545374D01*
X133974805Y-108458000D01*
X133696966Y-107696000D01*
X130958166Y-107696000D01*
X130715516Y-108426250D01*
X130571456Y-108831715D01*
X130445119Y-109054650D01*
X130280039Y-109155446D01*
X130019745Y-109194496D01*
X129995229Y-109196584D01*
X129688128Y-109206419D01*
X129574422Y-109146980D01*
X129592163Y-109006084D01*
X129657358Y-108825483D01*
X129799737Y-108444121D01*
X130005545Y-107898401D01*
X130261027Y-107224724D01*
X130408007Y-106838750D01*
X131317251Y-106838750D01*
X131434574Y-106882986D01*
X131745687Y-106916297D01*
X132190439Y-106933045D01*
X132334000Y-106934000D01*
X132805945Y-106923033D01*
X133161483Y-106893891D01*
X133340459Y-106852208D01*
X133350748Y-106838750D01*
X133309676Y-106672537D01*
X133200088Y-106341026D01*
X133043933Y-105902451D01*
X132863164Y-105415042D01*
X132679730Y-104937033D01*
X132515584Y-104526657D01*
X132392676Y-104242145D01*
X132334000Y-104141478D01*
X132270904Y-104251603D01*
X132145626Y-104543157D01*
X131980116Y-104957907D01*
X131796325Y-105437620D01*
X131616203Y-105924064D01*
X131461703Y-106359006D01*
X131354775Y-106684213D01*
X131317251Y-106838750D01*
X130408007Y-106838750D01*
X130552430Y-106459493D01*
X130734988Y-105981500D01*
X131803244Y-103187500D01*
X132866660Y-103187500D01*
X133997330Y-106161874D01*
X133997330Y-106161874D01*
G37*
X133997330Y-106161874D02*
X134306470Y-106976709D01*
X134583379Y-107709659D01*
X134815938Y-108328393D01*
X134992027Y-108800581D01*
X135099526Y-109093892D01*
X135128000Y-109178124D01*
X135016288Y-109205994D01*
X134742193Y-109219705D01*
X134690322Y-109220000D01*
X134447315Y-109205348D01*
X134286835Y-109124709D01*
X134157215Y-108923060D01*
X134006785Y-108545374D01*
X133974805Y-108458000D01*
X133696966Y-107696000D01*
X130958166Y-107696000D01*
X130715516Y-108426250D01*
X130571456Y-108831715D01*
X130445119Y-109054650D01*
X130280039Y-109155446D01*
X130019745Y-109194496D01*
X129995229Y-109196584D01*
X129688128Y-109206419D01*
X129574422Y-109146980D01*
X129592163Y-109006084D01*
X129657358Y-108825483D01*
X129799737Y-108444121D01*
X130005545Y-107898401D01*
X130261027Y-107224724D01*
X130408007Y-106838750D01*
X131317251Y-106838750D01*
X131434574Y-106882986D01*
X131745687Y-106916297D01*
X132190439Y-106933045D01*
X132334000Y-106934000D01*
X132805945Y-106923033D01*
X133161483Y-106893891D01*
X133340459Y-106852208D01*
X133350748Y-106838750D01*
X133309676Y-106672537D01*
X133200088Y-106341026D01*
X133043933Y-105902451D01*
X132863164Y-105415042D01*
X132679730Y-104937033D01*
X132515584Y-104526657D01*
X132392676Y-104242145D01*
X132334000Y-104141478D01*
X132270904Y-104251603D01*
X132145626Y-104543157D01*
X131980116Y-104957907D01*
X131796325Y-105437620D01*
X131616203Y-105924064D01*
X131461703Y-106359006D01*
X131354775Y-106684213D01*
X131317251Y-106838750D01*
X130408007Y-106838750D01*
X130552430Y-106459493D01*
X130734988Y-105981500D01*
X131803244Y-103187500D01*
X132866660Y-103187500D01*
X133997330Y-106161874D01*
G36*
X137043067Y-103145113D02*
X138577134Y-103187500D01*
X139011567Y-103661884D01*
X139269009Y-103974218D01*
X139398679Y-104255663D01*
X139442802Y-104621637D01*
X139446000Y-104849334D01*
X139428662Y-105285997D01*
X139349535Y-105578052D01*
X139167945Y-105834015D01*
X139018499Y-105989900D01*
X138766261Y-106252101D01*
X138675156Y-106408481D01*
X138725595Y-106531699D01*
X138842188Y-106643950D01*
X138977710Y-106822273D01*
X139187264Y-107159191D01*
X139438210Y-107594724D01*
X139697912Y-108068894D01*
X139933733Y-108521720D01*
X140113034Y-108893224D01*
X140203179Y-109123427D01*
X140208000Y-109153962D01*
X140096775Y-109198921D01*
X139825887Y-109219813D01*
X139794808Y-109220000D01*
X139596359Y-109205757D01*
X139438434Y-109134968D01*
X139283059Y-108965538D01*
X139092261Y-108655376D01*
X138828068Y-108162388D01*
X138810558Y-108128950D01*
X138536611Y-107635671D01*
X138275144Y-107216911D01*
X138065450Y-106933413D01*
X137988991Y-106858950D01*
X137715205Y-106753642D01*
X137301522Y-106689641D01*
X137068241Y-106680000D01*
X136398000Y-106680000D01*
X136398000Y-109220000D01*
X135509000Y-109220000D01*
X135509000Y-103759000D01*
X136398000Y-103759000D01*
X136398000Y-105918000D01*
X137165772Y-105918000D01*
X137631623Y-105900501D01*
X137934509Y-105830745D01*
X138164095Y-105682839D01*
X138245272Y-105606272D01*
X138484159Y-105216792D01*
X138553730Y-104757624D01*
X138443455Y-104332574D01*
X138383861Y-104240242D01*
X138025099Y-103963352D01*
X137478148Y-103798971D01*
X136961232Y-103759000D01*
X136398000Y-103759000D01*
X135509000Y-103759000D01*
X135509000Y-103102727D01*
X137043067Y-103145113D01*
X137043067Y-103145113D01*
G37*
X137043067Y-103145113D02*
X138577134Y-103187500D01*
X139011567Y-103661884D01*
X139269009Y-103974218D01*
X139398679Y-104255663D01*
X139442802Y-104621637D01*
X139446000Y-104849334D01*
X139428662Y-105285997D01*
X139349535Y-105578052D01*
X139167945Y-105834015D01*
X139018499Y-105989900D01*
X138766261Y-106252101D01*
X138675156Y-106408481D01*
X138725595Y-106531699D01*
X138842188Y-106643950D01*
X138977710Y-106822273D01*
X139187264Y-107159191D01*
X139438210Y-107594724D01*
X139697912Y-108068894D01*
X139933733Y-108521720D01*
X140113034Y-108893224D01*
X140203179Y-109123427D01*
X140208000Y-109153962D01*
X140096775Y-109198921D01*
X139825887Y-109219813D01*
X139794808Y-109220000D01*
X139596359Y-109205757D01*
X139438434Y-109134968D01*
X139283059Y-108965538D01*
X139092261Y-108655376D01*
X138828068Y-108162388D01*
X138810558Y-108128950D01*
X138536611Y-107635671D01*
X138275144Y-107216911D01*
X138065450Y-106933413D01*
X137988991Y-106858950D01*
X137715205Y-106753642D01*
X137301522Y-106689641D01*
X137068241Y-106680000D01*
X136398000Y-106680000D01*
X136398000Y-109220000D01*
X135509000Y-109220000D01*
X135509000Y-103759000D01*
X136398000Y-103759000D01*
X136398000Y-105918000D01*
X137165772Y-105918000D01*
X137631623Y-105900501D01*
X137934509Y-105830745D01*
X138164095Y-105682839D01*
X138245272Y-105606272D01*
X138484159Y-105216792D01*
X138553730Y-104757624D01*
X138443455Y-104332574D01*
X138383861Y-104240242D01*
X138025099Y-103963352D01*
X137478148Y-103798971D01*
X136961232Y-103759000D01*
X136398000Y-103759000D01*
X135509000Y-103759000D01*
X135509000Y-103102727D01*
X137043067Y-103145113D01*
G36*
X138925114Y-95823076D02*
X139537981Y-96167146D01*
X140129673Y-96736634D01*
X140711770Y-97540581D01*
X141295849Y-98588032D01*
X141362241Y-98721605D01*
X141602951Y-99241385D01*
X141857058Y-99840995D01*
X142107932Y-100474455D01*
X142338946Y-101095788D01*
X142533470Y-101659013D01*
X142674877Y-102118151D01*
X142746537Y-102427225D01*
X142741814Y-102536221D01*
X142592688Y-102586415D01*
X142279468Y-102650094D01*
X142088666Y-102680927D01*
X141492832Y-102769615D01*
X141285335Y-102026057D01*
X140825346Y-100500129D01*
X140366148Y-99225048D01*
X139905543Y-98197675D01*
X139441332Y-97414876D01*
X138971315Y-96873514D01*
X138493295Y-96570453D01*
X138005073Y-96502556D01*
X137521568Y-96657399D01*
X137064426Y-97022653D01*
X136603462Y-97620173D01*
X136147890Y-98428560D01*
X135706926Y-99426413D01*
X135289786Y-100592333D01*
X134905683Y-101904920D01*
X134563833Y-103342776D01*
X134490835Y-103695500D01*
X134370822Y-104264021D01*
X134260127Y-104738707D01*
X134172121Y-105065110D01*
X134124810Y-105185674D01*
X134047765Y-105116593D01*
X133910352Y-104854578D01*
X133735502Y-104446646D01*
X133627811Y-104166677D01*
X133215670Y-103054507D01*
X133669841Y-101660503D01*
X134172365Y-100270432D01*
X134720493Y-99032907D01*
X135302580Y-97965414D01*
X135906981Y-97085437D01*
X136522051Y-96410462D01*
X137136145Y-95957974D01*
X137589545Y-95775013D01*
X138279495Y-95695380D01*
X138925114Y-95823076D01*
X138925114Y-95823076D01*
G37*
X138925114Y-95823076D02*
X139537981Y-96167146D01*
X140129673Y-96736634D01*
X140711770Y-97540581D01*
X141295849Y-98588032D01*
X141362241Y-98721605D01*
X141602951Y-99241385D01*
X141857058Y-99840995D01*
X142107932Y-100474455D01*
X142338946Y-101095788D01*
X142533470Y-101659013D01*
X142674877Y-102118151D01*
X142746537Y-102427225D01*
X142741814Y-102536221D01*
X142592688Y-102586415D01*
X142279468Y-102650094D01*
X142088666Y-102680927D01*
X141492832Y-102769615D01*
X141285335Y-102026057D01*
X140825346Y-100500129D01*
X140366148Y-99225048D01*
X139905543Y-98197675D01*
X139441332Y-97414876D01*
X138971315Y-96873514D01*
X138493295Y-96570453D01*
X138005073Y-96502556D01*
X137521568Y-96657399D01*
X137064426Y-97022653D01*
X136603462Y-97620173D01*
X136147890Y-98428560D01*
X135706926Y-99426413D01*
X135289786Y-100592333D01*
X134905683Y-101904920D01*
X134563833Y-103342776D01*
X134490835Y-103695500D01*
X134370822Y-104264021D01*
X134260127Y-104738707D01*
X134172121Y-105065110D01*
X134124810Y-105185674D01*
X134047765Y-105116593D01*
X133910352Y-104854578D01*
X133735502Y-104446646D01*
X133627811Y-104166677D01*
X133215670Y-103054507D01*
X133669841Y-101660503D01*
X134172365Y-100270432D01*
X134720493Y-99032907D01*
X135302580Y-97965414D01*
X135906981Y-97085437D01*
X136522051Y-96410462D01*
X137136145Y-95957974D01*
X137589545Y-95775013D01*
X138279495Y-95695380D01*
X138925114Y-95823076D01*
D15*
X198505381Y-71929523D02*
X199219667Y-71929523D01*
X199362524Y-71977143D01*
X199457762Y-72072381D01*
X199505381Y-72215238D01*
X199505381Y-72310476D01*
X198600619Y-71500952D02*
X198553000Y-71453333D01*
X198505381Y-71358095D01*
X198505381Y-71119999D01*
X198553000Y-71024761D01*
X198600619Y-70977142D01*
X198695857Y-70929523D01*
X198791095Y-70929523D01*
X198933952Y-70977142D01*
X199505381Y-71548571D01*
X199505381Y-70929523D01*
X198600619Y-70548571D02*
X198553000Y-70500952D01*
X198505381Y-70405714D01*
X198505381Y-70167618D01*
X198553000Y-70072380D01*
X198600619Y-70024761D01*
X198695857Y-69977142D01*
X198791095Y-69977142D01*
X198933952Y-70024761D01*
X199505381Y-70596190D01*
X199505381Y-69977142D01*
X202442381Y-116538333D02*
X203156667Y-116538333D01*
X203299524Y-116585953D01*
X203394762Y-116681191D01*
X203442381Y-116824048D01*
X203442381Y-116919286D01*
X202775714Y-115633571D02*
X203442381Y-115633571D01*
X202394762Y-115871667D02*
X203109048Y-116109762D01*
X203109048Y-115490714D01*
X233787381Y-70363095D02*
X232787381Y-70363095D01*
X232787381Y-70125000D01*
X232835000Y-69982142D01*
X232930238Y-69886904D01*
X233025476Y-69839285D01*
X233215952Y-69791666D01*
X233358810Y-69791666D01*
X233549286Y-69839285D01*
X233644524Y-69886904D01*
X233739762Y-69982142D01*
X233787381Y-70125000D01*
X233787381Y-70363095D01*
X232787381Y-68934523D02*
X232787381Y-69125000D01*
X232835000Y-69220238D01*
X232882619Y-69267857D01*
X233025476Y-69363095D01*
X233215952Y-69410714D01*
X233596905Y-69410714D01*
X233692143Y-69363095D01*
X233739762Y-69315476D01*
X233787381Y-69220238D01*
X233787381Y-69029761D01*
X233739762Y-68934523D01*
X233692143Y-68886904D01*
X233596905Y-68839285D01*
X233358810Y-68839285D01*
X233263571Y-68886904D01*
X233215952Y-68934523D01*
X233168333Y-69029761D01*
X233168333Y-69220238D01*
X233215952Y-69315476D01*
X233263571Y-69363095D01*
X233358810Y-69410714D01*
X135552381Y-76533333D02*
X136266667Y-76533333D01*
X136409524Y-76580953D01*
X136504762Y-76676191D01*
X136552381Y-76819048D01*
X136552381Y-76914286D01*
X135552381Y-76152381D02*
X135552381Y-75533333D01*
X135933333Y-75866667D01*
X135933333Y-75723809D01*
X135980952Y-75628571D01*
X136028571Y-75580952D01*
X136123810Y-75533333D01*
X136361905Y-75533333D01*
X136457143Y-75580952D01*
X136504762Y-75628571D01*
X136552381Y-75723809D01*
X136552381Y-76009524D01*
X136504762Y-76104762D01*
X136457143Y-76152381D01*
X135552381Y-81613333D02*
X136266667Y-81613333D01*
X136409524Y-81660953D01*
X136504762Y-81756191D01*
X136552381Y-81899048D01*
X136552381Y-81994286D01*
X135552381Y-80708571D02*
X135552381Y-80899048D01*
X135600000Y-80994286D01*
X135647619Y-81041905D01*
X135790476Y-81137143D01*
X135980952Y-81184762D01*
X136361905Y-81184762D01*
X136457143Y-81137143D01*
X136504762Y-81089524D01*
X136552381Y-80994286D01*
X136552381Y-80803809D01*
X136504762Y-80708571D01*
X136457143Y-80660952D01*
X136361905Y-80613333D01*
X136123810Y-80613333D01*
X136028571Y-80660952D01*
X135980952Y-80708571D01*
X135933333Y-80803809D01*
X135933333Y-80994286D01*
X135980952Y-81089524D01*
X136028571Y-81137143D01*
X136123810Y-81184762D01*
X135552381Y-120189523D02*
X136266667Y-120189523D01*
X136409524Y-120237143D01*
X136504762Y-120332381D01*
X136552381Y-120475238D01*
X136552381Y-120570476D01*
X136552381Y-119189523D02*
X136552381Y-119760952D01*
X136552381Y-119475238D02*
X135552381Y-119475238D01*
X135695238Y-119570476D01*
X135790476Y-119665714D01*
X135838095Y-119760952D01*
X135552381Y-118284761D02*
X135552381Y-118760952D01*
X136028571Y-118808571D01*
X135980952Y-118760952D01*
X135933333Y-118665714D01*
X135933333Y-118427618D01*
X135980952Y-118332380D01*
X136028571Y-118284761D01*
X136123810Y-118237142D01*
X136361905Y-118237142D01*
X136457143Y-118284761D01*
X136504762Y-118332380D01*
X136552381Y-118427618D01*
X136552381Y-118665714D01*
X136504762Y-118760952D01*
X136457143Y-118808571D01*
X175645381Y-71929523D02*
X176359667Y-71929523D01*
X176502524Y-71977143D01*
X176597762Y-72072381D01*
X176645381Y-72215238D01*
X176645381Y-72310476D01*
X176645381Y-70929523D02*
X176645381Y-71500952D01*
X176645381Y-71215238D02*
X175645381Y-71215238D01*
X175788238Y-71310476D01*
X175883476Y-71405714D01*
X175931095Y-71500952D01*
X176073952Y-70358095D02*
X176026333Y-70453333D01*
X175978714Y-70500952D01*
X175883476Y-70548571D01*
X175835857Y-70548571D01*
X175740619Y-70500952D01*
X175693000Y-70453333D01*
X175645381Y-70358095D01*
X175645381Y-70167618D01*
X175693000Y-70072380D01*
X175740619Y-70024761D01*
X175835857Y-69977142D01*
X175883476Y-69977142D01*
X175978714Y-70024761D01*
X176026333Y-70072380D01*
X176073952Y-70167618D01*
X176073952Y-70358095D01*
X176121571Y-70453333D01*
X176169190Y-70500952D01*
X176264429Y-70548571D01*
X176454905Y-70548571D01*
X176550143Y-70500952D01*
X176597762Y-70453333D01*
X176645381Y-70358095D01*
X176645381Y-70167618D01*
X176597762Y-70072380D01*
X176550143Y-70024761D01*
X176454905Y-69977142D01*
X176264429Y-69977142D01*
X176169190Y-70024761D01*
X176121571Y-70072380D01*
X176073952Y-70167618D01*
X158412381Y-120189523D02*
X159126667Y-120189523D01*
X159269524Y-120237143D01*
X159364762Y-120332381D01*
X159412381Y-120475238D01*
X159412381Y-120570476D01*
X159412381Y-119189523D02*
X159412381Y-119760952D01*
X159412381Y-119475238D02*
X158412381Y-119475238D01*
X158555238Y-119570476D01*
X158650476Y-119665714D01*
X158698095Y-119760952D01*
X159412381Y-118713333D02*
X159412381Y-118522857D01*
X159364762Y-118427618D01*
X159317143Y-118379999D01*
X159174286Y-118284761D01*
X158983810Y-118237142D01*
X158602857Y-118237142D01*
X158507619Y-118284761D01*
X158460000Y-118332380D01*
X158412381Y-118427618D01*
X158412381Y-118618095D01*
X158460000Y-118713333D01*
X158507619Y-118760952D01*
X158602857Y-118808571D01*
X158840952Y-118808571D01*
X158936190Y-118760952D01*
X158983810Y-118713333D01*
X159031429Y-118618095D01*
X159031429Y-118427618D01*
X158983810Y-118332380D01*
X158936190Y-118284761D01*
X158840952Y-118237142D01*
X181272381Y-120189523D02*
X181986667Y-120189523D01*
X182129524Y-120237143D01*
X182224762Y-120332381D01*
X182272381Y-120475238D01*
X182272381Y-120570476D01*
X181367619Y-119760952D02*
X181320000Y-119713333D01*
X181272381Y-119618095D01*
X181272381Y-119379999D01*
X181320000Y-119284761D01*
X181367619Y-119237142D01*
X181462857Y-119189523D01*
X181558095Y-119189523D01*
X181700952Y-119237142D01*
X182272381Y-119808571D01*
X182272381Y-119189523D01*
X181605714Y-118332380D02*
X182272381Y-118332380D01*
X181224762Y-118570476D02*
X181939048Y-118808571D01*
X181939048Y-118189523D01*
X204930477Y-68242381D02*
X204930477Y-68956667D01*
X204882857Y-69099524D01*
X204787619Y-69194762D01*
X204644762Y-69242381D01*
X204549524Y-69242381D01*
X205359048Y-68337619D02*
X205406667Y-68290000D01*
X205501905Y-68242381D01*
X205740001Y-68242381D01*
X205835239Y-68290000D01*
X205882858Y-68337619D01*
X205930477Y-68432857D01*
X205930477Y-68528095D01*
X205882858Y-68670952D01*
X205311429Y-69242381D01*
X205930477Y-69242381D01*
X206835239Y-68242381D02*
X206359048Y-68242381D01*
X206311429Y-68718571D01*
X206359048Y-68670952D01*
X206454286Y-68623333D01*
X206692382Y-68623333D01*
X206787620Y-68670952D01*
X206835239Y-68718571D01*
X206882858Y-68813810D01*
X206882858Y-69051905D01*
X206835239Y-69147143D01*
X206787620Y-69194762D01*
X206692382Y-69242381D01*
X206454286Y-69242381D01*
X206359048Y-69194762D01*
X206311429Y-69147143D01*
X247902381Y-74429523D02*
X248616667Y-74429523D01*
X248759524Y-74477143D01*
X248854762Y-74572381D01*
X248902381Y-74715238D01*
X248902381Y-74810476D01*
X247997619Y-74000952D02*
X247950000Y-73953333D01*
X247902381Y-73858095D01*
X247902381Y-73619999D01*
X247950000Y-73524761D01*
X247997619Y-73477142D01*
X248092857Y-73429523D01*
X248188095Y-73429523D01*
X248330952Y-73477142D01*
X248902381Y-74048571D01*
X248902381Y-73429523D01*
X247902381Y-73096190D02*
X247902381Y-72429523D01*
X248902381Y-72858095D01*
X247902381Y-95939523D02*
X248616667Y-95939523D01*
X248759524Y-95987143D01*
X248854762Y-96082381D01*
X248902381Y-96225238D01*
X248902381Y-96320476D01*
X247997619Y-95510952D02*
X247950000Y-95463333D01*
X247902381Y-95368095D01*
X247902381Y-95129999D01*
X247950000Y-95034761D01*
X247997619Y-94987142D01*
X248092857Y-94939523D01*
X248188095Y-94939523D01*
X248330952Y-94987142D01*
X248902381Y-95558571D01*
X248902381Y-94939523D01*
X248330952Y-94368095D02*
X248283333Y-94463333D01*
X248235714Y-94510952D01*
X248140476Y-94558571D01*
X248092857Y-94558571D01*
X247997619Y-94510952D01*
X247950000Y-94463333D01*
X247902381Y-94368095D01*
X247902381Y-94177618D01*
X247950000Y-94082380D01*
X247997619Y-94034761D01*
X248092857Y-93987142D01*
X248140476Y-93987142D01*
X248235714Y-94034761D01*
X248283333Y-94082380D01*
X248330952Y-94177618D01*
X248330952Y-94368095D01*
X248378571Y-94463333D01*
X248426190Y-94510952D01*
X248521429Y-94558571D01*
X248711905Y-94558571D01*
X248807143Y-94510952D01*
X248854762Y-94463333D01*
X248902381Y-94368095D01*
X248902381Y-94177618D01*
X248854762Y-94082380D01*
X248807143Y-94034761D01*
X248711905Y-93987142D01*
X248521429Y-93987142D01*
X248426190Y-94034761D01*
X248378571Y-94082380D01*
X248330952Y-94177618D01*
X247902381Y-117529523D02*
X248616667Y-117529523D01*
X248759524Y-117577143D01*
X248854762Y-117672381D01*
X248902381Y-117815238D01*
X248902381Y-117910476D01*
X247997619Y-117100952D02*
X247950000Y-117053333D01*
X247902381Y-116958095D01*
X247902381Y-116719999D01*
X247950000Y-116624761D01*
X247997619Y-116577142D01*
X248092857Y-116529523D01*
X248188095Y-116529523D01*
X248330952Y-116577142D01*
X248902381Y-117148571D01*
X248902381Y-116529523D01*
X248902381Y-116053333D02*
X248902381Y-115862857D01*
X248854762Y-115767618D01*
X248807143Y-115719999D01*
X248664286Y-115624761D01*
X248473810Y-115577142D01*
X248092857Y-115577142D01*
X247997619Y-115624761D01*
X247950000Y-115672380D01*
X247902381Y-115767618D01*
X247902381Y-115958095D01*
X247950000Y-116053333D01*
X247997619Y-116100952D01*
X248092857Y-116148571D01*
X248330952Y-116148571D01*
X248426190Y-116100952D01*
X248473810Y-116053333D01*
X248521429Y-115958095D01*
X248521429Y-115767618D01*
X248473810Y-115672380D01*
X248426190Y-115624761D01*
X248330952Y-115577142D01*
X216510714Y-113926904D02*
X217510714Y-113926904D01*
X217129762Y-113926904D02*
X217177381Y-114022142D01*
X217177381Y-114212619D01*
X217129762Y-114307857D01*
X217082143Y-114355476D01*
X216986905Y-114403095D01*
X216701190Y-114403095D01*
X216605952Y-114355476D01*
X216558333Y-114307857D01*
X216510714Y-114212619D01*
X216510714Y-114022142D01*
X216558333Y-113926904D01*
X217177381Y-112926904D02*
X217177381Y-113498333D01*
X217177381Y-113212619D02*
X216177381Y-113212619D01*
X216320238Y-113307857D01*
X216415476Y-113403095D01*
X216463095Y-113498333D01*
X216510714Y-103131904D02*
X217510714Y-103131904D01*
X217129762Y-103131904D02*
X217177381Y-103227142D01*
X217177381Y-103417619D01*
X217129762Y-103512857D01*
X217082143Y-103560476D01*
X216986905Y-103608095D01*
X216701190Y-103608095D01*
X216605952Y-103560476D01*
X216558333Y-103512857D01*
X216510714Y-103417619D01*
X216510714Y-103227142D01*
X216558333Y-103131904D01*
X216272619Y-102703333D02*
X216225000Y-102655714D01*
X216177381Y-102560476D01*
X216177381Y-102322380D01*
X216225000Y-102227142D01*
X216272619Y-102179523D01*
X216367857Y-102131904D01*
X216463095Y-102131904D01*
X216605952Y-102179523D01*
X217177381Y-102750952D01*
X217177381Y-102131904D01*
X208890714Y-102496904D02*
X209890714Y-102496904D01*
X209509762Y-102496904D02*
X209557381Y-102592142D01*
X209557381Y-102782619D01*
X209509762Y-102877857D01*
X209462143Y-102925476D01*
X209366905Y-102973095D01*
X209081190Y-102973095D01*
X208985952Y-102925476D01*
X208938333Y-102877857D01*
X208890714Y-102782619D01*
X208890714Y-102592142D01*
X208938333Y-102496904D01*
X208557381Y-102115952D02*
X208557381Y-101496904D01*
X208938333Y-101830238D01*
X208938333Y-101687380D01*
X208985952Y-101592142D01*
X209033571Y-101544523D01*
X209128810Y-101496904D01*
X209366905Y-101496904D01*
X209462143Y-101544523D01*
X209509762Y-101592142D01*
X209557381Y-101687380D01*
X209557381Y-101973095D01*
X209509762Y-102068333D01*
X209462143Y-102115952D01*
X216510714Y-70111904D02*
X217510714Y-70111904D01*
X217129762Y-70111904D02*
X217177381Y-70207142D01*
X217177381Y-70397619D01*
X217129762Y-70492857D01*
X217082143Y-70540476D01*
X216986905Y-70588095D01*
X216701190Y-70588095D01*
X216605952Y-70540476D01*
X216558333Y-70492857D01*
X216510714Y-70397619D01*
X216510714Y-70207142D01*
X216558333Y-70111904D01*
X216510714Y-69207142D02*
X217177381Y-69207142D01*
X216129762Y-69445238D02*
X216844048Y-69683333D01*
X216844048Y-69064285D01*
X216510714Y-92336904D02*
X217510714Y-92336904D01*
X217129762Y-92336904D02*
X217177381Y-92432142D01*
X217177381Y-92622619D01*
X217129762Y-92717857D01*
X217082143Y-92765476D01*
X216986905Y-92813095D01*
X216701190Y-92813095D01*
X216605952Y-92765476D01*
X216558333Y-92717857D01*
X216510714Y-92622619D01*
X216510714Y-92432142D01*
X216558333Y-92336904D01*
X216177381Y-91384523D02*
X216177381Y-91860714D01*
X216653571Y-91908333D01*
X216605952Y-91860714D01*
X216558333Y-91765476D01*
X216558333Y-91527380D01*
X216605952Y-91432142D01*
X216653571Y-91384523D01*
X216748810Y-91336904D01*
X216986905Y-91336904D01*
X217082143Y-91384523D01*
X217129762Y-91432142D01*
X217177381Y-91527380D01*
X217177381Y-91765476D01*
X217129762Y-91860714D01*
X217082143Y-91908333D01*
X216510714Y-81541904D02*
X217510714Y-81541904D01*
X217129762Y-81541904D02*
X217177381Y-81637142D01*
X217177381Y-81827619D01*
X217129762Y-81922857D01*
X217082143Y-81970476D01*
X216986905Y-82018095D01*
X216701190Y-82018095D01*
X216605952Y-81970476D01*
X216558333Y-81922857D01*
X216510714Y-81827619D01*
X216510714Y-81637142D01*
X216558333Y-81541904D01*
X216177381Y-80637142D02*
X216177381Y-80827619D01*
X216225000Y-80922857D01*
X216272619Y-80970476D01*
X216415476Y-81065714D01*
X216605952Y-81113333D01*
X216986905Y-81113333D01*
X217082143Y-81065714D01*
X217129762Y-81018095D01*
X217177381Y-80922857D01*
X217177381Y-80732380D01*
X217129762Y-80637142D01*
X217082143Y-80589523D01*
X216986905Y-80541904D01*
X216748810Y-80541904D01*
X216653571Y-80589523D01*
X216605952Y-80637142D01*
X216558333Y-80732380D01*
X216558333Y-80922857D01*
X216605952Y-81018095D01*
X216653571Y-81065714D01*
X216748810Y-81113333D01*
X153801381Y-71929523D02*
X154515667Y-71929523D01*
X154658524Y-71977143D01*
X154753762Y-72072381D01*
X154801381Y-72215238D01*
X154801381Y-72310476D01*
X154801381Y-70929523D02*
X154801381Y-71500952D01*
X154801381Y-71215238D02*
X153801381Y-71215238D01*
X153944238Y-71310476D01*
X154039476Y-71405714D01*
X154087095Y-71500952D01*
X154134714Y-70072380D02*
X154801381Y-70072380D01*
X153753762Y-70310476D02*
X154468048Y-70548571D01*
X154468048Y-69929523D01*
X110942381Y-109958095D02*
X109942381Y-109958095D01*
X109942381Y-109720000D01*
X109990000Y-109577142D01*
X110085238Y-109481904D01*
X110180476Y-109434285D01*
X110370952Y-109386666D01*
X110513810Y-109386666D01*
X110704286Y-109434285D01*
X110799524Y-109481904D01*
X110894762Y-109577142D01*
X110942381Y-109720000D01*
X110942381Y-109958095D01*
X110942381Y-108434285D02*
X110942381Y-109005714D01*
X110942381Y-108720000D02*
X109942381Y-108720000D01*
X110085238Y-108815238D01*
X110180476Y-108910476D01*
X110228095Y-109005714D01*
X233787381Y-113993095D02*
X232787381Y-113993095D01*
X232787381Y-113755000D01*
X232835000Y-113612142D01*
X232930238Y-113516904D01*
X233025476Y-113469285D01*
X233215952Y-113421666D01*
X233358810Y-113421666D01*
X233549286Y-113469285D01*
X233644524Y-113516904D01*
X233739762Y-113612142D01*
X233787381Y-113755000D01*
X233787381Y-113993095D01*
X232882619Y-113040714D02*
X232835000Y-112993095D01*
X232787381Y-112897857D01*
X232787381Y-112659761D01*
X232835000Y-112564523D01*
X232882619Y-112516904D01*
X232977857Y-112469285D01*
X233073095Y-112469285D01*
X233215952Y-112516904D01*
X233787381Y-113088333D01*
X233787381Y-112469285D01*
X209077381Y-112908095D02*
X208077381Y-112908095D01*
X208077381Y-112670000D01*
X208125000Y-112527142D01*
X208220238Y-112431904D01*
X208315476Y-112384285D01*
X208505952Y-112336666D01*
X208648810Y-112336666D01*
X208839286Y-112384285D01*
X208934524Y-112431904D01*
X209029762Y-112527142D01*
X209077381Y-112670000D01*
X209077381Y-112908095D01*
X208077381Y-112003333D02*
X208077381Y-111384285D01*
X208458333Y-111717619D01*
X208458333Y-111574761D01*
X208505952Y-111479523D01*
X208553571Y-111431904D01*
X208648810Y-111384285D01*
X208886905Y-111384285D01*
X208982143Y-111431904D01*
X209029762Y-111479523D01*
X209077381Y-111574761D01*
X209077381Y-111860476D01*
X209029762Y-111955714D01*
X208982143Y-112003333D01*
X233787381Y-93038095D02*
X232787381Y-93038095D01*
X232787381Y-92800000D01*
X232835000Y-92657142D01*
X232930238Y-92561904D01*
X233025476Y-92514285D01*
X233215952Y-92466666D01*
X233358810Y-92466666D01*
X233549286Y-92514285D01*
X233644524Y-92561904D01*
X233739762Y-92657142D01*
X233787381Y-92800000D01*
X233787381Y-93038095D01*
X233120714Y-91609523D02*
X233787381Y-91609523D01*
X232739762Y-91847619D02*
X233454048Y-92085714D01*
X233454048Y-91466666D01*
X233787381Y-103833095D02*
X232787381Y-103833095D01*
X232787381Y-103595000D01*
X232835000Y-103452142D01*
X232930238Y-103356904D01*
X233025476Y-103309285D01*
X233215952Y-103261666D01*
X233358810Y-103261666D01*
X233549286Y-103309285D01*
X233644524Y-103356904D01*
X233739762Y-103452142D01*
X233787381Y-103595000D01*
X233787381Y-103833095D01*
X232787381Y-102356904D02*
X232787381Y-102833095D01*
X233263571Y-102880714D01*
X233215952Y-102833095D01*
X233168333Y-102737857D01*
X233168333Y-102499761D01*
X233215952Y-102404523D01*
X233263571Y-102356904D01*
X233358810Y-102309285D01*
X233596905Y-102309285D01*
X233692143Y-102356904D01*
X233739762Y-102404523D01*
X233787381Y-102499761D01*
X233787381Y-102737857D01*
X233739762Y-102833095D01*
X233692143Y-102880714D01*
X233152381Y-81608095D02*
X232152381Y-81608095D01*
X232152381Y-81370000D01*
X232200000Y-81227142D01*
X232295238Y-81131904D01*
X232390476Y-81084285D01*
X232580952Y-81036666D01*
X232723810Y-81036666D01*
X232914286Y-81084285D01*
X233009524Y-81131904D01*
X233104762Y-81227142D01*
X233152381Y-81370000D01*
X233152381Y-81608095D01*
X232152381Y-80703333D02*
X232152381Y-80036666D01*
X233152381Y-80465238D01*
X113966667Y-92848571D02*
X113633333Y-92848571D01*
X113633333Y-93372381D02*
X113633333Y-92372381D01*
X114109524Y-92372381D01*
X115014286Y-93372381D02*
X114442857Y-93372381D01*
X114728571Y-93372381D02*
X114728571Y-92372381D01*
X114633333Y-92515238D01*
X114538095Y-92610476D01*
X114442857Y-92658095D01*
X174538334Y-66012381D02*
X174205000Y-65536190D01*
X173966905Y-66012381D02*
X173966905Y-65012381D01*
X174347858Y-65012381D01*
X174443096Y-65060000D01*
X174490715Y-65107619D01*
X174538334Y-65202857D01*
X174538334Y-65345714D01*
X174490715Y-65440952D01*
X174443096Y-65488571D01*
X174347858Y-65536190D01*
X173966905Y-65536190D01*
X174871667Y-65012381D02*
X175538334Y-66012381D01*
X175538334Y-65012381D02*
X174871667Y-66012381D01*
X161878095Y-65012381D02*
X162449524Y-65012381D01*
X162163809Y-66012381D02*
X162163809Y-65012381D01*
X162687619Y-65012381D02*
X163354286Y-66012381D01*
X163354286Y-65012381D02*
X162687619Y-66012381D01*
X179618334Y-66062381D02*
X179285000Y-65586190D01*
X179046905Y-66062381D02*
X179046905Y-65062381D01*
X179427858Y-65062381D01*
X179523096Y-65110000D01*
X179570715Y-65157619D01*
X179618334Y-65252857D01*
X179618334Y-65395714D01*
X179570715Y-65490952D01*
X179523096Y-65538571D01*
X179427858Y-65586190D01*
X179046905Y-65586190D01*
X180570715Y-66062381D02*
X179999286Y-66062381D01*
X180285000Y-66062381D02*
X180285000Y-65062381D01*
X180189762Y-65205238D01*
X180094524Y-65300476D01*
X179999286Y-65348095D01*
X168188334Y-66062381D02*
X167855000Y-65586190D01*
X167616905Y-66062381D02*
X167616905Y-65062381D01*
X167997858Y-65062381D01*
X168093096Y-65110000D01*
X168140715Y-65157619D01*
X168188334Y-65252857D01*
X168188334Y-65395714D01*
X168140715Y-65490952D01*
X168093096Y-65538571D01*
X167997858Y-65586190D01*
X167616905Y-65586190D01*
X168569286Y-65157619D02*
X168616905Y-65110000D01*
X168712143Y-65062381D01*
X168950239Y-65062381D01*
X169045477Y-65110000D01*
X169093096Y-65157619D01*
X169140715Y-65252857D01*
X169140715Y-65348095D01*
X169093096Y-65490952D01*
X168521667Y-66062381D01*
X169140715Y-66062381D01*
X158412381Y-116538333D02*
X159126667Y-116538333D01*
X159269524Y-116585953D01*
X159364762Y-116681191D01*
X159412381Y-116824048D01*
X159412381Y-116919286D01*
X159412381Y-115538333D02*
X159412381Y-116109762D01*
X159412381Y-115824048D02*
X158412381Y-115824048D01*
X158555238Y-115919286D01*
X158650476Y-116014524D01*
X158698095Y-116109762D01*
X197997381Y-75263333D02*
X198711667Y-75263333D01*
X198854524Y-75310953D01*
X198949762Y-75406191D01*
X198997381Y-75549048D01*
X198997381Y-75644286D01*
X198092619Y-74834762D02*
X198045000Y-74787143D01*
X197997381Y-74691905D01*
X197997381Y-74453809D01*
X198045000Y-74358571D01*
X198092619Y-74310952D01*
X198187857Y-74263333D01*
X198283095Y-74263333D01*
X198425952Y-74310952D01*
X198997381Y-74882381D01*
X198997381Y-74263333D01*
X185717381Y-77803333D02*
X186431667Y-77803333D01*
X186574524Y-77850953D01*
X186669762Y-77946191D01*
X186717381Y-78089048D01*
X186717381Y-78184286D01*
X185717381Y-77422381D02*
X185717381Y-76755714D01*
X186717381Y-77184286D01*
X185717381Y-80343333D02*
X186431667Y-80343333D01*
X186574524Y-80390953D01*
X186669762Y-80486191D01*
X186717381Y-80629048D01*
X186717381Y-80724286D01*
X185717381Y-79390952D02*
X185717381Y-79867143D01*
X186193571Y-79914762D01*
X186145952Y-79867143D01*
X186098333Y-79771905D01*
X186098333Y-79533809D01*
X186145952Y-79438571D01*
X186193571Y-79390952D01*
X186288810Y-79343333D01*
X186526905Y-79343333D01*
X186622143Y-79390952D01*
X186669762Y-79438571D01*
X186717381Y-79533809D01*
X186717381Y-79771905D01*
X186669762Y-79867143D01*
X186622143Y-79914762D01*
M02*
