G04 #@! TF.FileFunction,Soldermask,Bot*
%FSLAX46Y46*%
G04 Gerber Fmt 4.6, Leading zero omitted, Abs format (unit mm)*
G04 Created by KiCad (PCBNEW 4.0.7) date 02/13/18 18:01:40*
%MOMM*%
%LPD*%
G01*
G04 APERTURE LIST*
%ADD10C,0.100000*%
%ADD11R,1.801600X1.801600*%
%ADD12O,1.801600X1.801600*%
%ADD13R,4.061600X2.081600*%
%ADD14O,4.061600X2.081600*%
%ADD15R,1.901600X1.901600*%
%ADD16O,1.901600X1.901600*%
G04 APERTURE END LIST*
D10*
D11*
X196723000Y-71120000D03*
D12*
X194183000Y-71120000D03*
X191643000Y-71120000D03*
X189103000Y-71120000D03*
X186563000Y-71120000D03*
X184023000Y-71120000D03*
X181483000Y-71120000D03*
X178943000Y-71120000D03*
D11*
X200660000Y-116205000D03*
D12*
X198120000Y-116205000D03*
X195580000Y-116205000D03*
X193040000Y-116205000D03*
X190500000Y-116205000D03*
X187960000Y-116205000D03*
X185420000Y-116205000D03*
X182880000Y-116205000D03*
D11*
X170180000Y-102870000D03*
D12*
X172720000Y-102870000D03*
X175260000Y-102870000D03*
X177800000Y-102870000D03*
X180340000Y-102870000D03*
X182880000Y-102870000D03*
X185420000Y-102870000D03*
X187960000Y-102870000D03*
D11*
X138430000Y-76200000D03*
D12*
X140970000Y-76200000D03*
X143510000Y-76200000D03*
X146050000Y-76200000D03*
X148590000Y-76200000D03*
X151130000Y-76200000D03*
D11*
X138430000Y-81280000D03*
D12*
X140970000Y-81280000D03*
X143510000Y-81280000D03*
X146050000Y-81280000D03*
X148590000Y-81280000D03*
X151130000Y-81280000D03*
D11*
X138430000Y-119380000D03*
D12*
X140970000Y-119380000D03*
X143510000Y-119380000D03*
X146050000Y-119380000D03*
X148590000Y-119380000D03*
X151130000Y-119380000D03*
X153670000Y-119380000D03*
X156210000Y-119380000D03*
D11*
X149860000Y-102870000D03*
D12*
X152400000Y-102870000D03*
X154940000Y-102870000D03*
X157480000Y-102870000D03*
X160020000Y-102870000D03*
X162560000Y-102870000D03*
X165100000Y-102870000D03*
X167640000Y-102870000D03*
D11*
X149860000Y-100330000D03*
D12*
X152400000Y-100330000D03*
X154940000Y-100330000D03*
X157480000Y-100330000D03*
X160020000Y-100330000D03*
X162560000Y-100330000D03*
X165100000Y-100330000D03*
X167640000Y-100330000D03*
D11*
X173863000Y-71120000D03*
D12*
X171323000Y-71120000D03*
X168783000Y-71120000D03*
X166243000Y-71120000D03*
X163703000Y-71120000D03*
X161163000Y-71120000D03*
X158623000Y-71120000D03*
X156083000Y-71120000D03*
D11*
X161290000Y-119380000D03*
D12*
X163830000Y-119380000D03*
X166370000Y-119380000D03*
X168910000Y-119380000D03*
X171450000Y-119380000D03*
X173990000Y-119380000D03*
X176530000Y-119380000D03*
X179070000Y-119380000D03*
D11*
X170180000Y-100330000D03*
D12*
X172720000Y-100330000D03*
X175260000Y-100330000D03*
X177800000Y-100330000D03*
X180340000Y-100330000D03*
X182880000Y-100330000D03*
X185420000Y-100330000D03*
X187960000Y-100330000D03*
D11*
X173990000Y-91440000D03*
D12*
X176530000Y-91440000D03*
X173990000Y-93980000D03*
X176530000Y-93980000D03*
X173990000Y-96520000D03*
X176530000Y-96520000D03*
D11*
X184150000Y-119380000D03*
D12*
X186690000Y-119380000D03*
X189230000Y-119380000D03*
X191770000Y-119380000D03*
X194310000Y-119380000D03*
X196850000Y-119380000D03*
X199390000Y-119380000D03*
X201930000Y-119380000D03*
D11*
X204470000Y-71120000D03*
D12*
X207010000Y-71120000D03*
X204470000Y-73660000D03*
X207010000Y-73660000D03*
X204470000Y-76200000D03*
X207010000Y-76200000D03*
X204470000Y-78740000D03*
X207010000Y-78740000D03*
X204470000Y-81280000D03*
X207010000Y-81280000D03*
X204470000Y-83820000D03*
X207010000Y-83820000D03*
X204470000Y-86360000D03*
X207010000Y-86360000D03*
X204470000Y-88900000D03*
X207010000Y-88900000D03*
X204470000Y-91440000D03*
X207010000Y-91440000D03*
X204470000Y-93980000D03*
X207010000Y-93980000D03*
X204470000Y-96520000D03*
X207010000Y-96520000D03*
X204470000Y-99060000D03*
X207010000Y-99060000D03*
X204470000Y-101600000D03*
X207010000Y-101600000D03*
X204470000Y-104140000D03*
X207010000Y-104140000D03*
X204470000Y-106680000D03*
X207010000Y-106680000D03*
X204470000Y-109220000D03*
X207010000Y-109220000D03*
X204470000Y-111760000D03*
X207010000Y-111760000D03*
X204470000Y-114300000D03*
X207010000Y-114300000D03*
D13*
X241300000Y-66120000D03*
D14*
X241300000Y-71120000D03*
X241300000Y-81120000D03*
X241300000Y-76120000D03*
D13*
X241300000Y-87630000D03*
D14*
X241300000Y-92630000D03*
X241300000Y-102630000D03*
X241300000Y-97630000D03*
D13*
X241300000Y-109220000D03*
D14*
X241300000Y-114220000D03*
X241300000Y-124220000D03*
X241300000Y-119220000D03*
D15*
X220345000Y-116205000D03*
D16*
X220345000Y-113665000D03*
X220345000Y-111125000D03*
D15*
X220345000Y-105410000D03*
D16*
X220345000Y-102870000D03*
X220345000Y-100330000D03*
D15*
X212725000Y-104775000D03*
D16*
X212725000Y-102235000D03*
X212725000Y-99695000D03*
D15*
X220345000Y-72390000D03*
D16*
X220345000Y-69850000D03*
X220345000Y-67310000D03*
D15*
X220345000Y-94615000D03*
D16*
X220345000Y-92075000D03*
X220345000Y-89535000D03*
D15*
X220345000Y-83820000D03*
D16*
X220345000Y-81280000D03*
X220345000Y-78740000D03*
D11*
X152019000Y-71120000D03*
D12*
X149479000Y-71120000D03*
X146939000Y-71120000D03*
X144399000Y-71120000D03*
X141859000Y-71120000D03*
X139319000Y-71120000D03*
X136779000Y-71120000D03*
X134239000Y-71120000D03*
X131699000Y-71120000D03*
X129159000Y-71120000D03*
D15*
X114300000Y-110490000D03*
D16*
X114300000Y-105410000D03*
D11*
X114300000Y-95250000D03*
D12*
X114300000Y-97790000D03*
X114300000Y-100330000D03*
D13*
X115570000Y-81915000D03*
D14*
X115570000Y-86915000D03*
D11*
X161290000Y-116205000D03*
D12*
X163830000Y-116205000D03*
X166370000Y-116205000D03*
X168910000Y-116205000D03*
X171450000Y-116205000D03*
X173990000Y-116205000D03*
X176530000Y-116205000D03*
X179070000Y-116205000D03*
D11*
X196215000Y-74930000D03*
D12*
X193675000Y-74930000D03*
X191135000Y-74930000D03*
X188595000Y-74930000D03*
D11*
X188595000Y-77470000D03*
D12*
X191135000Y-77470000D03*
X193675000Y-77470000D03*
X196215000Y-77470000D03*
D11*
X188595000Y-80010000D03*
D12*
X191135000Y-80010000D03*
X193675000Y-80010000D03*
X196215000Y-80010000D03*
M02*
