G04 #@! TF.FileFunction,Copper,L2,Bot,Signal*
%FSLAX46Y46*%
G04 Gerber Fmt 4.6, Leading zero omitted, Abs format (unit mm)*
G04 Created by KiCad (PCBNEW 4.0.7) date 02/13/18 18:01:40*
%MOMM*%
%LPD*%
G01*
G04 APERTURE LIST*
%ADD10C,0.100000*%
%ADD11C,0.700000*%
%ADD12R,1.700000X1.700000*%
%ADD13O,1.700000X1.700000*%
%ADD14R,3.960000X1.980000*%
%ADD15O,3.960000X1.980000*%
%ADD16R,1.800000X1.800000*%
%ADD17O,1.800000X1.800000*%
%ADD18C,0.685800*%
%ADD19C,1.381760*%
%ADD20C,0.254000*%
G04 APERTURE END LIST*
D10*
D11*
X245110000Y-66040000D03*
X246380000Y-66040000D03*
X245110000Y-74930000D03*
X246380000Y-74930000D03*
X245110000Y-72390000D03*
X246380000Y-72390000D03*
X245110000Y-69850000D03*
X246380000Y-69850000D03*
X246380000Y-123825000D03*
X245110000Y-123825000D03*
X246380000Y-118745000D03*
X245110000Y-118745000D03*
X246380000Y-113665000D03*
X245110000Y-113665000D03*
X246380000Y-109220000D03*
X245110000Y-109220000D03*
X246380000Y-107315000D03*
X245110000Y-107315000D03*
X245110000Y-87630000D03*
X246380000Y-87630000D03*
X245110000Y-85725000D03*
X246380000Y-85725000D03*
X245110000Y-81915000D03*
X246380000Y-81915000D03*
X246380000Y-83820000D03*
X245110000Y-83820000D03*
X245110000Y-80010000D03*
X246380000Y-80010000D03*
X245110000Y-103505000D03*
X246380000Y-103505000D03*
X245110000Y-100965000D03*
X246380000Y-100965000D03*
X245110000Y-99060000D03*
X246380000Y-99060000D03*
X245110000Y-97155000D03*
X246380000Y-97155000D03*
X245110000Y-95250000D03*
X246380000Y-95250000D03*
X245110000Y-93345000D03*
X246380000Y-93345000D03*
X245110000Y-91440000D03*
X246380000Y-91440000D03*
X246380000Y-121920000D03*
X245110000Y-121920000D03*
X243840000Y-121920000D03*
X242570000Y-121920000D03*
X241300000Y-121920000D03*
X240030000Y-121920000D03*
X238760000Y-121920000D03*
X237490000Y-121920000D03*
X236220000Y-121920000D03*
X234950000Y-121920000D03*
X246380000Y-116840000D03*
X245110000Y-116840000D03*
X243840000Y-116840000D03*
X242570000Y-116840000D03*
X241300000Y-116840000D03*
X240030000Y-116840000D03*
X238760000Y-116840000D03*
X237490000Y-116840000D03*
X236220000Y-116840000D03*
X246380000Y-111760000D03*
X245110000Y-111760000D03*
X243840000Y-111760000D03*
X242570000Y-111760000D03*
X241300000Y-111760000D03*
X240030000Y-111760000D03*
X238760000Y-111760000D03*
X237490000Y-111760000D03*
X236220000Y-111760000D03*
X234950000Y-111760000D03*
X246380000Y-105410000D03*
X245110000Y-105410000D03*
X243840000Y-105410000D03*
X242570000Y-105410000D03*
X241300000Y-105410000D03*
X240030000Y-105410000D03*
X238760000Y-105410000D03*
X237490000Y-105410000D03*
X236220000Y-105410000D03*
X234950000Y-105410000D03*
X246380000Y-89535000D03*
X245110000Y-89535000D03*
X243840000Y-89535000D03*
X242570000Y-89535000D03*
X241300000Y-89535000D03*
X240030000Y-89535000D03*
X238760000Y-89535000D03*
X237490000Y-89535000D03*
X236220000Y-89535000D03*
X234950000Y-89535000D03*
X246380000Y-78105000D03*
X245110000Y-78105000D03*
X243840000Y-78105000D03*
X242570000Y-78105000D03*
X241300000Y-78105000D03*
X240030000Y-78105000D03*
X238760000Y-78105000D03*
X237490000Y-78105000D03*
X236220000Y-78105000D03*
X234950000Y-78105000D03*
X246380000Y-67945000D03*
X245110000Y-67945000D03*
X243840000Y-67945000D03*
X242570000Y-67945000D03*
X241300000Y-67945000D03*
X240030000Y-67945000D03*
X238760000Y-67945000D03*
X237490000Y-67945000D03*
X236220000Y-67945000D03*
X234950000Y-67945000D03*
X246380000Y-64135000D03*
X245110000Y-64135000D03*
X243840000Y-64135000D03*
X242570000Y-64135000D03*
X241300000Y-64135000D03*
X240030000Y-64135000D03*
X238760000Y-64135000D03*
X237490000Y-64135000D03*
X236220000Y-64135000D03*
X234950000Y-64135000D03*
D12*
X196723000Y-71120000D03*
D13*
X194183000Y-71120000D03*
X191643000Y-71120000D03*
X189103000Y-71120000D03*
X186563000Y-71120000D03*
X184023000Y-71120000D03*
X181483000Y-71120000D03*
X178943000Y-71120000D03*
D12*
X200660000Y-116205000D03*
D13*
X198120000Y-116205000D03*
X195580000Y-116205000D03*
X193040000Y-116205000D03*
X190500000Y-116205000D03*
X187960000Y-116205000D03*
X185420000Y-116205000D03*
X182880000Y-116205000D03*
D12*
X170180000Y-102870000D03*
D13*
X172720000Y-102870000D03*
X175260000Y-102870000D03*
X177800000Y-102870000D03*
X180340000Y-102870000D03*
X182880000Y-102870000D03*
X185420000Y-102870000D03*
X187960000Y-102870000D03*
D12*
X138430000Y-76200000D03*
D13*
X140970000Y-76200000D03*
X143510000Y-76200000D03*
X146050000Y-76200000D03*
X148590000Y-76200000D03*
X151130000Y-76200000D03*
D12*
X138430000Y-81280000D03*
D13*
X140970000Y-81280000D03*
X143510000Y-81280000D03*
X146050000Y-81280000D03*
X148590000Y-81280000D03*
X151130000Y-81280000D03*
D12*
X138430000Y-119380000D03*
D13*
X140970000Y-119380000D03*
X143510000Y-119380000D03*
X146050000Y-119380000D03*
X148590000Y-119380000D03*
X151130000Y-119380000D03*
X153670000Y-119380000D03*
X156210000Y-119380000D03*
D12*
X149860000Y-102870000D03*
D13*
X152400000Y-102870000D03*
X154940000Y-102870000D03*
X157480000Y-102870000D03*
X160020000Y-102870000D03*
X162560000Y-102870000D03*
X165100000Y-102870000D03*
X167640000Y-102870000D03*
D12*
X149860000Y-100330000D03*
D13*
X152400000Y-100330000D03*
X154940000Y-100330000D03*
X157480000Y-100330000D03*
X160020000Y-100330000D03*
X162560000Y-100330000D03*
X165100000Y-100330000D03*
X167640000Y-100330000D03*
D12*
X173863000Y-71120000D03*
D13*
X171323000Y-71120000D03*
X168783000Y-71120000D03*
X166243000Y-71120000D03*
X163703000Y-71120000D03*
X161163000Y-71120000D03*
X158623000Y-71120000D03*
X156083000Y-71120000D03*
D12*
X161290000Y-119380000D03*
D13*
X163830000Y-119380000D03*
X166370000Y-119380000D03*
X168910000Y-119380000D03*
X171450000Y-119380000D03*
X173990000Y-119380000D03*
X176530000Y-119380000D03*
X179070000Y-119380000D03*
D12*
X170180000Y-100330000D03*
D13*
X172720000Y-100330000D03*
X175260000Y-100330000D03*
X177800000Y-100330000D03*
X180340000Y-100330000D03*
X182880000Y-100330000D03*
X185420000Y-100330000D03*
X187960000Y-100330000D03*
D12*
X173990000Y-91440000D03*
D13*
X176530000Y-91440000D03*
X173990000Y-93980000D03*
X176530000Y-93980000D03*
X173990000Y-96520000D03*
X176530000Y-96520000D03*
D12*
X184150000Y-119380000D03*
D13*
X186690000Y-119380000D03*
X189230000Y-119380000D03*
X191770000Y-119380000D03*
X194310000Y-119380000D03*
X196850000Y-119380000D03*
X199390000Y-119380000D03*
X201930000Y-119380000D03*
D12*
X204470000Y-71120000D03*
D13*
X207010000Y-71120000D03*
X204470000Y-73660000D03*
X207010000Y-73660000D03*
X204470000Y-76200000D03*
X207010000Y-76200000D03*
X204470000Y-78740000D03*
X207010000Y-78740000D03*
X204470000Y-81280000D03*
X207010000Y-81280000D03*
X204470000Y-83820000D03*
X207010000Y-83820000D03*
X204470000Y-86360000D03*
X207010000Y-86360000D03*
X204470000Y-88900000D03*
X207010000Y-88900000D03*
X204470000Y-91440000D03*
X207010000Y-91440000D03*
X204470000Y-93980000D03*
X207010000Y-93980000D03*
X204470000Y-96520000D03*
X207010000Y-96520000D03*
X204470000Y-99060000D03*
X207010000Y-99060000D03*
X204470000Y-101600000D03*
X207010000Y-101600000D03*
X204470000Y-104140000D03*
X207010000Y-104140000D03*
X204470000Y-106680000D03*
X207010000Y-106680000D03*
X204470000Y-109220000D03*
X207010000Y-109220000D03*
X204470000Y-111760000D03*
X207010000Y-111760000D03*
X204470000Y-114300000D03*
X207010000Y-114300000D03*
D14*
X241300000Y-66120000D03*
D15*
X241300000Y-71120000D03*
X241300000Y-81120000D03*
X241300000Y-76120000D03*
D14*
X241300000Y-87630000D03*
D15*
X241300000Y-92630000D03*
X241300000Y-102630000D03*
X241300000Y-97630000D03*
D14*
X241300000Y-109220000D03*
D15*
X241300000Y-114220000D03*
X241300000Y-124220000D03*
X241300000Y-119220000D03*
D16*
X220345000Y-116205000D03*
D17*
X220345000Y-113665000D03*
X220345000Y-111125000D03*
D16*
X220345000Y-105410000D03*
D17*
X220345000Y-102870000D03*
X220345000Y-100330000D03*
D16*
X212725000Y-104775000D03*
D17*
X212725000Y-102235000D03*
X212725000Y-99695000D03*
D16*
X220345000Y-72390000D03*
D17*
X220345000Y-69850000D03*
X220345000Y-67310000D03*
D16*
X220345000Y-94615000D03*
D17*
X220345000Y-92075000D03*
X220345000Y-89535000D03*
D16*
X220345000Y-83820000D03*
D17*
X220345000Y-81280000D03*
X220345000Y-78740000D03*
D12*
X152019000Y-71120000D03*
D13*
X149479000Y-71120000D03*
X146939000Y-71120000D03*
X144399000Y-71120000D03*
X141859000Y-71120000D03*
X139319000Y-71120000D03*
X136779000Y-71120000D03*
X134239000Y-71120000D03*
X131699000Y-71120000D03*
X129159000Y-71120000D03*
D16*
X114300000Y-110490000D03*
D17*
X114300000Y-105410000D03*
D12*
X114300000Y-95250000D03*
D13*
X114300000Y-97790000D03*
X114300000Y-100330000D03*
D14*
X115570000Y-81915000D03*
D15*
X115570000Y-86915000D03*
D12*
X161290000Y-116205000D03*
D13*
X163830000Y-116205000D03*
X166370000Y-116205000D03*
X168910000Y-116205000D03*
X171450000Y-116205000D03*
X173990000Y-116205000D03*
X176530000Y-116205000D03*
X179070000Y-116205000D03*
D12*
X196215000Y-74930000D03*
D13*
X193675000Y-74930000D03*
X191135000Y-74930000D03*
X188595000Y-74930000D03*
D12*
X188595000Y-77470000D03*
D13*
X191135000Y-77470000D03*
X193675000Y-77470000D03*
X196215000Y-77470000D03*
D12*
X188595000Y-80010000D03*
D13*
X191135000Y-80010000D03*
X193675000Y-80010000D03*
X196215000Y-80010000D03*
D18*
X218440000Y-107950000D03*
X216350000Y-108770000D03*
X217170000Y-107950000D03*
D19*
X217170000Y-107950000D02*
X218440000Y-107950000D01*
X218440000Y-107950000D02*
X219710000Y-107950000D01*
X219710000Y-107950000D02*
X235980000Y-124220000D01*
X235980000Y-124220000D02*
X241300000Y-124220000D01*
D20*
G36*
X233045000Y-119409923D02*
X220647539Y-107012461D01*
X220565194Y-106957440D01*
X221245000Y-106957440D01*
X221480317Y-106913162D01*
X221696441Y-106774090D01*
X221841431Y-106561890D01*
X221892440Y-106310000D01*
X221892440Y-104510000D01*
X221848162Y-104274683D01*
X221709090Y-104058559D01*
X221496890Y-103913569D01*
X221480656Y-103910281D01*
X221763155Y-103487491D01*
X221880000Y-102900072D01*
X221880000Y-102839928D01*
X221763155Y-102252509D01*
X221430409Y-101754519D01*
X221192418Y-101595499D01*
X221582966Y-101237576D01*
X221836046Y-100694742D01*
X221715997Y-100457000D01*
X220472000Y-100457000D01*
X220472000Y-100477000D01*
X220218000Y-100477000D01*
X220218000Y-100457000D01*
X218974003Y-100457000D01*
X218853954Y-100694742D01*
X219107034Y-101237576D01*
X219497582Y-101595499D01*
X219259591Y-101754519D01*
X218926845Y-102252509D01*
X218810000Y-102839928D01*
X218810000Y-102900072D01*
X218926845Y-103487491D01*
X219207837Y-103908026D01*
X218993559Y-104045910D01*
X218848569Y-104258110D01*
X218797560Y-104510000D01*
X218797560Y-106310000D01*
X218841838Y-106545317D01*
X218892546Y-106624120D01*
X217170000Y-106624120D01*
X216662608Y-106725047D01*
X216232461Y-107012461D01*
X215945047Y-107442608D01*
X215850419Y-107918333D01*
X215796788Y-107940493D01*
X215521460Y-108215341D01*
X215372270Y-108574630D01*
X215371931Y-108963663D01*
X215520493Y-109323212D01*
X215795341Y-109598540D01*
X216154630Y-109747730D01*
X216543663Y-109748069D01*
X216903212Y-109599507D01*
X217178540Y-109324659D01*
X217198795Y-109275880D01*
X219160802Y-109275880D01*
X219654014Y-109769092D01*
X219548583Y-109812760D01*
X219107034Y-110217424D01*
X218853954Y-110760258D01*
X218974003Y-110998000D01*
X220218000Y-110998000D01*
X220218000Y-110978000D01*
X220472000Y-110978000D01*
X220472000Y-110998000D01*
X220492000Y-110998000D01*
X220492000Y-111252000D01*
X220472000Y-111252000D01*
X220472000Y-111272000D01*
X220218000Y-111272000D01*
X220218000Y-111252000D01*
X218974003Y-111252000D01*
X218853954Y-111489742D01*
X219107034Y-112032576D01*
X219497582Y-112390499D01*
X219259591Y-112549519D01*
X218926845Y-113047509D01*
X218810000Y-113634928D01*
X218810000Y-113695072D01*
X218926845Y-114282491D01*
X219207837Y-114703026D01*
X218993559Y-114840910D01*
X218848569Y-115053110D01*
X218797560Y-115305000D01*
X218797560Y-117105000D01*
X218841838Y-117340317D01*
X218980910Y-117556441D01*
X219193110Y-117701431D01*
X219445000Y-117752440D01*
X221245000Y-117752440D01*
X221480317Y-117708162D01*
X221696441Y-117569090D01*
X221841431Y-117356890D01*
X221892440Y-117105000D01*
X221892440Y-115305000D01*
X221848162Y-115069683D01*
X221709090Y-114853559D01*
X221496890Y-114708569D01*
X221480656Y-114705281D01*
X221763155Y-114282491D01*
X221880000Y-113695072D01*
X221880000Y-113634928D01*
X221763155Y-113047509D01*
X221430409Y-112549519D01*
X221192418Y-112390499D01*
X221582966Y-112032576D01*
X221689339Y-111804416D01*
X233045000Y-123160077D01*
X233045000Y-126290000D01*
X112470000Y-126290000D01*
X112470000Y-118530000D01*
X136932560Y-118530000D01*
X136932560Y-120230000D01*
X136976838Y-120465317D01*
X137115910Y-120681441D01*
X137328110Y-120826431D01*
X137580000Y-120877440D01*
X139280000Y-120877440D01*
X139515317Y-120833162D01*
X139731441Y-120694090D01*
X139876431Y-120481890D01*
X139890086Y-120414459D01*
X139919946Y-120459147D01*
X140401715Y-120781054D01*
X140970000Y-120894093D01*
X141538285Y-120781054D01*
X142020054Y-120459147D01*
X142240000Y-120129974D01*
X142459946Y-120459147D01*
X142941715Y-120781054D01*
X143510000Y-120894093D01*
X144078285Y-120781054D01*
X144560054Y-120459147D01*
X144780000Y-120129974D01*
X144999946Y-120459147D01*
X145481715Y-120781054D01*
X146050000Y-120894093D01*
X146618285Y-120781054D01*
X147100054Y-120459147D01*
X147320000Y-120129974D01*
X147539946Y-120459147D01*
X148021715Y-120781054D01*
X148590000Y-120894093D01*
X149158285Y-120781054D01*
X149640054Y-120459147D01*
X149867702Y-120118447D01*
X149934817Y-120261358D01*
X150363076Y-120651645D01*
X150773110Y-120821476D01*
X151003000Y-120700155D01*
X151003000Y-119507000D01*
X151257000Y-119507000D01*
X151257000Y-120700155D01*
X151486890Y-120821476D01*
X151896924Y-120651645D01*
X152325183Y-120261358D01*
X152400000Y-120102046D01*
X152474817Y-120261358D01*
X152903076Y-120651645D01*
X153313110Y-120821476D01*
X153543000Y-120700155D01*
X153543000Y-119507000D01*
X151257000Y-119507000D01*
X151003000Y-119507000D01*
X150983000Y-119507000D01*
X150983000Y-119253000D01*
X151003000Y-119253000D01*
X151003000Y-118059845D01*
X151257000Y-118059845D01*
X151257000Y-119253000D01*
X153543000Y-119253000D01*
X153543000Y-118059845D01*
X153797000Y-118059845D01*
X153797000Y-119253000D01*
X153817000Y-119253000D01*
X153817000Y-119507000D01*
X153797000Y-119507000D01*
X153797000Y-120700155D01*
X154026890Y-120821476D01*
X154436924Y-120651645D01*
X154865183Y-120261358D01*
X154932298Y-120118447D01*
X155159946Y-120459147D01*
X155641715Y-120781054D01*
X156210000Y-120894093D01*
X156778285Y-120781054D01*
X157260054Y-120459147D01*
X157581961Y-119977378D01*
X157695000Y-119409093D01*
X157695000Y-119350907D01*
X157581961Y-118782622D01*
X157413165Y-118530000D01*
X159792560Y-118530000D01*
X159792560Y-120230000D01*
X159836838Y-120465317D01*
X159975910Y-120681441D01*
X160188110Y-120826431D01*
X160440000Y-120877440D01*
X162140000Y-120877440D01*
X162375317Y-120833162D01*
X162591441Y-120694090D01*
X162736431Y-120481890D01*
X162750086Y-120414459D01*
X162779946Y-120459147D01*
X163261715Y-120781054D01*
X163830000Y-120894093D01*
X164398285Y-120781054D01*
X164880054Y-120459147D01*
X165100000Y-120129974D01*
X165319946Y-120459147D01*
X165801715Y-120781054D01*
X166370000Y-120894093D01*
X166938285Y-120781054D01*
X167420054Y-120459147D01*
X167640000Y-120129974D01*
X167859946Y-120459147D01*
X168341715Y-120781054D01*
X168910000Y-120894093D01*
X169478285Y-120781054D01*
X169960054Y-120459147D01*
X170180000Y-120129974D01*
X170399946Y-120459147D01*
X170881715Y-120781054D01*
X171450000Y-120894093D01*
X172018285Y-120781054D01*
X172500054Y-120459147D01*
X172720000Y-120129974D01*
X172939946Y-120459147D01*
X173421715Y-120781054D01*
X173990000Y-120894093D01*
X174558285Y-120781054D01*
X175040054Y-120459147D01*
X175260000Y-120129974D01*
X175479946Y-120459147D01*
X175961715Y-120781054D01*
X176530000Y-120894093D01*
X177098285Y-120781054D01*
X177580054Y-120459147D01*
X177800000Y-120129974D01*
X178019946Y-120459147D01*
X178501715Y-120781054D01*
X179070000Y-120894093D01*
X179638285Y-120781054D01*
X180120054Y-120459147D01*
X180441961Y-119977378D01*
X180555000Y-119409093D01*
X180555000Y-119350907D01*
X180441961Y-118782622D01*
X180273165Y-118530000D01*
X182652560Y-118530000D01*
X182652560Y-120230000D01*
X182696838Y-120465317D01*
X182835910Y-120681441D01*
X183048110Y-120826431D01*
X183300000Y-120877440D01*
X185000000Y-120877440D01*
X185235317Y-120833162D01*
X185451441Y-120694090D01*
X185596431Y-120481890D01*
X185610086Y-120414459D01*
X185639946Y-120459147D01*
X186121715Y-120781054D01*
X186690000Y-120894093D01*
X187258285Y-120781054D01*
X187740054Y-120459147D01*
X187960000Y-120129974D01*
X188179946Y-120459147D01*
X188661715Y-120781054D01*
X189230000Y-120894093D01*
X189798285Y-120781054D01*
X190280054Y-120459147D01*
X190500000Y-120129974D01*
X190719946Y-120459147D01*
X191201715Y-120781054D01*
X191770000Y-120894093D01*
X192338285Y-120781054D01*
X192820054Y-120459147D01*
X193040000Y-120129974D01*
X193259946Y-120459147D01*
X193741715Y-120781054D01*
X194310000Y-120894093D01*
X194878285Y-120781054D01*
X195360054Y-120459147D01*
X195580000Y-120129974D01*
X195799946Y-120459147D01*
X196281715Y-120781054D01*
X196850000Y-120894093D01*
X197418285Y-120781054D01*
X197900054Y-120459147D01*
X198120000Y-120129974D01*
X198339946Y-120459147D01*
X198821715Y-120781054D01*
X199390000Y-120894093D01*
X199958285Y-120781054D01*
X200440054Y-120459147D01*
X200660000Y-120129974D01*
X200879946Y-120459147D01*
X201361715Y-120781054D01*
X201930000Y-120894093D01*
X202498285Y-120781054D01*
X202980054Y-120459147D01*
X203301961Y-119977378D01*
X203415000Y-119409093D01*
X203415000Y-119350907D01*
X203301961Y-118782622D01*
X202980054Y-118300853D01*
X202498285Y-117978946D01*
X201930000Y-117865907D01*
X201361715Y-117978946D01*
X200879946Y-118300853D01*
X200660000Y-118630026D01*
X200440054Y-118300853D01*
X199958285Y-117978946D01*
X199390000Y-117865907D01*
X198821715Y-117978946D01*
X198339946Y-118300853D01*
X198120000Y-118630026D01*
X197900054Y-118300853D01*
X197418285Y-117978946D01*
X196850000Y-117865907D01*
X196281715Y-117978946D01*
X195799946Y-118300853D01*
X195580000Y-118630026D01*
X195360054Y-118300853D01*
X194878285Y-117978946D01*
X194310000Y-117865907D01*
X193741715Y-117978946D01*
X193259946Y-118300853D01*
X193040000Y-118630026D01*
X192820054Y-118300853D01*
X192338285Y-117978946D01*
X191770000Y-117865907D01*
X191201715Y-117978946D01*
X190719946Y-118300853D01*
X190500000Y-118630026D01*
X190280054Y-118300853D01*
X189798285Y-117978946D01*
X189230000Y-117865907D01*
X188661715Y-117978946D01*
X188179946Y-118300853D01*
X187960000Y-118630026D01*
X187740054Y-118300853D01*
X187258285Y-117978946D01*
X186690000Y-117865907D01*
X186121715Y-117978946D01*
X185639946Y-118300853D01*
X185612150Y-118342452D01*
X185603162Y-118294683D01*
X185464090Y-118078559D01*
X185251890Y-117933569D01*
X185000000Y-117882560D01*
X183300000Y-117882560D01*
X183064683Y-117926838D01*
X182848559Y-118065910D01*
X182703569Y-118278110D01*
X182652560Y-118530000D01*
X180273165Y-118530000D01*
X180120054Y-118300853D01*
X179638285Y-117978946D01*
X179070000Y-117865907D01*
X178501715Y-117978946D01*
X178019946Y-118300853D01*
X177800000Y-118630026D01*
X177580054Y-118300853D01*
X177098285Y-117978946D01*
X176530000Y-117865907D01*
X175961715Y-117978946D01*
X175479946Y-118300853D01*
X175260000Y-118630026D01*
X175040054Y-118300853D01*
X174558285Y-117978946D01*
X173990000Y-117865907D01*
X173421715Y-117978946D01*
X172939946Y-118300853D01*
X172720000Y-118630026D01*
X172500054Y-118300853D01*
X172018285Y-117978946D01*
X171450000Y-117865907D01*
X170881715Y-117978946D01*
X170399946Y-118300853D01*
X170180000Y-118630026D01*
X169960054Y-118300853D01*
X169478285Y-117978946D01*
X168910000Y-117865907D01*
X168341715Y-117978946D01*
X167859946Y-118300853D01*
X167640000Y-118630026D01*
X167420054Y-118300853D01*
X166938285Y-117978946D01*
X166370000Y-117865907D01*
X165801715Y-117978946D01*
X165319946Y-118300853D01*
X165100000Y-118630026D01*
X164880054Y-118300853D01*
X164398285Y-117978946D01*
X163830000Y-117865907D01*
X163261715Y-117978946D01*
X162779946Y-118300853D01*
X162752150Y-118342452D01*
X162743162Y-118294683D01*
X162604090Y-118078559D01*
X162391890Y-117933569D01*
X162140000Y-117882560D01*
X160440000Y-117882560D01*
X160204683Y-117926838D01*
X159988559Y-118065910D01*
X159843569Y-118278110D01*
X159792560Y-118530000D01*
X157413165Y-118530000D01*
X157260054Y-118300853D01*
X156778285Y-117978946D01*
X156210000Y-117865907D01*
X155641715Y-117978946D01*
X155159946Y-118300853D01*
X154932298Y-118641553D01*
X154865183Y-118498642D01*
X154436924Y-118108355D01*
X154026890Y-117938524D01*
X153797000Y-118059845D01*
X153543000Y-118059845D01*
X153313110Y-117938524D01*
X152903076Y-118108355D01*
X152474817Y-118498642D01*
X152400000Y-118657954D01*
X152325183Y-118498642D01*
X151896924Y-118108355D01*
X151486890Y-117938524D01*
X151257000Y-118059845D01*
X151003000Y-118059845D01*
X150773110Y-117938524D01*
X150363076Y-118108355D01*
X149934817Y-118498642D01*
X149867702Y-118641553D01*
X149640054Y-118300853D01*
X149158285Y-117978946D01*
X148590000Y-117865907D01*
X148021715Y-117978946D01*
X147539946Y-118300853D01*
X147320000Y-118630026D01*
X147100054Y-118300853D01*
X146618285Y-117978946D01*
X146050000Y-117865907D01*
X145481715Y-117978946D01*
X144999946Y-118300853D01*
X144780000Y-118630026D01*
X144560054Y-118300853D01*
X144078285Y-117978946D01*
X143510000Y-117865907D01*
X142941715Y-117978946D01*
X142459946Y-118300853D01*
X142240000Y-118630026D01*
X142020054Y-118300853D01*
X141538285Y-117978946D01*
X140970000Y-117865907D01*
X140401715Y-117978946D01*
X139919946Y-118300853D01*
X139892150Y-118342452D01*
X139883162Y-118294683D01*
X139744090Y-118078559D01*
X139531890Y-117933569D01*
X139280000Y-117882560D01*
X137580000Y-117882560D01*
X137344683Y-117926838D01*
X137128559Y-118065910D01*
X136983569Y-118278110D01*
X136932560Y-118530000D01*
X112470000Y-118530000D01*
X112470000Y-115355000D01*
X159792560Y-115355000D01*
X159792560Y-117055000D01*
X159836838Y-117290317D01*
X159975910Y-117506441D01*
X160188110Y-117651431D01*
X160440000Y-117702440D01*
X162140000Y-117702440D01*
X162375317Y-117658162D01*
X162591441Y-117519090D01*
X162736431Y-117306890D01*
X162750086Y-117239459D01*
X162779946Y-117284147D01*
X163261715Y-117606054D01*
X163830000Y-117719093D01*
X164398285Y-117606054D01*
X164880054Y-117284147D01*
X165100000Y-116954974D01*
X165319946Y-117284147D01*
X165801715Y-117606054D01*
X166370000Y-117719093D01*
X166938285Y-117606054D01*
X167420054Y-117284147D01*
X167640000Y-116954974D01*
X167859946Y-117284147D01*
X168341715Y-117606054D01*
X168910000Y-117719093D01*
X169478285Y-117606054D01*
X169960054Y-117284147D01*
X170180000Y-116954974D01*
X170399946Y-117284147D01*
X170881715Y-117606054D01*
X171450000Y-117719093D01*
X172018285Y-117606054D01*
X172500054Y-117284147D01*
X172720000Y-116954974D01*
X172939946Y-117284147D01*
X173421715Y-117606054D01*
X173990000Y-117719093D01*
X174558285Y-117606054D01*
X175040054Y-117284147D01*
X175260000Y-116954974D01*
X175479946Y-117284147D01*
X175961715Y-117606054D01*
X176530000Y-117719093D01*
X177098285Y-117606054D01*
X177580054Y-117284147D01*
X177800000Y-116954974D01*
X178019946Y-117284147D01*
X178501715Y-117606054D01*
X179070000Y-117719093D01*
X179638285Y-117606054D01*
X180120054Y-117284147D01*
X180441961Y-116802378D01*
X180555000Y-116234093D01*
X180555000Y-116175907D01*
X181395000Y-116175907D01*
X181395000Y-116234093D01*
X181508039Y-116802378D01*
X181829946Y-117284147D01*
X182311715Y-117606054D01*
X182880000Y-117719093D01*
X183448285Y-117606054D01*
X183930054Y-117284147D01*
X184150000Y-116954974D01*
X184369946Y-117284147D01*
X184851715Y-117606054D01*
X185420000Y-117719093D01*
X185988285Y-117606054D01*
X186470054Y-117284147D01*
X186690000Y-116954974D01*
X186909946Y-117284147D01*
X187391715Y-117606054D01*
X187960000Y-117719093D01*
X188528285Y-117606054D01*
X189010054Y-117284147D01*
X189230000Y-116954974D01*
X189449946Y-117284147D01*
X189931715Y-117606054D01*
X190500000Y-117719093D01*
X191068285Y-117606054D01*
X191550054Y-117284147D01*
X191770000Y-116954974D01*
X191989946Y-117284147D01*
X192471715Y-117606054D01*
X193040000Y-117719093D01*
X193608285Y-117606054D01*
X194090054Y-117284147D01*
X194310000Y-116954974D01*
X194529946Y-117284147D01*
X195011715Y-117606054D01*
X195580000Y-117719093D01*
X196148285Y-117606054D01*
X196630054Y-117284147D01*
X196850000Y-116954974D01*
X197069946Y-117284147D01*
X197551715Y-117606054D01*
X198120000Y-117719093D01*
X198688285Y-117606054D01*
X199170054Y-117284147D01*
X199197850Y-117242548D01*
X199206838Y-117290317D01*
X199345910Y-117506441D01*
X199558110Y-117651431D01*
X199810000Y-117702440D01*
X201510000Y-117702440D01*
X201745317Y-117658162D01*
X201961441Y-117519090D01*
X202106431Y-117306890D01*
X202157440Y-117055000D01*
X202157440Y-115355000D01*
X202113162Y-115119683D01*
X201974090Y-114903559D01*
X201761890Y-114758569D01*
X201510000Y-114707560D01*
X199810000Y-114707560D01*
X199574683Y-114751838D01*
X199358559Y-114890910D01*
X199213569Y-115103110D01*
X199199914Y-115170541D01*
X199170054Y-115125853D01*
X198688285Y-114803946D01*
X198120000Y-114690907D01*
X197551715Y-114803946D01*
X197069946Y-115125853D01*
X196850000Y-115455026D01*
X196630054Y-115125853D01*
X196148285Y-114803946D01*
X195580000Y-114690907D01*
X195011715Y-114803946D01*
X194529946Y-115125853D01*
X194310000Y-115455026D01*
X194090054Y-115125853D01*
X193608285Y-114803946D01*
X193040000Y-114690907D01*
X192471715Y-114803946D01*
X191989946Y-115125853D01*
X191770000Y-115455026D01*
X191550054Y-115125853D01*
X191068285Y-114803946D01*
X190500000Y-114690907D01*
X189931715Y-114803946D01*
X189449946Y-115125853D01*
X189230000Y-115455026D01*
X189010054Y-115125853D01*
X188528285Y-114803946D01*
X187960000Y-114690907D01*
X187391715Y-114803946D01*
X186909946Y-115125853D01*
X186690000Y-115455026D01*
X186470054Y-115125853D01*
X185988285Y-114803946D01*
X185420000Y-114690907D01*
X184851715Y-114803946D01*
X184369946Y-115125853D01*
X184150000Y-115455026D01*
X183930054Y-115125853D01*
X183448285Y-114803946D01*
X182880000Y-114690907D01*
X182311715Y-114803946D01*
X181829946Y-115125853D01*
X181508039Y-115607622D01*
X181395000Y-116175907D01*
X180555000Y-116175907D01*
X180441961Y-115607622D01*
X180120054Y-115125853D01*
X179638285Y-114803946D01*
X179070000Y-114690907D01*
X178501715Y-114803946D01*
X178019946Y-115125853D01*
X177800000Y-115455026D01*
X177580054Y-115125853D01*
X177098285Y-114803946D01*
X176530000Y-114690907D01*
X175961715Y-114803946D01*
X175479946Y-115125853D01*
X175260000Y-115455026D01*
X175040054Y-115125853D01*
X174558285Y-114803946D01*
X173990000Y-114690907D01*
X173421715Y-114803946D01*
X172939946Y-115125853D01*
X172720000Y-115455026D01*
X172500054Y-115125853D01*
X172018285Y-114803946D01*
X171450000Y-114690907D01*
X170881715Y-114803946D01*
X170399946Y-115125853D01*
X170180000Y-115455026D01*
X169960054Y-115125853D01*
X169478285Y-114803946D01*
X168910000Y-114690907D01*
X168341715Y-114803946D01*
X167859946Y-115125853D01*
X167640000Y-115455026D01*
X167420054Y-115125853D01*
X166938285Y-114803946D01*
X166370000Y-114690907D01*
X165801715Y-114803946D01*
X165319946Y-115125853D01*
X165100000Y-115455026D01*
X164880054Y-115125853D01*
X164398285Y-114803946D01*
X163830000Y-114690907D01*
X163261715Y-114803946D01*
X162779946Y-115125853D01*
X162752150Y-115167452D01*
X162743162Y-115119683D01*
X162604090Y-114903559D01*
X162391890Y-114758569D01*
X162140000Y-114707560D01*
X160440000Y-114707560D01*
X160204683Y-114751838D01*
X159988559Y-114890910D01*
X159843569Y-115103110D01*
X159792560Y-115355000D01*
X112470000Y-115355000D01*
X112470000Y-109590000D01*
X112752560Y-109590000D01*
X112752560Y-111390000D01*
X112796838Y-111625317D01*
X112935910Y-111841441D01*
X113148110Y-111986431D01*
X113400000Y-112037440D01*
X115200000Y-112037440D01*
X115435317Y-111993162D01*
X115651441Y-111854090D01*
X115796431Y-111641890D01*
X115847440Y-111390000D01*
X115847440Y-109590000D01*
X115803162Y-109354683D01*
X115664090Y-109138559D01*
X115451890Y-108993569D01*
X115200000Y-108942560D01*
X113400000Y-108942560D01*
X113164683Y-108986838D01*
X112948559Y-109125910D01*
X112803569Y-109338110D01*
X112752560Y-109590000D01*
X112470000Y-109590000D01*
X112470000Y-105379928D01*
X112765000Y-105379928D01*
X112765000Y-105440072D01*
X112881845Y-106027491D01*
X113214591Y-106525481D01*
X113712581Y-106858227D01*
X114300000Y-106975072D01*
X114887419Y-106858227D01*
X115385409Y-106525481D01*
X115718155Y-106027491D01*
X115835000Y-105440072D01*
X115835000Y-105379928D01*
X115718155Y-104792509D01*
X115385409Y-104294519D01*
X114887419Y-103961773D01*
X114300000Y-103844928D01*
X113712581Y-103961773D01*
X113214591Y-104294519D01*
X112881845Y-104792509D01*
X112765000Y-105379928D01*
X112470000Y-105379928D01*
X112470000Y-103155750D01*
X148375000Y-103155750D01*
X148375000Y-103846309D01*
X148471673Y-104079698D01*
X148650301Y-104258327D01*
X148883690Y-104355000D01*
X149574250Y-104355000D01*
X149733000Y-104196250D01*
X149733000Y-102997000D01*
X149987000Y-102997000D01*
X149987000Y-104196250D01*
X150145750Y-104355000D01*
X150836310Y-104355000D01*
X151069699Y-104258327D01*
X151248327Y-104079698D01*
X151335136Y-103870122D01*
X151633076Y-104141645D01*
X152043110Y-104311476D01*
X152273000Y-104190155D01*
X152273000Y-102997000D01*
X152527000Y-102997000D01*
X152527000Y-104190155D01*
X152756890Y-104311476D01*
X153166924Y-104141645D01*
X153595183Y-103751358D01*
X153670000Y-103592046D01*
X153744817Y-103751358D01*
X154173076Y-104141645D01*
X154583110Y-104311476D01*
X154813000Y-104190155D01*
X154813000Y-102997000D01*
X155067000Y-102997000D01*
X155067000Y-104190155D01*
X155296890Y-104311476D01*
X155706924Y-104141645D01*
X156135183Y-103751358D01*
X156210000Y-103592046D01*
X156284817Y-103751358D01*
X156713076Y-104141645D01*
X157123110Y-104311476D01*
X157353000Y-104190155D01*
X157353000Y-102997000D01*
X157607000Y-102997000D01*
X157607000Y-104190155D01*
X157836890Y-104311476D01*
X158246924Y-104141645D01*
X158675183Y-103751358D01*
X158750000Y-103592046D01*
X158824817Y-103751358D01*
X159253076Y-104141645D01*
X159663110Y-104311476D01*
X159893000Y-104190155D01*
X159893000Y-102997000D01*
X160147000Y-102997000D01*
X160147000Y-104190155D01*
X160376890Y-104311476D01*
X160786924Y-104141645D01*
X161215183Y-103751358D01*
X161290000Y-103592046D01*
X161364817Y-103751358D01*
X161793076Y-104141645D01*
X162203110Y-104311476D01*
X162433000Y-104190155D01*
X162433000Y-102997000D01*
X162687000Y-102997000D01*
X162687000Y-104190155D01*
X162916890Y-104311476D01*
X163326924Y-104141645D01*
X163755183Y-103751358D01*
X163830000Y-103592046D01*
X163904817Y-103751358D01*
X164333076Y-104141645D01*
X164743110Y-104311476D01*
X164973000Y-104190155D01*
X164973000Y-102997000D01*
X165227000Y-102997000D01*
X165227000Y-104190155D01*
X165456890Y-104311476D01*
X165866924Y-104141645D01*
X166295183Y-103751358D01*
X166370000Y-103592046D01*
X166444817Y-103751358D01*
X166873076Y-104141645D01*
X167283110Y-104311476D01*
X167513000Y-104190155D01*
X167513000Y-102997000D01*
X167767000Y-102997000D01*
X167767000Y-104190155D01*
X167996890Y-104311476D01*
X168406924Y-104141645D01*
X168704864Y-103870122D01*
X168791673Y-104079698D01*
X168970301Y-104258327D01*
X169203690Y-104355000D01*
X169894250Y-104355000D01*
X170053000Y-104196250D01*
X170053000Y-102997000D01*
X170307000Y-102997000D01*
X170307000Y-104196250D01*
X170465750Y-104355000D01*
X171156310Y-104355000D01*
X171389699Y-104258327D01*
X171568327Y-104079698D01*
X171655136Y-103870122D01*
X171953076Y-104141645D01*
X172363110Y-104311476D01*
X172593000Y-104190155D01*
X172593000Y-102997000D01*
X172847000Y-102997000D01*
X172847000Y-104190155D01*
X173076890Y-104311476D01*
X173486924Y-104141645D01*
X173915183Y-103751358D01*
X173990000Y-103592046D01*
X174064817Y-103751358D01*
X174493076Y-104141645D01*
X174903110Y-104311476D01*
X175133000Y-104190155D01*
X175133000Y-102997000D01*
X175387000Y-102997000D01*
X175387000Y-104190155D01*
X175616890Y-104311476D01*
X176026924Y-104141645D01*
X176455183Y-103751358D01*
X176530000Y-103592046D01*
X176604817Y-103751358D01*
X177033076Y-104141645D01*
X177443110Y-104311476D01*
X177673000Y-104190155D01*
X177673000Y-102997000D01*
X177927000Y-102997000D01*
X177927000Y-104190155D01*
X178156890Y-104311476D01*
X178566924Y-104141645D01*
X178995183Y-103751358D01*
X179070000Y-103592046D01*
X179144817Y-103751358D01*
X179573076Y-104141645D01*
X179983110Y-104311476D01*
X180213000Y-104190155D01*
X180213000Y-102997000D01*
X180467000Y-102997000D01*
X180467000Y-104190155D01*
X180696890Y-104311476D01*
X181106924Y-104141645D01*
X181535183Y-103751358D01*
X181610000Y-103592046D01*
X181684817Y-103751358D01*
X182113076Y-104141645D01*
X182523110Y-104311476D01*
X182753000Y-104190155D01*
X182753000Y-102997000D01*
X183007000Y-102997000D01*
X183007000Y-104190155D01*
X183236890Y-104311476D01*
X183646924Y-104141645D01*
X184075183Y-103751358D01*
X184150000Y-103592046D01*
X184224817Y-103751358D01*
X184653076Y-104141645D01*
X185063110Y-104311476D01*
X185293000Y-104190155D01*
X185293000Y-102997000D01*
X185547000Y-102997000D01*
X185547000Y-104190155D01*
X185776890Y-104311476D01*
X186186924Y-104141645D01*
X186615183Y-103751358D01*
X186690000Y-103592046D01*
X186764817Y-103751358D01*
X187193076Y-104141645D01*
X187603110Y-104311476D01*
X187833000Y-104190155D01*
X187833000Y-102997000D01*
X188087000Y-102997000D01*
X188087000Y-104190155D01*
X188316890Y-104311476D01*
X188726924Y-104141645D01*
X189155183Y-103751358D01*
X189401486Y-103226892D01*
X189280819Y-102997000D01*
X188087000Y-102997000D01*
X187833000Y-102997000D01*
X185547000Y-102997000D01*
X185293000Y-102997000D01*
X183007000Y-102997000D01*
X182753000Y-102997000D01*
X180467000Y-102997000D01*
X180213000Y-102997000D01*
X177927000Y-102997000D01*
X177673000Y-102997000D01*
X175387000Y-102997000D01*
X175133000Y-102997000D01*
X172847000Y-102997000D01*
X172593000Y-102997000D01*
X170307000Y-102997000D01*
X170053000Y-102997000D01*
X167767000Y-102997000D01*
X167513000Y-102997000D01*
X165227000Y-102997000D01*
X164973000Y-102997000D01*
X162687000Y-102997000D01*
X162433000Y-102997000D01*
X160147000Y-102997000D01*
X159893000Y-102997000D01*
X157607000Y-102997000D01*
X157353000Y-102997000D01*
X155067000Y-102997000D01*
X154813000Y-102997000D01*
X152527000Y-102997000D01*
X152273000Y-102997000D01*
X149987000Y-102997000D01*
X149733000Y-102997000D01*
X148533750Y-102997000D01*
X148375000Y-103155750D01*
X112470000Y-103155750D01*
X112470000Y-97790000D01*
X112785907Y-97790000D01*
X112898946Y-98358285D01*
X113220853Y-98840054D01*
X113550026Y-99060000D01*
X113220853Y-99279946D01*
X112898946Y-99761715D01*
X112785907Y-100330000D01*
X112898946Y-100898285D01*
X113220853Y-101380054D01*
X113702622Y-101701961D01*
X114270907Y-101815000D01*
X114329093Y-101815000D01*
X114897378Y-101701961D01*
X115379147Y-101380054D01*
X115701054Y-100898285D01*
X115814093Y-100330000D01*
X115701054Y-99761715D01*
X115512819Y-99480000D01*
X148362560Y-99480000D01*
X148362560Y-101180000D01*
X148406838Y-101415317D01*
X148528144Y-101603831D01*
X148471673Y-101660302D01*
X148375000Y-101893691D01*
X148375000Y-102584250D01*
X148533750Y-102743000D01*
X149733000Y-102743000D01*
X149733000Y-102723000D01*
X149987000Y-102723000D01*
X149987000Y-102743000D01*
X152273000Y-102743000D01*
X152273000Y-102723000D01*
X152527000Y-102723000D01*
X152527000Y-102743000D01*
X154813000Y-102743000D01*
X154813000Y-102723000D01*
X155067000Y-102723000D01*
X155067000Y-102743000D01*
X157353000Y-102743000D01*
X157353000Y-102723000D01*
X157607000Y-102723000D01*
X157607000Y-102743000D01*
X159893000Y-102743000D01*
X159893000Y-102723000D01*
X160147000Y-102723000D01*
X160147000Y-102743000D01*
X162433000Y-102743000D01*
X162433000Y-102723000D01*
X162687000Y-102723000D01*
X162687000Y-102743000D01*
X164973000Y-102743000D01*
X164973000Y-102723000D01*
X165227000Y-102723000D01*
X165227000Y-102743000D01*
X167513000Y-102743000D01*
X167513000Y-102723000D01*
X167767000Y-102723000D01*
X167767000Y-102743000D01*
X170053000Y-102743000D01*
X170053000Y-102723000D01*
X170307000Y-102723000D01*
X170307000Y-102743000D01*
X172593000Y-102743000D01*
X172593000Y-102723000D01*
X172847000Y-102723000D01*
X172847000Y-102743000D01*
X175133000Y-102743000D01*
X175133000Y-102723000D01*
X175387000Y-102723000D01*
X175387000Y-102743000D01*
X177673000Y-102743000D01*
X177673000Y-102723000D01*
X177927000Y-102723000D01*
X177927000Y-102743000D01*
X180213000Y-102743000D01*
X180213000Y-102723000D01*
X180467000Y-102723000D01*
X180467000Y-102743000D01*
X182753000Y-102743000D01*
X182753000Y-102723000D01*
X183007000Y-102723000D01*
X183007000Y-102743000D01*
X185293000Y-102743000D01*
X185293000Y-102723000D01*
X185547000Y-102723000D01*
X185547000Y-102743000D01*
X187833000Y-102743000D01*
X187833000Y-102723000D01*
X188087000Y-102723000D01*
X188087000Y-102743000D01*
X189280819Y-102743000D01*
X189401486Y-102513108D01*
X189155183Y-101988642D01*
X188726924Y-101598355D01*
X188726899Y-101598345D01*
X189010054Y-101409147D01*
X189331961Y-100927378D01*
X189445000Y-100359093D01*
X189445000Y-100300907D01*
X189331961Y-99732622D01*
X189010054Y-99250853D01*
X188528285Y-98928946D01*
X187960000Y-98815907D01*
X187391715Y-98928946D01*
X186909946Y-99250853D01*
X186690000Y-99580026D01*
X186470054Y-99250853D01*
X185988285Y-98928946D01*
X185420000Y-98815907D01*
X184851715Y-98928946D01*
X184369946Y-99250853D01*
X184150000Y-99580026D01*
X183930054Y-99250853D01*
X183448285Y-98928946D01*
X182880000Y-98815907D01*
X182311715Y-98928946D01*
X181829946Y-99250853D01*
X181610000Y-99580026D01*
X181390054Y-99250853D01*
X180908285Y-98928946D01*
X180340000Y-98815907D01*
X179771715Y-98928946D01*
X179289946Y-99250853D01*
X179070000Y-99580026D01*
X178850054Y-99250853D01*
X178368285Y-98928946D01*
X177800000Y-98815907D01*
X177231715Y-98928946D01*
X176749946Y-99250853D01*
X176530000Y-99580026D01*
X176310054Y-99250853D01*
X175828285Y-98928946D01*
X175260000Y-98815907D01*
X174691715Y-98928946D01*
X174209946Y-99250853D01*
X173990000Y-99580026D01*
X173770054Y-99250853D01*
X173288285Y-98928946D01*
X172720000Y-98815907D01*
X172151715Y-98928946D01*
X171669946Y-99250853D01*
X171642150Y-99292452D01*
X171633162Y-99244683D01*
X171494090Y-99028559D01*
X171281890Y-98883569D01*
X171030000Y-98832560D01*
X169330000Y-98832560D01*
X169094683Y-98876838D01*
X168878559Y-99015910D01*
X168733569Y-99228110D01*
X168719914Y-99295541D01*
X168690054Y-99250853D01*
X168208285Y-98928946D01*
X167640000Y-98815907D01*
X167071715Y-98928946D01*
X166589946Y-99250853D01*
X166370000Y-99580026D01*
X166150054Y-99250853D01*
X165668285Y-98928946D01*
X165100000Y-98815907D01*
X164531715Y-98928946D01*
X164049946Y-99250853D01*
X163830000Y-99580026D01*
X163610054Y-99250853D01*
X163128285Y-98928946D01*
X162560000Y-98815907D01*
X161991715Y-98928946D01*
X161509946Y-99250853D01*
X161290000Y-99580026D01*
X161070054Y-99250853D01*
X160588285Y-98928946D01*
X160020000Y-98815907D01*
X159451715Y-98928946D01*
X158969946Y-99250853D01*
X158750000Y-99580026D01*
X158530054Y-99250853D01*
X158048285Y-98928946D01*
X157480000Y-98815907D01*
X156911715Y-98928946D01*
X156429946Y-99250853D01*
X156210000Y-99580026D01*
X155990054Y-99250853D01*
X155508285Y-98928946D01*
X154940000Y-98815907D01*
X154371715Y-98928946D01*
X153889946Y-99250853D01*
X153670000Y-99580026D01*
X153450054Y-99250853D01*
X152968285Y-98928946D01*
X152400000Y-98815907D01*
X151831715Y-98928946D01*
X151349946Y-99250853D01*
X151322150Y-99292452D01*
X151313162Y-99244683D01*
X151174090Y-99028559D01*
X150961890Y-98883569D01*
X150710000Y-98832560D01*
X149010000Y-98832560D01*
X148774683Y-98876838D01*
X148558559Y-99015910D01*
X148413569Y-99228110D01*
X148362560Y-99480000D01*
X115512819Y-99480000D01*
X115379147Y-99279946D01*
X115049974Y-99060000D01*
X115379147Y-98840054D01*
X115701054Y-98358285D01*
X115814093Y-97790000D01*
X115701054Y-97221715D01*
X115379147Y-96739946D01*
X115337548Y-96712150D01*
X115385317Y-96703162D01*
X115601441Y-96564090D01*
X115746431Y-96351890D01*
X115797440Y-96100000D01*
X115797440Y-94400000D01*
X115753162Y-94164683D01*
X115634322Y-93980000D01*
X172475907Y-93980000D01*
X172588946Y-94548285D01*
X172910853Y-95030054D01*
X173240026Y-95250000D01*
X172910853Y-95469946D01*
X172588946Y-95951715D01*
X172475907Y-96520000D01*
X172588946Y-97088285D01*
X172910853Y-97570054D01*
X173392622Y-97891961D01*
X173960907Y-98005000D01*
X174019093Y-98005000D01*
X174587378Y-97891961D01*
X175069147Y-97570054D01*
X175258345Y-97286899D01*
X175258355Y-97286924D01*
X175648642Y-97715183D01*
X176173108Y-97961486D01*
X176403000Y-97840819D01*
X176403000Y-96647000D01*
X176657000Y-96647000D01*
X176657000Y-97840819D01*
X176886892Y-97961486D01*
X177411358Y-97715183D01*
X177801645Y-97286924D01*
X177971476Y-96876890D01*
X177850155Y-96647000D01*
X176657000Y-96647000D01*
X176403000Y-96647000D01*
X176383000Y-96647000D01*
X176383000Y-96393000D01*
X176403000Y-96393000D01*
X176403000Y-96373000D01*
X176657000Y-96373000D01*
X176657000Y-96393000D01*
X177850155Y-96393000D01*
X177971476Y-96163110D01*
X177801645Y-95753076D01*
X177411358Y-95324817D01*
X177268447Y-95257702D01*
X177609147Y-95030054D01*
X177931054Y-94548285D01*
X178044093Y-93980000D01*
X177931054Y-93411715D01*
X177609147Y-92929946D01*
X177279974Y-92710000D01*
X177609147Y-92490054D01*
X177931054Y-92008285D01*
X178044093Y-91440000D01*
X177931054Y-90871715D01*
X177609147Y-90389946D01*
X177127378Y-90068039D01*
X176559093Y-89955000D01*
X176500907Y-89955000D01*
X175932622Y-90068039D01*
X175450853Y-90389946D01*
X175450029Y-90391179D01*
X175443162Y-90354683D01*
X175304090Y-90138559D01*
X175091890Y-89993569D01*
X174840000Y-89942560D01*
X173140000Y-89942560D01*
X172904683Y-89986838D01*
X172688559Y-90125910D01*
X172543569Y-90338110D01*
X172492560Y-90590000D01*
X172492560Y-92290000D01*
X172536838Y-92525317D01*
X172675910Y-92741441D01*
X172888110Y-92886431D01*
X172955541Y-92900086D01*
X172910853Y-92929946D01*
X172588946Y-93411715D01*
X172475907Y-93980000D01*
X115634322Y-93980000D01*
X115614090Y-93948559D01*
X115401890Y-93803569D01*
X115150000Y-93752560D01*
X113450000Y-93752560D01*
X113214683Y-93796838D01*
X112998559Y-93935910D01*
X112853569Y-94148110D01*
X112802560Y-94400000D01*
X112802560Y-96100000D01*
X112846838Y-96335317D01*
X112985910Y-96551441D01*
X113198110Y-96696431D01*
X113265541Y-96710086D01*
X113220853Y-96739946D01*
X112898946Y-97221715D01*
X112785907Y-97790000D01*
X112470000Y-97790000D01*
X112470000Y-80925000D01*
X112942560Y-80925000D01*
X112942560Y-82905000D01*
X112986838Y-83140317D01*
X113125910Y-83356441D01*
X113338110Y-83501431D01*
X113590000Y-83552440D01*
X117550000Y-83552440D01*
X117785317Y-83508162D01*
X118001441Y-83369090D01*
X118146431Y-83156890D01*
X118197440Y-82905000D01*
X118197440Y-81565750D01*
X136945000Y-81565750D01*
X136945000Y-82256309D01*
X137041673Y-82489698D01*
X137220301Y-82668327D01*
X137453690Y-82765000D01*
X138144250Y-82765000D01*
X138303000Y-82606250D01*
X138303000Y-81407000D01*
X138557000Y-81407000D01*
X138557000Y-82606250D01*
X138715750Y-82765000D01*
X139406310Y-82765000D01*
X139639699Y-82668327D01*
X139818327Y-82489698D01*
X139905136Y-82280122D01*
X140203076Y-82551645D01*
X140613110Y-82721476D01*
X140843000Y-82600155D01*
X140843000Y-81407000D01*
X141097000Y-81407000D01*
X141097000Y-82600155D01*
X141326890Y-82721476D01*
X141736924Y-82551645D01*
X142165183Y-82161358D01*
X142240000Y-82002046D01*
X142314817Y-82161358D01*
X142743076Y-82551645D01*
X143153110Y-82721476D01*
X143383000Y-82600155D01*
X143383000Y-81407000D01*
X143637000Y-81407000D01*
X143637000Y-82600155D01*
X143866890Y-82721476D01*
X144276924Y-82551645D01*
X144705183Y-82161358D01*
X144780000Y-82002046D01*
X144854817Y-82161358D01*
X145283076Y-82551645D01*
X145693110Y-82721476D01*
X145923000Y-82600155D01*
X145923000Y-81407000D01*
X146177000Y-81407000D01*
X146177000Y-82600155D01*
X146406890Y-82721476D01*
X146816924Y-82551645D01*
X147245183Y-82161358D01*
X147320000Y-82002046D01*
X147394817Y-82161358D01*
X147823076Y-82551645D01*
X148233110Y-82721476D01*
X148463000Y-82600155D01*
X148463000Y-81407000D01*
X148717000Y-81407000D01*
X148717000Y-82600155D01*
X148946890Y-82721476D01*
X149356924Y-82551645D01*
X149785183Y-82161358D01*
X149860000Y-82002046D01*
X149934817Y-82161358D01*
X150363076Y-82551645D01*
X150773110Y-82721476D01*
X151003000Y-82600155D01*
X151003000Y-81407000D01*
X151257000Y-81407000D01*
X151257000Y-82600155D01*
X151486890Y-82721476D01*
X151896924Y-82551645D01*
X152325183Y-82161358D01*
X152571486Y-81636892D01*
X152450819Y-81407000D01*
X151257000Y-81407000D01*
X151003000Y-81407000D01*
X148717000Y-81407000D01*
X148463000Y-81407000D01*
X146177000Y-81407000D01*
X145923000Y-81407000D01*
X143637000Y-81407000D01*
X143383000Y-81407000D01*
X141097000Y-81407000D01*
X140843000Y-81407000D01*
X138557000Y-81407000D01*
X138303000Y-81407000D01*
X137103750Y-81407000D01*
X136945000Y-81565750D01*
X118197440Y-81565750D01*
X118197440Y-80925000D01*
X118153162Y-80689683D01*
X118014090Y-80473559D01*
X117801890Y-80328569D01*
X117679039Y-80303691D01*
X136945000Y-80303691D01*
X136945000Y-80994250D01*
X137103750Y-81153000D01*
X138303000Y-81153000D01*
X138303000Y-79953750D01*
X138557000Y-79953750D01*
X138557000Y-81153000D01*
X140843000Y-81153000D01*
X140843000Y-79959845D01*
X141097000Y-79959845D01*
X141097000Y-81153000D01*
X143383000Y-81153000D01*
X143383000Y-79959845D01*
X143637000Y-79959845D01*
X143637000Y-81153000D01*
X145923000Y-81153000D01*
X145923000Y-79959845D01*
X146177000Y-79959845D01*
X146177000Y-81153000D01*
X148463000Y-81153000D01*
X148463000Y-79959845D01*
X148717000Y-79959845D01*
X148717000Y-81153000D01*
X151003000Y-81153000D01*
X151003000Y-79959845D01*
X151257000Y-79959845D01*
X151257000Y-81153000D01*
X152450819Y-81153000D01*
X152571486Y-80923108D01*
X152325183Y-80398642D01*
X151896924Y-80008355D01*
X151486890Y-79838524D01*
X151257000Y-79959845D01*
X151003000Y-79959845D01*
X150773110Y-79838524D01*
X150363076Y-80008355D01*
X149934817Y-80398642D01*
X149860000Y-80557954D01*
X149785183Y-80398642D01*
X149356924Y-80008355D01*
X148946890Y-79838524D01*
X148717000Y-79959845D01*
X148463000Y-79959845D01*
X148233110Y-79838524D01*
X147823076Y-80008355D01*
X147394817Y-80398642D01*
X147320000Y-80557954D01*
X147245183Y-80398642D01*
X146816924Y-80008355D01*
X146406890Y-79838524D01*
X146177000Y-79959845D01*
X145923000Y-79959845D01*
X145693110Y-79838524D01*
X145283076Y-80008355D01*
X144854817Y-80398642D01*
X144780000Y-80557954D01*
X144705183Y-80398642D01*
X144276924Y-80008355D01*
X143866890Y-79838524D01*
X143637000Y-79959845D01*
X143383000Y-79959845D01*
X143153110Y-79838524D01*
X142743076Y-80008355D01*
X142314817Y-80398642D01*
X142240000Y-80557954D01*
X142165183Y-80398642D01*
X141736924Y-80008355D01*
X141326890Y-79838524D01*
X141097000Y-79959845D01*
X140843000Y-79959845D01*
X140613110Y-79838524D01*
X140203076Y-80008355D01*
X139905136Y-80279878D01*
X139818327Y-80070302D01*
X139639699Y-79891673D01*
X139406310Y-79795000D01*
X138715750Y-79795000D01*
X138557000Y-79953750D01*
X138303000Y-79953750D01*
X138144250Y-79795000D01*
X137453690Y-79795000D01*
X137220301Y-79891673D01*
X137041673Y-80070302D01*
X136945000Y-80303691D01*
X117679039Y-80303691D01*
X117550000Y-80277560D01*
X113590000Y-80277560D01*
X113354683Y-80321838D01*
X113138559Y-80460910D01*
X112993569Y-80673110D01*
X112942560Y-80925000D01*
X112470000Y-80925000D01*
X112470000Y-79160000D01*
X187097560Y-79160000D01*
X187097560Y-80860000D01*
X187141838Y-81095317D01*
X187280910Y-81311441D01*
X187493110Y-81456431D01*
X187745000Y-81507440D01*
X189445000Y-81507440D01*
X189680317Y-81463162D01*
X189896441Y-81324090D01*
X190041431Y-81111890D01*
X190055086Y-81044459D01*
X190084946Y-81089147D01*
X190566715Y-81411054D01*
X191135000Y-81524093D01*
X191703285Y-81411054D01*
X192185054Y-81089147D01*
X192405000Y-80759974D01*
X192624946Y-81089147D01*
X193106715Y-81411054D01*
X193675000Y-81524093D01*
X194243285Y-81411054D01*
X194725054Y-81089147D01*
X194945000Y-80759974D01*
X195164946Y-81089147D01*
X195646715Y-81411054D01*
X196215000Y-81524093D01*
X196783285Y-81411054D01*
X197265054Y-81089147D01*
X197586961Y-80607378D01*
X197700000Y-80039093D01*
X197700000Y-79980907D01*
X197586961Y-79412622D01*
X197265054Y-78930853D01*
X196981899Y-78741655D01*
X196981924Y-78741645D01*
X197410183Y-78351358D01*
X197656486Y-77826892D01*
X197535819Y-77597000D01*
X196342000Y-77597000D01*
X196342000Y-77617000D01*
X196088000Y-77617000D01*
X196088000Y-77597000D01*
X193802000Y-77597000D01*
X193802000Y-77617000D01*
X193548000Y-77617000D01*
X193548000Y-77597000D01*
X191262000Y-77597000D01*
X191262000Y-77617000D01*
X191008000Y-77617000D01*
X191008000Y-77597000D01*
X188722000Y-77597000D01*
X188722000Y-77617000D01*
X188468000Y-77617000D01*
X188468000Y-77597000D01*
X187268750Y-77597000D01*
X187110000Y-77755750D01*
X187110000Y-78446309D01*
X187206673Y-78679698D01*
X187264871Y-78737896D01*
X187148569Y-78908110D01*
X187097560Y-79160000D01*
X112470000Y-79160000D01*
X112470000Y-75350000D01*
X136932560Y-75350000D01*
X136932560Y-77050000D01*
X136976838Y-77285317D01*
X137115910Y-77501441D01*
X137328110Y-77646431D01*
X137580000Y-77697440D01*
X139280000Y-77697440D01*
X139515317Y-77653162D01*
X139731441Y-77514090D01*
X139876431Y-77301890D01*
X139890086Y-77234459D01*
X139919946Y-77279147D01*
X140401715Y-77601054D01*
X140970000Y-77714093D01*
X141538285Y-77601054D01*
X142020054Y-77279147D01*
X142240000Y-76949974D01*
X142459946Y-77279147D01*
X142941715Y-77601054D01*
X143510000Y-77714093D01*
X144078285Y-77601054D01*
X144560054Y-77279147D01*
X144780000Y-76949974D01*
X144999946Y-77279147D01*
X145481715Y-77601054D01*
X146050000Y-77714093D01*
X146618285Y-77601054D01*
X147100054Y-77279147D01*
X147320000Y-76949974D01*
X147539946Y-77279147D01*
X148021715Y-77601054D01*
X148590000Y-77714093D01*
X149158285Y-77601054D01*
X149640054Y-77279147D01*
X149860000Y-76949974D01*
X150079946Y-77279147D01*
X150561715Y-77601054D01*
X151130000Y-77714093D01*
X151698285Y-77601054D01*
X152180054Y-77279147D01*
X152501961Y-76797378D01*
X152615000Y-76229093D01*
X152615000Y-76170907D01*
X152501961Y-75602622D01*
X152180054Y-75120853D01*
X151850881Y-74900907D01*
X187110000Y-74900907D01*
X187110000Y-74959093D01*
X187223039Y-75527378D01*
X187544946Y-76009147D01*
X187550858Y-76013097D01*
X187385301Y-76081673D01*
X187206673Y-76260302D01*
X187110000Y-76493691D01*
X187110000Y-77184250D01*
X187268750Y-77343000D01*
X188468000Y-77343000D01*
X188468000Y-77323000D01*
X188722000Y-77323000D01*
X188722000Y-77343000D01*
X191008000Y-77343000D01*
X191008000Y-77323000D01*
X191262000Y-77323000D01*
X191262000Y-77343000D01*
X193548000Y-77343000D01*
X193548000Y-77323000D01*
X193802000Y-77323000D01*
X193802000Y-77343000D01*
X196088000Y-77343000D01*
X196088000Y-77323000D01*
X196342000Y-77323000D01*
X196342000Y-77343000D01*
X197535819Y-77343000D01*
X197656486Y-77113108D01*
X197410183Y-76588642D01*
X197204496Y-76401192D01*
X197300317Y-76383162D01*
X197516441Y-76244090D01*
X197661431Y-76031890D01*
X197712440Y-75780000D01*
X197712440Y-74080000D01*
X197668162Y-73844683D01*
X197549322Y-73660000D01*
X202955907Y-73660000D01*
X203068946Y-74228285D01*
X203390853Y-74710054D01*
X203720026Y-74930000D01*
X203390853Y-75149946D01*
X203068946Y-75631715D01*
X202955907Y-76200000D01*
X203068946Y-76768285D01*
X203390853Y-77250054D01*
X203720026Y-77470000D01*
X203390853Y-77689946D01*
X203068946Y-78171715D01*
X202955907Y-78740000D01*
X203068946Y-79308285D01*
X203390853Y-79790054D01*
X203720026Y-80010000D01*
X203390853Y-80229946D01*
X203068946Y-80711715D01*
X202955907Y-81280000D01*
X203068946Y-81848285D01*
X203390853Y-82330054D01*
X203720026Y-82550000D01*
X203390853Y-82769946D01*
X203068946Y-83251715D01*
X202955907Y-83820000D01*
X203068946Y-84388285D01*
X203390853Y-84870054D01*
X203720026Y-85090000D01*
X203390853Y-85309946D01*
X203068946Y-85791715D01*
X202955907Y-86360000D01*
X203068946Y-86928285D01*
X203390853Y-87410054D01*
X203720026Y-87630000D01*
X203390853Y-87849946D01*
X203068946Y-88331715D01*
X202955907Y-88900000D01*
X203068946Y-89468285D01*
X203390853Y-89950054D01*
X203720026Y-90170000D01*
X203390853Y-90389946D01*
X203068946Y-90871715D01*
X202955907Y-91440000D01*
X203068946Y-92008285D01*
X203390853Y-92490054D01*
X203720026Y-92710000D01*
X203390853Y-92929946D01*
X203068946Y-93411715D01*
X202955907Y-93980000D01*
X203068946Y-94548285D01*
X203390853Y-95030054D01*
X203720026Y-95250000D01*
X203390853Y-95469946D01*
X203068946Y-95951715D01*
X202955907Y-96520000D01*
X203068946Y-97088285D01*
X203390853Y-97570054D01*
X203720026Y-97790000D01*
X203390853Y-98009946D01*
X203068946Y-98491715D01*
X202955907Y-99060000D01*
X203068946Y-99628285D01*
X203390853Y-100110054D01*
X203720026Y-100330000D01*
X203390853Y-100549946D01*
X203068946Y-101031715D01*
X202955907Y-101600000D01*
X203068946Y-102168285D01*
X203390853Y-102650054D01*
X203720026Y-102870000D01*
X203390853Y-103089946D01*
X203068946Y-103571715D01*
X202955907Y-104140000D01*
X203068946Y-104708285D01*
X203390853Y-105190054D01*
X203720026Y-105410000D01*
X203390853Y-105629946D01*
X203068946Y-106111715D01*
X202955907Y-106680000D01*
X203068946Y-107248285D01*
X203390853Y-107730054D01*
X203720026Y-107950000D01*
X203390853Y-108169946D01*
X203068946Y-108651715D01*
X202955907Y-109220000D01*
X203068946Y-109788285D01*
X203390853Y-110270054D01*
X203720026Y-110490000D01*
X203390853Y-110709946D01*
X203068946Y-111191715D01*
X202955907Y-111760000D01*
X203068946Y-112328285D01*
X203390853Y-112810054D01*
X203720026Y-113030000D01*
X203390853Y-113249946D01*
X203068946Y-113731715D01*
X202955907Y-114300000D01*
X203068946Y-114868285D01*
X203390853Y-115350054D01*
X203872622Y-115671961D01*
X204440907Y-115785000D01*
X204499093Y-115785000D01*
X205067378Y-115671961D01*
X205549147Y-115350054D01*
X205738345Y-115066899D01*
X205738355Y-115066924D01*
X206128642Y-115495183D01*
X206653108Y-115741486D01*
X206883000Y-115620819D01*
X206883000Y-114427000D01*
X207137000Y-114427000D01*
X207137000Y-115620819D01*
X207366892Y-115741486D01*
X207891358Y-115495183D01*
X208281645Y-115066924D01*
X208451476Y-114656890D01*
X208330155Y-114427000D01*
X207137000Y-114427000D01*
X206883000Y-114427000D01*
X206863000Y-114427000D01*
X206863000Y-114173000D01*
X206883000Y-114173000D01*
X206883000Y-114153000D01*
X207137000Y-114153000D01*
X207137000Y-114173000D01*
X208330155Y-114173000D01*
X208451476Y-113943110D01*
X208281645Y-113533076D01*
X207891358Y-113104817D01*
X207748447Y-113037702D01*
X208089147Y-112810054D01*
X208411054Y-112328285D01*
X208524093Y-111760000D01*
X208411054Y-111191715D01*
X208089147Y-110709946D01*
X207759974Y-110490000D01*
X208089147Y-110270054D01*
X208411054Y-109788285D01*
X208524093Y-109220000D01*
X208411054Y-108651715D01*
X208089147Y-108169946D01*
X207759974Y-107950000D01*
X208089147Y-107730054D01*
X208411054Y-107248285D01*
X208524093Y-106680000D01*
X208411054Y-106111715D01*
X208089147Y-105629946D01*
X207759974Y-105410000D01*
X208089147Y-105190054D01*
X208411054Y-104708285D01*
X208524093Y-104140000D01*
X208471382Y-103875000D01*
X211177560Y-103875000D01*
X211177560Y-105675000D01*
X211221838Y-105910317D01*
X211360910Y-106126441D01*
X211573110Y-106271431D01*
X211825000Y-106322440D01*
X213625000Y-106322440D01*
X213860317Y-106278162D01*
X214076441Y-106139090D01*
X214221431Y-105926890D01*
X214272440Y-105675000D01*
X214272440Y-103875000D01*
X214228162Y-103639683D01*
X214089090Y-103423559D01*
X213876890Y-103278569D01*
X213860656Y-103275281D01*
X214143155Y-102852491D01*
X214260000Y-102265072D01*
X214260000Y-102204928D01*
X214143155Y-101617509D01*
X213810409Y-101119519D01*
X213572418Y-100960499D01*
X213962966Y-100602576D01*
X214216046Y-100059742D01*
X214168336Y-99965258D01*
X218853954Y-99965258D01*
X218974003Y-100203000D01*
X220218000Y-100203000D01*
X220218000Y-98959622D01*
X220472000Y-98959622D01*
X220472000Y-100203000D01*
X221715997Y-100203000D01*
X221836046Y-99965258D01*
X221582966Y-99422424D01*
X221141417Y-99017760D01*
X220709740Y-98838964D01*
X220472000Y-98959622D01*
X220218000Y-98959622D01*
X219980260Y-98838964D01*
X219548583Y-99017760D01*
X219107034Y-99422424D01*
X218853954Y-99965258D01*
X214168336Y-99965258D01*
X214095997Y-99822000D01*
X212852000Y-99822000D01*
X212852000Y-99842000D01*
X212598000Y-99842000D01*
X212598000Y-99822000D01*
X211354003Y-99822000D01*
X211233954Y-100059742D01*
X211487034Y-100602576D01*
X211877582Y-100960499D01*
X211639591Y-101119519D01*
X211306845Y-101617509D01*
X211190000Y-102204928D01*
X211190000Y-102265072D01*
X211306845Y-102852491D01*
X211587837Y-103273026D01*
X211373559Y-103410910D01*
X211228569Y-103623110D01*
X211177560Y-103875000D01*
X208471382Y-103875000D01*
X208411054Y-103571715D01*
X208089147Y-103089946D01*
X207759974Y-102870000D01*
X208089147Y-102650054D01*
X208411054Y-102168285D01*
X208524093Y-101600000D01*
X208411054Y-101031715D01*
X208089147Y-100549946D01*
X207759974Y-100330000D01*
X208089147Y-100110054D01*
X208411054Y-99628285D01*
X208470335Y-99330258D01*
X211233954Y-99330258D01*
X211354003Y-99568000D01*
X212598000Y-99568000D01*
X212598000Y-98324622D01*
X212852000Y-98324622D01*
X212852000Y-99568000D01*
X214095997Y-99568000D01*
X214216046Y-99330258D01*
X213962966Y-98787424D01*
X213521417Y-98382760D01*
X213089740Y-98203964D01*
X212852000Y-98324622D01*
X212598000Y-98324622D01*
X212360260Y-98203964D01*
X211928583Y-98382760D01*
X211487034Y-98787424D01*
X211233954Y-99330258D01*
X208470335Y-99330258D01*
X208524093Y-99060000D01*
X208411054Y-98491715D01*
X208089147Y-98009946D01*
X207759974Y-97790000D01*
X208089147Y-97570054D01*
X208411054Y-97088285D01*
X208524093Y-96520000D01*
X208411054Y-95951715D01*
X208089147Y-95469946D01*
X207759974Y-95250000D01*
X208089147Y-95030054D01*
X208411054Y-94548285D01*
X208524093Y-93980000D01*
X208471382Y-93715000D01*
X218797560Y-93715000D01*
X218797560Y-95515000D01*
X218841838Y-95750317D01*
X218980910Y-95966441D01*
X219193110Y-96111431D01*
X219445000Y-96162440D01*
X221245000Y-96162440D01*
X221480317Y-96118162D01*
X221696441Y-95979090D01*
X221841431Y-95766890D01*
X221892440Y-95515000D01*
X221892440Y-93715000D01*
X221848162Y-93479683D01*
X221709090Y-93263559D01*
X221496890Y-93118569D01*
X221480656Y-93115281D01*
X221763155Y-92692491D01*
X221880000Y-92105072D01*
X221880000Y-92044928D01*
X221763155Y-91457509D01*
X221430409Y-90959519D01*
X221192418Y-90800499D01*
X221582966Y-90442576D01*
X221836046Y-89899742D01*
X221715997Y-89662000D01*
X220472000Y-89662000D01*
X220472000Y-89682000D01*
X220218000Y-89682000D01*
X220218000Y-89662000D01*
X218974003Y-89662000D01*
X218853954Y-89899742D01*
X219107034Y-90442576D01*
X219497582Y-90800499D01*
X219259591Y-90959519D01*
X218926845Y-91457509D01*
X218810000Y-92044928D01*
X218810000Y-92105072D01*
X218926845Y-92692491D01*
X219207837Y-93113026D01*
X218993559Y-93250910D01*
X218848569Y-93463110D01*
X218797560Y-93715000D01*
X208471382Y-93715000D01*
X208411054Y-93411715D01*
X208089147Y-92929946D01*
X207748447Y-92702298D01*
X207891358Y-92635183D01*
X208281645Y-92206924D01*
X208451476Y-91796890D01*
X208330155Y-91567000D01*
X207137000Y-91567000D01*
X207137000Y-91587000D01*
X206883000Y-91587000D01*
X206883000Y-91567000D01*
X206863000Y-91567000D01*
X206863000Y-91313000D01*
X206883000Y-91313000D01*
X206883000Y-91293000D01*
X207137000Y-91293000D01*
X207137000Y-91313000D01*
X208330155Y-91313000D01*
X208451476Y-91083110D01*
X208281645Y-90673076D01*
X207891358Y-90244817D01*
X207748447Y-90177702D01*
X208089147Y-89950054D01*
X208411054Y-89468285D01*
X208470335Y-89170258D01*
X218853954Y-89170258D01*
X218974003Y-89408000D01*
X220218000Y-89408000D01*
X220218000Y-88164622D01*
X220472000Y-88164622D01*
X220472000Y-89408000D01*
X221715997Y-89408000D01*
X221836046Y-89170258D01*
X221582966Y-88627424D01*
X221141417Y-88222760D01*
X220709740Y-88043964D01*
X220472000Y-88164622D01*
X220218000Y-88164622D01*
X219980260Y-88043964D01*
X219548583Y-88222760D01*
X219107034Y-88627424D01*
X218853954Y-89170258D01*
X208470335Y-89170258D01*
X208524093Y-88900000D01*
X208411054Y-88331715D01*
X208089147Y-87849946D01*
X207759974Y-87630000D01*
X208089147Y-87410054D01*
X208411054Y-86928285D01*
X208524093Y-86360000D01*
X208411054Y-85791715D01*
X208089147Y-85309946D01*
X207759974Y-85090000D01*
X208089147Y-84870054D01*
X208411054Y-84388285D01*
X208524093Y-83820000D01*
X208411054Y-83251715D01*
X208189410Y-82920000D01*
X218797560Y-82920000D01*
X218797560Y-84720000D01*
X218841838Y-84955317D01*
X218980910Y-85171441D01*
X219193110Y-85316431D01*
X219445000Y-85367440D01*
X221245000Y-85367440D01*
X221480317Y-85323162D01*
X221696441Y-85184090D01*
X221841431Y-84971890D01*
X221892440Y-84720000D01*
X221892440Y-82920000D01*
X221848162Y-82684683D01*
X221709090Y-82468559D01*
X221496890Y-82323569D01*
X221480656Y-82320281D01*
X221763155Y-81897491D01*
X221880000Y-81310072D01*
X221880000Y-81249928D01*
X221763155Y-80662509D01*
X221430409Y-80164519D01*
X221192418Y-80005499D01*
X221582966Y-79647576D01*
X221836046Y-79104742D01*
X221715997Y-78867000D01*
X220472000Y-78867000D01*
X220472000Y-78887000D01*
X220218000Y-78887000D01*
X220218000Y-78867000D01*
X218974003Y-78867000D01*
X218853954Y-79104742D01*
X219107034Y-79647576D01*
X219497582Y-80005499D01*
X219259591Y-80164519D01*
X218926845Y-80662509D01*
X218810000Y-81249928D01*
X218810000Y-81310072D01*
X218926845Y-81897491D01*
X219207837Y-82318026D01*
X218993559Y-82455910D01*
X218848569Y-82668110D01*
X218797560Y-82920000D01*
X208189410Y-82920000D01*
X208089147Y-82769946D01*
X207759974Y-82550000D01*
X208089147Y-82330054D01*
X208411054Y-81848285D01*
X208524093Y-81280000D01*
X208411054Y-80711715D01*
X208089147Y-80229946D01*
X207759974Y-80010000D01*
X208089147Y-79790054D01*
X208411054Y-79308285D01*
X208524093Y-78740000D01*
X208451542Y-78375258D01*
X218853954Y-78375258D01*
X218974003Y-78613000D01*
X220218000Y-78613000D01*
X220218000Y-77369622D01*
X220472000Y-77369622D01*
X220472000Y-78613000D01*
X221715997Y-78613000D01*
X221836046Y-78375258D01*
X221582966Y-77832424D01*
X221141417Y-77427760D01*
X220709740Y-77248964D01*
X220472000Y-77369622D01*
X220218000Y-77369622D01*
X219980260Y-77248964D01*
X219548583Y-77427760D01*
X219107034Y-77832424D01*
X218853954Y-78375258D01*
X208451542Y-78375258D01*
X208411054Y-78171715D01*
X208089147Y-77689946D01*
X207759974Y-77470000D01*
X208089147Y-77250054D01*
X208411054Y-76768285D01*
X208524093Y-76200000D01*
X208411054Y-75631715D01*
X208089147Y-75149946D01*
X207759974Y-74930000D01*
X208089147Y-74710054D01*
X208411054Y-74228285D01*
X208524093Y-73660000D01*
X208411054Y-73091715D01*
X208089147Y-72609946D01*
X207759974Y-72390000D01*
X208089147Y-72170054D01*
X208411054Y-71688285D01*
X208450495Y-71490000D01*
X218797560Y-71490000D01*
X218797560Y-73290000D01*
X218841838Y-73525317D01*
X218980910Y-73741441D01*
X219193110Y-73886431D01*
X219445000Y-73937440D01*
X221245000Y-73937440D01*
X221480317Y-73893162D01*
X221696441Y-73754090D01*
X221841431Y-73541890D01*
X221892440Y-73290000D01*
X221892440Y-71490000D01*
X221848162Y-71254683D01*
X221709090Y-71038559D01*
X221496890Y-70893569D01*
X221480656Y-70890281D01*
X221763155Y-70467491D01*
X221880000Y-69880072D01*
X221880000Y-69819928D01*
X221763155Y-69232509D01*
X221430409Y-68734519D01*
X221192418Y-68575499D01*
X221582966Y-68217576D01*
X221836046Y-67674742D01*
X221715997Y-67437000D01*
X220472000Y-67437000D01*
X220472000Y-67457000D01*
X220218000Y-67457000D01*
X220218000Y-67437000D01*
X218974003Y-67437000D01*
X218853954Y-67674742D01*
X219107034Y-68217576D01*
X219497582Y-68575499D01*
X219259591Y-68734519D01*
X218926845Y-69232509D01*
X218810000Y-69819928D01*
X218810000Y-69880072D01*
X218926845Y-70467491D01*
X219207837Y-70888026D01*
X218993559Y-71025910D01*
X218848569Y-71238110D01*
X218797560Y-71490000D01*
X208450495Y-71490000D01*
X208524093Y-71120000D01*
X208411054Y-70551715D01*
X208089147Y-70069946D01*
X207607378Y-69748039D01*
X207039093Y-69635000D01*
X206980907Y-69635000D01*
X206412622Y-69748039D01*
X205930853Y-70069946D01*
X205930029Y-70071179D01*
X205923162Y-70034683D01*
X205784090Y-69818559D01*
X205571890Y-69673569D01*
X205320000Y-69622560D01*
X203620000Y-69622560D01*
X203384683Y-69666838D01*
X203168559Y-69805910D01*
X203023569Y-70018110D01*
X202972560Y-70270000D01*
X202972560Y-71970000D01*
X203016838Y-72205317D01*
X203155910Y-72421441D01*
X203368110Y-72566431D01*
X203435541Y-72580086D01*
X203390853Y-72609946D01*
X203068946Y-73091715D01*
X202955907Y-73660000D01*
X197549322Y-73660000D01*
X197529090Y-73628559D01*
X197316890Y-73483569D01*
X197065000Y-73432560D01*
X195365000Y-73432560D01*
X195129683Y-73476838D01*
X194913559Y-73615910D01*
X194768569Y-73828110D01*
X194754914Y-73895541D01*
X194725054Y-73850853D01*
X194243285Y-73528946D01*
X193675000Y-73415907D01*
X193106715Y-73528946D01*
X192624946Y-73850853D01*
X192405000Y-74180026D01*
X192185054Y-73850853D01*
X191703285Y-73528946D01*
X191135000Y-73415907D01*
X190566715Y-73528946D01*
X190084946Y-73850853D01*
X189865000Y-74180026D01*
X189645054Y-73850853D01*
X189163285Y-73528946D01*
X188595000Y-73415907D01*
X188026715Y-73528946D01*
X187544946Y-73850853D01*
X187223039Y-74332622D01*
X187110000Y-74900907D01*
X151850881Y-74900907D01*
X151698285Y-74798946D01*
X151130000Y-74685907D01*
X150561715Y-74798946D01*
X150079946Y-75120853D01*
X149860000Y-75450026D01*
X149640054Y-75120853D01*
X149158285Y-74798946D01*
X148590000Y-74685907D01*
X148021715Y-74798946D01*
X147539946Y-75120853D01*
X147320000Y-75450026D01*
X147100054Y-75120853D01*
X146618285Y-74798946D01*
X146050000Y-74685907D01*
X145481715Y-74798946D01*
X144999946Y-75120853D01*
X144780000Y-75450026D01*
X144560054Y-75120853D01*
X144078285Y-74798946D01*
X143510000Y-74685907D01*
X142941715Y-74798946D01*
X142459946Y-75120853D01*
X142240000Y-75450026D01*
X142020054Y-75120853D01*
X141538285Y-74798946D01*
X140970000Y-74685907D01*
X140401715Y-74798946D01*
X139919946Y-75120853D01*
X139892150Y-75162452D01*
X139883162Y-75114683D01*
X139744090Y-74898559D01*
X139531890Y-74753569D01*
X139280000Y-74702560D01*
X137580000Y-74702560D01*
X137344683Y-74746838D01*
X137128559Y-74885910D01*
X136983569Y-75098110D01*
X136932560Y-75350000D01*
X112470000Y-75350000D01*
X112470000Y-71090907D01*
X127674000Y-71090907D01*
X127674000Y-71149093D01*
X127787039Y-71717378D01*
X128108946Y-72199147D01*
X128590715Y-72521054D01*
X129159000Y-72634093D01*
X129727285Y-72521054D01*
X130209054Y-72199147D01*
X130429000Y-71869974D01*
X130648946Y-72199147D01*
X131130715Y-72521054D01*
X131699000Y-72634093D01*
X132267285Y-72521054D01*
X132749054Y-72199147D01*
X132969000Y-71869974D01*
X133188946Y-72199147D01*
X133670715Y-72521054D01*
X134239000Y-72634093D01*
X134807285Y-72521054D01*
X135289054Y-72199147D01*
X135516702Y-71858447D01*
X135583817Y-72001358D01*
X136012076Y-72391645D01*
X136422110Y-72561476D01*
X136652000Y-72440155D01*
X136652000Y-71247000D01*
X136632000Y-71247000D01*
X136632000Y-70993000D01*
X136652000Y-70993000D01*
X136652000Y-69799845D01*
X136906000Y-69799845D01*
X136906000Y-70993000D01*
X136926000Y-70993000D01*
X136926000Y-71247000D01*
X136906000Y-71247000D01*
X136906000Y-72440155D01*
X137135890Y-72561476D01*
X137545924Y-72391645D01*
X137974183Y-72001358D01*
X138041298Y-71858447D01*
X138268946Y-72199147D01*
X138750715Y-72521054D01*
X139319000Y-72634093D01*
X139887285Y-72521054D01*
X140369054Y-72199147D01*
X140589000Y-71869974D01*
X140808946Y-72199147D01*
X141290715Y-72521054D01*
X141859000Y-72634093D01*
X142427285Y-72521054D01*
X142909054Y-72199147D01*
X143129000Y-71869974D01*
X143348946Y-72199147D01*
X143830715Y-72521054D01*
X144399000Y-72634093D01*
X144967285Y-72521054D01*
X145449054Y-72199147D01*
X145669000Y-71869974D01*
X145888946Y-72199147D01*
X146370715Y-72521054D01*
X146939000Y-72634093D01*
X147507285Y-72521054D01*
X147989054Y-72199147D01*
X148209000Y-71869974D01*
X148428946Y-72199147D01*
X148910715Y-72521054D01*
X149479000Y-72634093D01*
X150047285Y-72521054D01*
X150529054Y-72199147D01*
X150556850Y-72157548D01*
X150565838Y-72205317D01*
X150704910Y-72421441D01*
X150917110Y-72566431D01*
X151169000Y-72617440D01*
X152869000Y-72617440D01*
X153104317Y-72573162D01*
X153320441Y-72434090D01*
X153465431Y-72221890D01*
X153516440Y-71970000D01*
X153516440Y-71090907D01*
X154598000Y-71090907D01*
X154598000Y-71149093D01*
X154711039Y-71717378D01*
X155032946Y-72199147D01*
X155514715Y-72521054D01*
X156083000Y-72634093D01*
X156651285Y-72521054D01*
X157133054Y-72199147D01*
X157353000Y-71869974D01*
X157572946Y-72199147D01*
X158054715Y-72521054D01*
X158623000Y-72634093D01*
X159191285Y-72521054D01*
X159673054Y-72199147D01*
X159893000Y-71869974D01*
X160112946Y-72199147D01*
X160594715Y-72521054D01*
X161163000Y-72634093D01*
X161731285Y-72521054D01*
X162213054Y-72199147D01*
X162433000Y-71869974D01*
X162652946Y-72199147D01*
X163134715Y-72521054D01*
X163703000Y-72634093D01*
X164271285Y-72521054D01*
X164753054Y-72199147D01*
X164973000Y-71869974D01*
X165192946Y-72199147D01*
X165674715Y-72521054D01*
X166243000Y-72634093D01*
X166811285Y-72521054D01*
X167293054Y-72199147D01*
X167513000Y-71869974D01*
X167732946Y-72199147D01*
X168214715Y-72521054D01*
X168783000Y-72634093D01*
X169351285Y-72521054D01*
X169833054Y-72199147D01*
X170053000Y-71869974D01*
X170272946Y-72199147D01*
X170754715Y-72521054D01*
X171323000Y-72634093D01*
X171891285Y-72521054D01*
X172373054Y-72199147D01*
X172400850Y-72157548D01*
X172409838Y-72205317D01*
X172548910Y-72421441D01*
X172761110Y-72566431D01*
X173013000Y-72617440D01*
X174713000Y-72617440D01*
X174948317Y-72573162D01*
X175164441Y-72434090D01*
X175309431Y-72221890D01*
X175360440Y-71970000D01*
X175360440Y-71090907D01*
X177458000Y-71090907D01*
X177458000Y-71149093D01*
X177571039Y-71717378D01*
X177892946Y-72199147D01*
X178374715Y-72521054D01*
X178943000Y-72634093D01*
X179511285Y-72521054D01*
X179993054Y-72199147D01*
X180213000Y-71869974D01*
X180432946Y-72199147D01*
X180914715Y-72521054D01*
X181483000Y-72634093D01*
X182051285Y-72521054D01*
X182533054Y-72199147D01*
X182753000Y-71869974D01*
X182972946Y-72199147D01*
X183454715Y-72521054D01*
X184023000Y-72634093D01*
X184591285Y-72521054D01*
X185073054Y-72199147D01*
X185293000Y-71869974D01*
X185512946Y-72199147D01*
X185994715Y-72521054D01*
X186563000Y-72634093D01*
X187131285Y-72521054D01*
X187613054Y-72199147D01*
X187833000Y-71869974D01*
X188052946Y-72199147D01*
X188534715Y-72521054D01*
X189103000Y-72634093D01*
X189671285Y-72521054D01*
X190153054Y-72199147D01*
X190373000Y-71869974D01*
X190592946Y-72199147D01*
X191074715Y-72521054D01*
X191643000Y-72634093D01*
X192211285Y-72521054D01*
X192693054Y-72199147D01*
X192913000Y-71869974D01*
X193132946Y-72199147D01*
X193614715Y-72521054D01*
X194183000Y-72634093D01*
X194751285Y-72521054D01*
X195233054Y-72199147D01*
X195260850Y-72157548D01*
X195269838Y-72205317D01*
X195408910Y-72421441D01*
X195621110Y-72566431D01*
X195873000Y-72617440D01*
X197573000Y-72617440D01*
X197808317Y-72573162D01*
X198024441Y-72434090D01*
X198169431Y-72221890D01*
X198220440Y-71970000D01*
X198220440Y-70270000D01*
X198176162Y-70034683D01*
X198037090Y-69818559D01*
X197824890Y-69673569D01*
X197573000Y-69622560D01*
X195873000Y-69622560D01*
X195637683Y-69666838D01*
X195421559Y-69805910D01*
X195276569Y-70018110D01*
X195262914Y-70085541D01*
X195233054Y-70040853D01*
X194751285Y-69718946D01*
X194183000Y-69605907D01*
X193614715Y-69718946D01*
X193132946Y-70040853D01*
X192913000Y-70370026D01*
X192693054Y-70040853D01*
X192211285Y-69718946D01*
X191643000Y-69605907D01*
X191074715Y-69718946D01*
X190592946Y-70040853D01*
X190373000Y-70370026D01*
X190153054Y-70040853D01*
X189671285Y-69718946D01*
X189103000Y-69605907D01*
X188534715Y-69718946D01*
X188052946Y-70040853D01*
X187833000Y-70370026D01*
X187613054Y-70040853D01*
X187131285Y-69718946D01*
X186563000Y-69605907D01*
X185994715Y-69718946D01*
X185512946Y-70040853D01*
X185293000Y-70370026D01*
X185073054Y-70040853D01*
X184591285Y-69718946D01*
X184023000Y-69605907D01*
X183454715Y-69718946D01*
X182972946Y-70040853D01*
X182753000Y-70370026D01*
X182533054Y-70040853D01*
X182051285Y-69718946D01*
X181483000Y-69605907D01*
X180914715Y-69718946D01*
X180432946Y-70040853D01*
X180213000Y-70370026D01*
X179993054Y-70040853D01*
X179511285Y-69718946D01*
X178943000Y-69605907D01*
X178374715Y-69718946D01*
X177892946Y-70040853D01*
X177571039Y-70522622D01*
X177458000Y-71090907D01*
X175360440Y-71090907D01*
X175360440Y-70270000D01*
X175316162Y-70034683D01*
X175177090Y-69818559D01*
X174964890Y-69673569D01*
X174713000Y-69622560D01*
X173013000Y-69622560D01*
X172777683Y-69666838D01*
X172561559Y-69805910D01*
X172416569Y-70018110D01*
X172402914Y-70085541D01*
X172373054Y-70040853D01*
X171891285Y-69718946D01*
X171323000Y-69605907D01*
X170754715Y-69718946D01*
X170272946Y-70040853D01*
X170053000Y-70370026D01*
X169833054Y-70040853D01*
X169351285Y-69718946D01*
X168783000Y-69605907D01*
X168214715Y-69718946D01*
X167732946Y-70040853D01*
X167513000Y-70370026D01*
X167293054Y-70040853D01*
X166811285Y-69718946D01*
X166243000Y-69605907D01*
X165674715Y-69718946D01*
X165192946Y-70040853D01*
X164973000Y-70370026D01*
X164753054Y-70040853D01*
X164271285Y-69718946D01*
X163703000Y-69605907D01*
X163134715Y-69718946D01*
X162652946Y-70040853D01*
X162433000Y-70370026D01*
X162213054Y-70040853D01*
X161731285Y-69718946D01*
X161163000Y-69605907D01*
X160594715Y-69718946D01*
X160112946Y-70040853D01*
X159893000Y-70370026D01*
X159673054Y-70040853D01*
X159191285Y-69718946D01*
X158623000Y-69605907D01*
X158054715Y-69718946D01*
X157572946Y-70040853D01*
X157353000Y-70370026D01*
X157133054Y-70040853D01*
X156651285Y-69718946D01*
X156083000Y-69605907D01*
X155514715Y-69718946D01*
X155032946Y-70040853D01*
X154711039Y-70522622D01*
X154598000Y-71090907D01*
X153516440Y-71090907D01*
X153516440Y-70270000D01*
X153472162Y-70034683D01*
X153333090Y-69818559D01*
X153120890Y-69673569D01*
X152869000Y-69622560D01*
X151169000Y-69622560D01*
X150933683Y-69666838D01*
X150717559Y-69805910D01*
X150572569Y-70018110D01*
X150558914Y-70085541D01*
X150529054Y-70040853D01*
X150047285Y-69718946D01*
X149479000Y-69605907D01*
X148910715Y-69718946D01*
X148428946Y-70040853D01*
X148209000Y-70370026D01*
X147989054Y-70040853D01*
X147507285Y-69718946D01*
X146939000Y-69605907D01*
X146370715Y-69718946D01*
X145888946Y-70040853D01*
X145669000Y-70370026D01*
X145449054Y-70040853D01*
X144967285Y-69718946D01*
X144399000Y-69605907D01*
X143830715Y-69718946D01*
X143348946Y-70040853D01*
X143129000Y-70370026D01*
X142909054Y-70040853D01*
X142427285Y-69718946D01*
X141859000Y-69605907D01*
X141290715Y-69718946D01*
X140808946Y-70040853D01*
X140589000Y-70370026D01*
X140369054Y-70040853D01*
X139887285Y-69718946D01*
X139319000Y-69605907D01*
X138750715Y-69718946D01*
X138268946Y-70040853D01*
X138041298Y-70381553D01*
X137974183Y-70238642D01*
X137545924Y-69848355D01*
X137135890Y-69678524D01*
X136906000Y-69799845D01*
X136652000Y-69799845D01*
X136422110Y-69678524D01*
X136012076Y-69848355D01*
X135583817Y-70238642D01*
X135516702Y-70381553D01*
X135289054Y-70040853D01*
X134807285Y-69718946D01*
X134239000Y-69605907D01*
X133670715Y-69718946D01*
X133188946Y-70040853D01*
X132969000Y-70370026D01*
X132749054Y-70040853D01*
X132267285Y-69718946D01*
X131699000Y-69605907D01*
X131130715Y-69718946D01*
X130648946Y-70040853D01*
X130429000Y-70370026D01*
X130209054Y-70040853D01*
X129727285Y-69718946D01*
X129159000Y-69605907D01*
X128590715Y-69718946D01*
X128108946Y-70040853D01*
X127787039Y-70522622D01*
X127674000Y-71090907D01*
X112470000Y-71090907D01*
X112470000Y-66945258D01*
X218853954Y-66945258D01*
X218974003Y-67183000D01*
X220218000Y-67183000D01*
X220218000Y-65939622D01*
X220472000Y-65939622D01*
X220472000Y-67183000D01*
X221715997Y-67183000D01*
X221836046Y-66945258D01*
X221582966Y-66402424D01*
X221141417Y-65997760D01*
X220709740Y-65818964D01*
X220472000Y-65939622D01*
X220218000Y-65939622D01*
X219980260Y-65818964D01*
X219548583Y-65997760D01*
X219107034Y-66402424D01*
X218853954Y-66945258D01*
X112470000Y-66945258D01*
X112470000Y-62357000D01*
X233045000Y-62357000D01*
X233045000Y-119409923D01*
X233045000Y-119409923D01*
G37*
X233045000Y-119409923D02*
X220647539Y-107012461D01*
X220565194Y-106957440D01*
X221245000Y-106957440D01*
X221480317Y-106913162D01*
X221696441Y-106774090D01*
X221841431Y-106561890D01*
X221892440Y-106310000D01*
X221892440Y-104510000D01*
X221848162Y-104274683D01*
X221709090Y-104058559D01*
X221496890Y-103913569D01*
X221480656Y-103910281D01*
X221763155Y-103487491D01*
X221880000Y-102900072D01*
X221880000Y-102839928D01*
X221763155Y-102252509D01*
X221430409Y-101754519D01*
X221192418Y-101595499D01*
X221582966Y-101237576D01*
X221836046Y-100694742D01*
X221715997Y-100457000D01*
X220472000Y-100457000D01*
X220472000Y-100477000D01*
X220218000Y-100477000D01*
X220218000Y-100457000D01*
X218974003Y-100457000D01*
X218853954Y-100694742D01*
X219107034Y-101237576D01*
X219497582Y-101595499D01*
X219259591Y-101754519D01*
X218926845Y-102252509D01*
X218810000Y-102839928D01*
X218810000Y-102900072D01*
X218926845Y-103487491D01*
X219207837Y-103908026D01*
X218993559Y-104045910D01*
X218848569Y-104258110D01*
X218797560Y-104510000D01*
X218797560Y-106310000D01*
X218841838Y-106545317D01*
X218892546Y-106624120D01*
X217170000Y-106624120D01*
X216662608Y-106725047D01*
X216232461Y-107012461D01*
X215945047Y-107442608D01*
X215850419Y-107918333D01*
X215796788Y-107940493D01*
X215521460Y-108215341D01*
X215372270Y-108574630D01*
X215371931Y-108963663D01*
X215520493Y-109323212D01*
X215795341Y-109598540D01*
X216154630Y-109747730D01*
X216543663Y-109748069D01*
X216903212Y-109599507D01*
X217178540Y-109324659D01*
X217198795Y-109275880D01*
X219160802Y-109275880D01*
X219654014Y-109769092D01*
X219548583Y-109812760D01*
X219107034Y-110217424D01*
X218853954Y-110760258D01*
X218974003Y-110998000D01*
X220218000Y-110998000D01*
X220218000Y-110978000D01*
X220472000Y-110978000D01*
X220472000Y-110998000D01*
X220492000Y-110998000D01*
X220492000Y-111252000D01*
X220472000Y-111252000D01*
X220472000Y-111272000D01*
X220218000Y-111272000D01*
X220218000Y-111252000D01*
X218974003Y-111252000D01*
X218853954Y-111489742D01*
X219107034Y-112032576D01*
X219497582Y-112390499D01*
X219259591Y-112549519D01*
X218926845Y-113047509D01*
X218810000Y-113634928D01*
X218810000Y-113695072D01*
X218926845Y-114282491D01*
X219207837Y-114703026D01*
X218993559Y-114840910D01*
X218848569Y-115053110D01*
X218797560Y-115305000D01*
X218797560Y-117105000D01*
X218841838Y-117340317D01*
X218980910Y-117556441D01*
X219193110Y-117701431D01*
X219445000Y-117752440D01*
X221245000Y-117752440D01*
X221480317Y-117708162D01*
X221696441Y-117569090D01*
X221841431Y-117356890D01*
X221892440Y-117105000D01*
X221892440Y-115305000D01*
X221848162Y-115069683D01*
X221709090Y-114853559D01*
X221496890Y-114708569D01*
X221480656Y-114705281D01*
X221763155Y-114282491D01*
X221880000Y-113695072D01*
X221880000Y-113634928D01*
X221763155Y-113047509D01*
X221430409Y-112549519D01*
X221192418Y-112390499D01*
X221582966Y-112032576D01*
X221689339Y-111804416D01*
X233045000Y-123160077D01*
X233045000Y-126290000D01*
X112470000Y-126290000D01*
X112470000Y-118530000D01*
X136932560Y-118530000D01*
X136932560Y-120230000D01*
X136976838Y-120465317D01*
X137115910Y-120681441D01*
X137328110Y-120826431D01*
X137580000Y-120877440D01*
X139280000Y-120877440D01*
X139515317Y-120833162D01*
X139731441Y-120694090D01*
X139876431Y-120481890D01*
X139890086Y-120414459D01*
X139919946Y-120459147D01*
X140401715Y-120781054D01*
X140970000Y-120894093D01*
X141538285Y-120781054D01*
X142020054Y-120459147D01*
X142240000Y-120129974D01*
X142459946Y-120459147D01*
X142941715Y-120781054D01*
X143510000Y-120894093D01*
X144078285Y-120781054D01*
X144560054Y-120459147D01*
X144780000Y-120129974D01*
X144999946Y-120459147D01*
X145481715Y-120781054D01*
X146050000Y-120894093D01*
X146618285Y-120781054D01*
X147100054Y-120459147D01*
X147320000Y-120129974D01*
X147539946Y-120459147D01*
X148021715Y-120781054D01*
X148590000Y-120894093D01*
X149158285Y-120781054D01*
X149640054Y-120459147D01*
X149867702Y-120118447D01*
X149934817Y-120261358D01*
X150363076Y-120651645D01*
X150773110Y-120821476D01*
X151003000Y-120700155D01*
X151003000Y-119507000D01*
X151257000Y-119507000D01*
X151257000Y-120700155D01*
X151486890Y-120821476D01*
X151896924Y-120651645D01*
X152325183Y-120261358D01*
X152400000Y-120102046D01*
X152474817Y-120261358D01*
X152903076Y-120651645D01*
X153313110Y-120821476D01*
X153543000Y-120700155D01*
X153543000Y-119507000D01*
X151257000Y-119507000D01*
X151003000Y-119507000D01*
X150983000Y-119507000D01*
X150983000Y-119253000D01*
X151003000Y-119253000D01*
X151003000Y-118059845D01*
X151257000Y-118059845D01*
X151257000Y-119253000D01*
X153543000Y-119253000D01*
X153543000Y-118059845D01*
X153797000Y-118059845D01*
X153797000Y-119253000D01*
X153817000Y-119253000D01*
X153817000Y-119507000D01*
X153797000Y-119507000D01*
X153797000Y-120700155D01*
X154026890Y-120821476D01*
X154436924Y-120651645D01*
X154865183Y-120261358D01*
X154932298Y-120118447D01*
X155159946Y-120459147D01*
X155641715Y-120781054D01*
X156210000Y-120894093D01*
X156778285Y-120781054D01*
X157260054Y-120459147D01*
X157581961Y-119977378D01*
X157695000Y-119409093D01*
X157695000Y-119350907D01*
X157581961Y-118782622D01*
X157413165Y-118530000D01*
X159792560Y-118530000D01*
X159792560Y-120230000D01*
X159836838Y-120465317D01*
X159975910Y-120681441D01*
X160188110Y-120826431D01*
X160440000Y-120877440D01*
X162140000Y-120877440D01*
X162375317Y-120833162D01*
X162591441Y-120694090D01*
X162736431Y-120481890D01*
X162750086Y-120414459D01*
X162779946Y-120459147D01*
X163261715Y-120781054D01*
X163830000Y-120894093D01*
X164398285Y-120781054D01*
X164880054Y-120459147D01*
X165100000Y-120129974D01*
X165319946Y-120459147D01*
X165801715Y-120781054D01*
X166370000Y-120894093D01*
X166938285Y-120781054D01*
X167420054Y-120459147D01*
X167640000Y-120129974D01*
X167859946Y-120459147D01*
X168341715Y-120781054D01*
X168910000Y-120894093D01*
X169478285Y-120781054D01*
X169960054Y-120459147D01*
X170180000Y-120129974D01*
X170399946Y-120459147D01*
X170881715Y-120781054D01*
X171450000Y-120894093D01*
X172018285Y-120781054D01*
X172500054Y-120459147D01*
X172720000Y-120129974D01*
X172939946Y-120459147D01*
X173421715Y-120781054D01*
X173990000Y-120894093D01*
X174558285Y-120781054D01*
X175040054Y-120459147D01*
X175260000Y-120129974D01*
X175479946Y-120459147D01*
X175961715Y-120781054D01*
X176530000Y-120894093D01*
X177098285Y-120781054D01*
X177580054Y-120459147D01*
X177800000Y-120129974D01*
X178019946Y-120459147D01*
X178501715Y-120781054D01*
X179070000Y-120894093D01*
X179638285Y-120781054D01*
X180120054Y-120459147D01*
X180441961Y-119977378D01*
X180555000Y-119409093D01*
X180555000Y-119350907D01*
X180441961Y-118782622D01*
X180273165Y-118530000D01*
X182652560Y-118530000D01*
X182652560Y-120230000D01*
X182696838Y-120465317D01*
X182835910Y-120681441D01*
X183048110Y-120826431D01*
X183300000Y-120877440D01*
X185000000Y-120877440D01*
X185235317Y-120833162D01*
X185451441Y-120694090D01*
X185596431Y-120481890D01*
X185610086Y-120414459D01*
X185639946Y-120459147D01*
X186121715Y-120781054D01*
X186690000Y-120894093D01*
X187258285Y-120781054D01*
X187740054Y-120459147D01*
X187960000Y-120129974D01*
X188179946Y-120459147D01*
X188661715Y-120781054D01*
X189230000Y-120894093D01*
X189798285Y-120781054D01*
X190280054Y-120459147D01*
X190500000Y-120129974D01*
X190719946Y-120459147D01*
X191201715Y-120781054D01*
X191770000Y-120894093D01*
X192338285Y-120781054D01*
X192820054Y-120459147D01*
X193040000Y-120129974D01*
X193259946Y-120459147D01*
X193741715Y-120781054D01*
X194310000Y-120894093D01*
X194878285Y-120781054D01*
X195360054Y-120459147D01*
X195580000Y-120129974D01*
X195799946Y-120459147D01*
X196281715Y-120781054D01*
X196850000Y-120894093D01*
X197418285Y-120781054D01*
X197900054Y-120459147D01*
X198120000Y-120129974D01*
X198339946Y-120459147D01*
X198821715Y-120781054D01*
X199390000Y-120894093D01*
X199958285Y-120781054D01*
X200440054Y-120459147D01*
X200660000Y-120129974D01*
X200879946Y-120459147D01*
X201361715Y-120781054D01*
X201930000Y-120894093D01*
X202498285Y-120781054D01*
X202980054Y-120459147D01*
X203301961Y-119977378D01*
X203415000Y-119409093D01*
X203415000Y-119350907D01*
X203301961Y-118782622D01*
X202980054Y-118300853D01*
X202498285Y-117978946D01*
X201930000Y-117865907D01*
X201361715Y-117978946D01*
X200879946Y-118300853D01*
X200660000Y-118630026D01*
X200440054Y-118300853D01*
X199958285Y-117978946D01*
X199390000Y-117865907D01*
X198821715Y-117978946D01*
X198339946Y-118300853D01*
X198120000Y-118630026D01*
X197900054Y-118300853D01*
X197418285Y-117978946D01*
X196850000Y-117865907D01*
X196281715Y-117978946D01*
X195799946Y-118300853D01*
X195580000Y-118630026D01*
X195360054Y-118300853D01*
X194878285Y-117978946D01*
X194310000Y-117865907D01*
X193741715Y-117978946D01*
X193259946Y-118300853D01*
X193040000Y-118630026D01*
X192820054Y-118300853D01*
X192338285Y-117978946D01*
X191770000Y-117865907D01*
X191201715Y-117978946D01*
X190719946Y-118300853D01*
X190500000Y-118630026D01*
X190280054Y-118300853D01*
X189798285Y-117978946D01*
X189230000Y-117865907D01*
X188661715Y-117978946D01*
X188179946Y-118300853D01*
X187960000Y-118630026D01*
X187740054Y-118300853D01*
X187258285Y-117978946D01*
X186690000Y-117865907D01*
X186121715Y-117978946D01*
X185639946Y-118300853D01*
X185612150Y-118342452D01*
X185603162Y-118294683D01*
X185464090Y-118078559D01*
X185251890Y-117933569D01*
X185000000Y-117882560D01*
X183300000Y-117882560D01*
X183064683Y-117926838D01*
X182848559Y-118065910D01*
X182703569Y-118278110D01*
X182652560Y-118530000D01*
X180273165Y-118530000D01*
X180120054Y-118300853D01*
X179638285Y-117978946D01*
X179070000Y-117865907D01*
X178501715Y-117978946D01*
X178019946Y-118300853D01*
X177800000Y-118630026D01*
X177580054Y-118300853D01*
X177098285Y-117978946D01*
X176530000Y-117865907D01*
X175961715Y-117978946D01*
X175479946Y-118300853D01*
X175260000Y-118630026D01*
X175040054Y-118300853D01*
X174558285Y-117978946D01*
X173990000Y-117865907D01*
X173421715Y-117978946D01*
X172939946Y-118300853D01*
X172720000Y-118630026D01*
X172500054Y-118300853D01*
X172018285Y-117978946D01*
X171450000Y-117865907D01*
X170881715Y-117978946D01*
X170399946Y-118300853D01*
X170180000Y-118630026D01*
X169960054Y-118300853D01*
X169478285Y-117978946D01*
X168910000Y-117865907D01*
X168341715Y-117978946D01*
X167859946Y-118300853D01*
X167640000Y-118630026D01*
X167420054Y-118300853D01*
X166938285Y-117978946D01*
X166370000Y-117865907D01*
X165801715Y-117978946D01*
X165319946Y-118300853D01*
X165100000Y-118630026D01*
X164880054Y-118300853D01*
X164398285Y-117978946D01*
X163830000Y-117865907D01*
X163261715Y-117978946D01*
X162779946Y-118300853D01*
X162752150Y-118342452D01*
X162743162Y-118294683D01*
X162604090Y-118078559D01*
X162391890Y-117933569D01*
X162140000Y-117882560D01*
X160440000Y-117882560D01*
X160204683Y-117926838D01*
X159988559Y-118065910D01*
X159843569Y-118278110D01*
X159792560Y-118530000D01*
X157413165Y-118530000D01*
X157260054Y-118300853D01*
X156778285Y-117978946D01*
X156210000Y-117865907D01*
X155641715Y-117978946D01*
X155159946Y-118300853D01*
X154932298Y-118641553D01*
X154865183Y-118498642D01*
X154436924Y-118108355D01*
X154026890Y-117938524D01*
X153797000Y-118059845D01*
X153543000Y-118059845D01*
X153313110Y-117938524D01*
X152903076Y-118108355D01*
X152474817Y-118498642D01*
X152400000Y-118657954D01*
X152325183Y-118498642D01*
X151896924Y-118108355D01*
X151486890Y-117938524D01*
X151257000Y-118059845D01*
X151003000Y-118059845D01*
X150773110Y-117938524D01*
X150363076Y-118108355D01*
X149934817Y-118498642D01*
X149867702Y-118641553D01*
X149640054Y-118300853D01*
X149158285Y-117978946D01*
X148590000Y-117865907D01*
X148021715Y-117978946D01*
X147539946Y-118300853D01*
X147320000Y-118630026D01*
X147100054Y-118300853D01*
X146618285Y-117978946D01*
X146050000Y-117865907D01*
X145481715Y-117978946D01*
X144999946Y-118300853D01*
X144780000Y-118630026D01*
X144560054Y-118300853D01*
X144078285Y-117978946D01*
X143510000Y-117865907D01*
X142941715Y-117978946D01*
X142459946Y-118300853D01*
X142240000Y-118630026D01*
X142020054Y-118300853D01*
X141538285Y-117978946D01*
X140970000Y-117865907D01*
X140401715Y-117978946D01*
X139919946Y-118300853D01*
X139892150Y-118342452D01*
X139883162Y-118294683D01*
X139744090Y-118078559D01*
X139531890Y-117933569D01*
X139280000Y-117882560D01*
X137580000Y-117882560D01*
X137344683Y-117926838D01*
X137128559Y-118065910D01*
X136983569Y-118278110D01*
X136932560Y-118530000D01*
X112470000Y-118530000D01*
X112470000Y-115355000D01*
X159792560Y-115355000D01*
X159792560Y-117055000D01*
X159836838Y-117290317D01*
X159975910Y-117506441D01*
X160188110Y-117651431D01*
X160440000Y-117702440D01*
X162140000Y-117702440D01*
X162375317Y-117658162D01*
X162591441Y-117519090D01*
X162736431Y-117306890D01*
X162750086Y-117239459D01*
X162779946Y-117284147D01*
X163261715Y-117606054D01*
X163830000Y-117719093D01*
X164398285Y-117606054D01*
X164880054Y-117284147D01*
X165100000Y-116954974D01*
X165319946Y-117284147D01*
X165801715Y-117606054D01*
X166370000Y-117719093D01*
X166938285Y-117606054D01*
X167420054Y-117284147D01*
X167640000Y-116954974D01*
X167859946Y-117284147D01*
X168341715Y-117606054D01*
X168910000Y-117719093D01*
X169478285Y-117606054D01*
X169960054Y-117284147D01*
X170180000Y-116954974D01*
X170399946Y-117284147D01*
X170881715Y-117606054D01*
X171450000Y-117719093D01*
X172018285Y-117606054D01*
X172500054Y-117284147D01*
X172720000Y-116954974D01*
X172939946Y-117284147D01*
X173421715Y-117606054D01*
X173990000Y-117719093D01*
X174558285Y-117606054D01*
X175040054Y-117284147D01*
X175260000Y-116954974D01*
X175479946Y-117284147D01*
X175961715Y-117606054D01*
X176530000Y-117719093D01*
X177098285Y-117606054D01*
X177580054Y-117284147D01*
X177800000Y-116954974D01*
X178019946Y-117284147D01*
X178501715Y-117606054D01*
X179070000Y-117719093D01*
X179638285Y-117606054D01*
X180120054Y-117284147D01*
X180441961Y-116802378D01*
X180555000Y-116234093D01*
X180555000Y-116175907D01*
X181395000Y-116175907D01*
X181395000Y-116234093D01*
X181508039Y-116802378D01*
X181829946Y-117284147D01*
X182311715Y-117606054D01*
X182880000Y-117719093D01*
X183448285Y-117606054D01*
X183930054Y-117284147D01*
X184150000Y-116954974D01*
X184369946Y-117284147D01*
X184851715Y-117606054D01*
X185420000Y-117719093D01*
X185988285Y-117606054D01*
X186470054Y-117284147D01*
X186690000Y-116954974D01*
X186909946Y-117284147D01*
X187391715Y-117606054D01*
X187960000Y-117719093D01*
X188528285Y-117606054D01*
X189010054Y-117284147D01*
X189230000Y-116954974D01*
X189449946Y-117284147D01*
X189931715Y-117606054D01*
X190500000Y-117719093D01*
X191068285Y-117606054D01*
X191550054Y-117284147D01*
X191770000Y-116954974D01*
X191989946Y-117284147D01*
X192471715Y-117606054D01*
X193040000Y-117719093D01*
X193608285Y-117606054D01*
X194090054Y-117284147D01*
X194310000Y-116954974D01*
X194529946Y-117284147D01*
X195011715Y-117606054D01*
X195580000Y-117719093D01*
X196148285Y-117606054D01*
X196630054Y-117284147D01*
X196850000Y-116954974D01*
X197069946Y-117284147D01*
X197551715Y-117606054D01*
X198120000Y-117719093D01*
X198688285Y-117606054D01*
X199170054Y-117284147D01*
X199197850Y-117242548D01*
X199206838Y-117290317D01*
X199345910Y-117506441D01*
X199558110Y-117651431D01*
X199810000Y-117702440D01*
X201510000Y-117702440D01*
X201745317Y-117658162D01*
X201961441Y-117519090D01*
X202106431Y-117306890D01*
X202157440Y-117055000D01*
X202157440Y-115355000D01*
X202113162Y-115119683D01*
X201974090Y-114903559D01*
X201761890Y-114758569D01*
X201510000Y-114707560D01*
X199810000Y-114707560D01*
X199574683Y-114751838D01*
X199358559Y-114890910D01*
X199213569Y-115103110D01*
X199199914Y-115170541D01*
X199170054Y-115125853D01*
X198688285Y-114803946D01*
X198120000Y-114690907D01*
X197551715Y-114803946D01*
X197069946Y-115125853D01*
X196850000Y-115455026D01*
X196630054Y-115125853D01*
X196148285Y-114803946D01*
X195580000Y-114690907D01*
X195011715Y-114803946D01*
X194529946Y-115125853D01*
X194310000Y-115455026D01*
X194090054Y-115125853D01*
X193608285Y-114803946D01*
X193040000Y-114690907D01*
X192471715Y-114803946D01*
X191989946Y-115125853D01*
X191770000Y-115455026D01*
X191550054Y-115125853D01*
X191068285Y-114803946D01*
X190500000Y-114690907D01*
X189931715Y-114803946D01*
X189449946Y-115125853D01*
X189230000Y-115455026D01*
X189010054Y-115125853D01*
X188528285Y-114803946D01*
X187960000Y-114690907D01*
X187391715Y-114803946D01*
X186909946Y-115125853D01*
X186690000Y-115455026D01*
X186470054Y-115125853D01*
X185988285Y-114803946D01*
X185420000Y-114690907D01*
X184851715Y-114803946D01*
X184369946Y-115125853D01*
X184150000Y-115455026D01*
X183930054Y-115125853D01*
X183448285Y-114803946D01*
X182880000Y-114690907D01*
X182311715Y-114803946D01*
X181829946Y-115125853D01*
X181508039Y-115607622D01*
X181395000Y-116175907D01*
X180555000Y-116175907D01*
X180441961Y-115607622D01*
X180120054Y-115125853D01*
X179638285Y-114803946D01*
X179070000Y-114690907D01*
X178501715Y-114803946D01*
X178019946Y-115125853D01*
X177800000Y-115455026D01*
X177580054Y-115125853D01*
X177098285Y-114803946D01*
X176530000Y-114690907D01*
X175961715Y-114803946D01*
X175479946Y-115125853D01*
X175260000Y-115455026D01*
X175040054Y-115125853D01*
X174558285Y-114803946D01*
X173990000Y-114690907D01*
X173421715Y-114803946D01*
X172939946Y-115125853D01*
X172720000Y-115455026D01*
X172500054Y-115125853D01*
X172018285Y-114803946D01*
X171450000Y-114690907D01*
X170881715Y-114803946D01*
X170399946Y-115125853D01*
X170180000Y-115455026D01*
X169960054Y-115125853D01*
X169478285Y-114803946D01*
X168910000Y-114690907D01*
X168341715Y-114803946D01*
X167859946Y-115125853D01*
X167640000Y-115455026D01*
X167420054Y-115125853D01*
X166938285Y-114803946D01*
X166370000Y-114690907D01*
X165801715Y-114803946D01*
X165319946Y-115125853D01*
X165100000Y-115455026D01*
X164880054Y-115125853D01*
X164398285Y-114803946D01*
X163830000Y-114690907D01*
X163261715Y-114803946D01*
X162779946Y-115125853D01*
X162752150Y-115167452D01*
X162743162Y-115119683D01*
X162604090Y-114903559D01*
X162391890Y-114758569D01*
X162140000Y-114707560D01*
X160440000Y-114707560D01*
X160204683Y-114751838D01*
X159988559Y-114890910D01*
X159843569Y-115103110D01*
X159792560Y-115355000D01*
X112470000Y-115355000D01*
X112470000Y-109590000D01*
X112752560Y-109590000D01*
X112752560Y-111390000D01*
X112796838Y-111625317D01*
X112935910Y-111841441D01*
X113148110Y-111986431D01*
X113400000Y-112037440D01*
X115200000Y-112037440D01*
X115435317Y-111993162D01*
X115651441Y-111854090D01*
X115796431Y-111641890D01*
X115847440Y-111390000D01*
X115847440Y-109590000D01*
X115803162Y-109354683D01*
X115664090Y-109138559D01*
X115451890Y-108993569D01*
X115200000Y-108942560D01*
X113400000Y-108942560D01*
X113164683Y-108986838D01*
X112948559Y-109125910D01*
X112803569Y-109338110D01*
X112752560Y-109590000D01*
X112470000Y-109590000D01*
X112470000Y-105379928D01*
X112765000Y-105379928D01*
X112765000Y-105440072D01*
X112881845Y-106027491D01*
X113214591Y-106525481D01*
X113712581Y-106858227D01*
X114300000Y-106975072D01*
X114887419Y-106858227D01*
X115385409Y-106525481D01*
X115718155Y-106027491D01*
X115835000Y-105440072D01*
X115835000Y-105379928D01*
X115718155Y-104792509D01*
X115385409Y-104294519D01*
X114887419Y-103961773D01*
X114300000Y-103844928D01*
X113712581Y-103961773D01*
X113214591Y-104294519D01*
X112881845Y-104792509D01*
X112765000Y-105379928D01*
X112470000Y-105379928D01*
X112470000Y-103155750D01*
X148375000Y-103155750D01*
X148375000Y-103846309D01*
X148471673Y-104079698D01*
X148650301Y-104258327D01*
X148883690Y-104355000D01*
X149574250Y-104355000D01*
X149733000Y-104196250D01*
X149733000Y-102997000D01*
X149987000Y-102997000D01*
X149987000Y-104196250D01*
X150145750Y-104355000D01*
X150836310Y-104355000D01*
X151069699Y-104258327D01*
X151248327Y-104079698D01*
X151335136Y-103870122D01*
X151633076Y-104141645D01*
X152043110Y-104311476D01*
X152273000Y-104190155D01*
X152273000Y-102997000D01*
X152527000Y-102997000D01*
X152527000Y-104190155D01*
X152756890Y-104311476D01*
X153166924Y-104141645D01*
X153595183Y-103751358D01*
X153670000Y-103592046D01*
X153744817Y-103751358D01*
X154173076Y-104141645D01*
X154583110Y-104311476D01*
X154813000Y-104190155D01*
X154813000Y-102997000D01*
X155067000Y-102997000D01*
X155067000Y-104190155D01*
X155296890Y-104311476D01*
X155706924Y-104141645D01*
X156135183Y-103751358D01*
X156210000Y-103592046D01*
X156284817Y-103751358D01*
X156713076Y-104141645D01*
X157123110Y-104311476D01*
X157353000Y-104190155D01*
X157353000Y-102997000D01*
X157607000Y-102997000D01*
X157607000Y-104190155D01*
X157836890Y-104311476D01*
X158246924Y-104141645D01*
X158675183Y-103751358D01*
X158750000Y-103592046D01*
X158824817Y-103751358D01*
X159253076Y-104141645D01*
X159663110Y-104311476D01*
X159893000Y-104190155D01*
X159893000Y-102997000D01*
X160147000Y-102997000D01*
X160147000Y-104190155D01*
X160376890Y-104311476D01*
X160786924Y-104141645D01*
X161215183Y-103751358D01*
X161290000Y-103592046D01*
X161364817Y-103751358D01*
X161793076Y-104141645D01*
X162203110Y-104311476D01*
X162433000Y-104190155D01*
X162433000Y-102997000D01*
X162687000Y-102997000D01*
X162687000Y-104190155D01*
X162916890Y-104311476D01*
X163326924Y-104141645D01*
X163755183Y-103751358D01*
X163830000Y-103592046D01*
X163904817Y-103751358D01*
X164333076Y-104141645D01*
X164743110Y-104311476D01*
X164973000Y-104190155D01*
X164973000Y-102997000D01*
X165227000Y-102997000D01*
X165227000Y-104190155D01*
X165456890Y-104311476D01*
X165866924Y-104141645D01*
X166295183Y-103751358D01*
X166370000Y-103592046D01*
X166444817Y-103751358D01*
X166873076Y-104141645D01*
X167283110Y-104311476D01*
X167513000Y-104190155D01*
X167513000Y-102997000D01*
X167767000Y-102997000D01*
X167767000Y-104190155D01*
X167996890Y-104311476D01*
X168406924Y-104141645D01*
X168704864Y-103870122D01*
X168791673Y-104079698D01*
X168970301Y-104258327D01*
X169203690Y-104355000D01*
X169894250Y-104355000D01*
X170053000Y-104196250D01*
X170053000Y-102997000D01*
X170307000Y-102997000D01*
X170307000Y-104196250D01*
X170465750Y-104355000D01*
X171156310Y-104355000D01*
X171389699Y-104258327D01*
X171568327Y-104079698D01*
X171655136Y-103870122D01*
X171953076Y-104141645D01*
X172363110Y-104311476D01*
X172593000Y-104190155D01*
X172593000Y-102997000D01*
X172847000Y-102997000D01*
X172847000Y-104190155D01*
X173076890Y-104311476D01*
X173486924Y-104141645D01*
X173915183Y-103751358D01*
X173990000Y-103592046D01*
X174064817Y-103751358D01*
X174493076Y-104141645D01*
X174903110Y-104311476D01*
X175133000Y-104190155D01*
X175133000Y-102997000D01*
X175387000Y-102997000D01*
X175387000Y-104190155D01*
X175616890Y-104311476D01*
X176026924Y-104141645D01*
X176455183Y-103751358D01*
X176530000Y-103592046D01*
X176604817Y-103751358D01*
X177033076Y-104141645D01*
X177443110Y-104311476D01*
X177673000Y-104190155D01*
X177673000Y-102997000D01*
X177927000Y-102997000D01*
X177927000Y-104190155D01*
X178156890Y-104311476D01*
X178566924Y-104141645D01*
X178995183Y-103751358D01*
X179070000Y-103592046D01*
X179144817Y-103751358D01*
X179573076Y-104141645D01*
X179983110Y-104311476D01*
X180213000Y-104190155D01*
X180213000Y-102997000D01*
X180467000Y-102997000D01*
X180467000Y-104190155D01*
X180696890Y-104311476D01*
X181106924Y-104141645D01*
X181535183Y-103751358D01*
X181610000Y-103592046D01*
X181684817Y-103751358D01*
X182113076Y-104141645D01*
X182523110Y-104311476D01*
X182753000Y-104190155D01*
X182753000Y-102997000D01*
X183007000Y-102997000D01*
X183007000Y-104190155D01*
X183236890Y-104311476D01*
X183646924Y-104141645D01*
X184075183Y-103751358D01*
X184150000Y-103592046D01*
X184224817Y-103751358D01*
X184653076Y-104141645D01*
X185063110Y-104311476D01*
X185293000Y-104190155D01*
X185293000Y-102997000D01*
X185547000Y-102997000D01*
X185547000Y-104190155D01*
X185776890Y-104311476D01*
X186186924Y-104141645D01*
X186615183Y-103751358D01*
X186690000Y-103592046D01*
X186764817Y-103751358D01*
X187193076Y-104141645D01*
X187603110Y-104311476D01*
X187833000Y-104190155D01*
X187833000Y-102997000D01*
X188087000Y-102997000D01*
X188087000Y-104190155D01*
X188316890Y-104311476D01*
X188726924Y-104141645D01*
X189155183Y-103751358D01*
X189401486Y-103226892D01*
X189280819Y-102997000D01*
X188087000Y-102997000D01*
X187833000Y-102997000D01*
X185547000Y-102997000D01*
X185293000Y-102997000D01*
X183007000Y-102997000D01*
X182753000Y-102997000D01*
X180467000Y-102997000D01*
X180213000Y-102997000D01*
X177927000Y-102997000D01*
X177673000Y-102997000D01*
X175387000Y-102997000D01*
X175133000Y-102997000D01*
X172847000Y-102997000D01*
X172593000Y-102997000D01*
X170307000Y-102997000D01*
X170053000Y-102997000D01*
X167767000Y-102997000D01*
X167513000Y-102997000D01*
X165227000Y-102997000D01*
X164973000Y-102997000D01*
X162687000Y-102997000D01*
X162433000Y-102997000D01*
X160147000Y-102997000D01*
X159893000Y-102997000D01*
X157607000Y-102997000D01*
X157353000Y-102997000D01*
X155067000Y-102997000D01*
X154813000Y-102997000D01*
X152527000Y-102997000D01*
X152273000Y-102997000D01*
X149987000Y-102997000D01*
X149733000Y-102997000D01*
X148533750Y-102997000D01*
X148375000Y-103155750D01*
X112470000Y-103155750D01*
X112470000Y-97790000D01*
X112785907Y-97790000D01*
X112898946Y-98358285D01*
X113220853Y-98840054D01*
X113550026Y-99060000D01*
X113220853Y-99279946D01*
X112898946Y-99761715D01*
X112785907Y-100330000D01*
X112898946Y-100898285D01*
X113220853Y-101380054D01*
X113702622Y-101701961D01*
X114270907Y-101815000D01*
X114329093Y-101815000D01*
X114897378Y-101701961D01*
X115379147Y-101380054D01*
X115701054Y-100898285D01*
X115814093Y-100330000D01*
X115701054Y-99761715D01*
X115512819Y-99480000D01*
X148362560Y-99480000D01*
X148362560Y-101180000D01*
X148406838Y-101415317D01*
X148528144Y-101603831D01*
X148471673Y-101660302D01*
X148375000Y-101893691D01*
X148375000Y-102584250D01*
X148533750Y-102743000D01*
X149733000Y-102743000D01*
X149733000Y-102723000D01*
X149987000Y-102723000D01*
X149987000Y-102743000D01*
X152273000Y-102743000D01*
X152273000Y-102723000D01*
X152527000Y-102723000D01*
X152527000Y-102743000D01*
X154813000Y-102743000D01*
X154813000Y-102723000D01*
X155067000Y-102723000D01*
X155067000Y-102743000D01*
X157353000Y-102743000D01*
X157353000Y-102723000D01*
X157607000Y-102723000D01*
X157607000Y-102743000D01*
X159893000Y-102743000D01*
X159893000Y-102723000D01*
X160147000Y-102723000D01*
X160147000Y-102743000D01*
X162433000Y-102743000D01*
X162433000Y-102723000D01*
X162687000Y-102723000D01*
X162687000Y-102743000D01*
X164973000Y-102743000D01*
X164973000Y-102723000D01*
X165227000Y-102723000D01*
X165227000Y-102743000D01*
X167513000Y-102743000D01*
X167513000Y-102723000D01*
X167767000Y-102723000D01*
X167767000Y-102743000D01*
X170053000Y-102743000D01*
X170053000Y-102723000D01*
X170307000Y-102723000D01*
X170307000Y-102743000D01*
X172593000Y-102743000D01*
X172593000Y-102723000D01*
X172847000Y-102723000D01*
X172847000Y-102743000D01*
X175133000Y-102743000D01*
X175133000Y-102723000D01*
X175387000Y-102723000D01*
X175387000Y-102743000D01*
X177673000Y-102743000D01*
X177673000Y-102723000D01*
X177927000Y-102723000D01*
X177927000Y-102743000D01*
X180213000Y-102743000D01*
X180213000Y-102723000D01*
X180467000Y-102723000D01*
X180467000Y-102743000D01*
X182753000Y-102743000D01*
X182753000Y-102723000D01*
X183007000Y-102723000D01*
X183007000Y-102743000D01*
X185293000Y-102743000D01*
X185293000Y-102723000D01*
X185547000Y-102723000D01*
X185547000Y-102743000D01*
X187833000Y-102743000D01*
X187833000Y-102723000D01*
X188087000Y-102723000D01*
X188087000Y-102743000D01*
X189280819Y-102743000D01*
X189401486Y-102513108D01*
X189155183Y-101988642D01*
X188726924Y-101598355D01*
X188726899Y-101598345D01*
X189010054Y-101409147D01*
X189331961Y-100927378D01*
X189445000Y-100359093D01*
X189445000Y-100300907D01*
X189331961Y-99732622D01*
X189010054Y-99250853D01*
X188528285Y-98928946D01*
X187960000Y-98815907D01*
X187391715Y-98928946D01*
X186909946Y-99250853D01*
X186690000Y-99580026D01*
X186470054Y-99250853D01*
X185988285Y-98928946D01*
X185420000Y-98815907D01*
X184851715Y-98928946D01*
X184369946Y-99250853D01*
X184150000Y-99580026D01*
X183930054Y-99250853D01*
X183448285Y-98928946D01*
X182880000Y-98815907D01*
X182311715Y-98928946D01*
X181829946Y-99250853D01*
X181610000Y-99580026D01*
X181390054Y-99250853D01*
X180908285Y-98928946D01*
X180340000Y-98815907D01*
X179771715Y-98928946D01*
X179289946Y-99250853D01*
X179070000Y-99580026D01*
X178850054Y-99250853D01*
X178368285Y-98928946D01*
X177800000Y-98815907D01*
X177231715Y-98928946D01*
X176749946Y-99250853D01*
X176530000Y-99580026D01*
X176310054Y-99250853D01*
X175828285Y-98928946D01*
X175260000Y-98815907D01*
X174691715Y-98928946D01*
X174209946Y-99250853D01*
X173990000Y-99580026D01*
X173770054Y-99250853D01*
X173288285Y-98928946D01*
X172720000Y-98815907D01*
X172151715Y-98928946D01*
X171669946Y-99250853D01*
X171642150Y-99292452D01*
X171633162Y-99244683D01*
X171494090Y-99028559D01*
X171281890Y-98883569D01*
X171030000Y-98832560D01*
X169330000Y-98832560D01*
X169094683Y-98876838D01*
X168878559Y-99015910D01*
X168733569Y-99228110D01*
X168719914Y-99295541D01*
X168690054Y-99250853D01*
X168208285Y-98928946D01*
X167640000Y-98815907D01*
X167071715Y-98928946D01*
X166589946Y-99250853D01*
X166370000Y-99580026D01*
X166150054Y-99250853D01*
X165668285Y-98928946D01*
X165100000Y-98815907D01*
X164531715Y-98928946D01*
X164049946Y-99250853D01*
X163830000Y-99580026D01*
X163610054Y-99250853D01*
X163128285Y-98928946D01*
X162560000Y-98815907D01*
X161991715Y-98928946D01*
X161509946Y-99250853D01*
X161290000Y-99580026D01*
X161070054Y-99250853D01*
X160588285Y-98928946D01*
X160020000Y-98815907D01*
X159451715Y-98928946D01*
X158969946Y-99250853D01*
X158750000Y-99580026D01*
X158530054Y-99250853D01*
X158048285Y-98928946D01*
X157480000Y-98815907D01*
X156911715Y-98928946D01*
X156429946Y-99250853D01*
X156210000Y-99580026D01*
X155990054Y-99250853D01*
X155508285Y-98928946D01*
X154940000Y-98815907D01*
X154371715Y-98928946D01*
X153889946Y-99250853D01*
X153670000Y-99580026D01*
X153450054Y-99250853D01*
X152968285Y-98928946D01*
X152400000Y-98815907D01*
X151831715Y-98928946D01*
X151349946Y-99250853D01*
X151322150Y-99292452D01*
X151313162Y-99244683D01*
X151174090Y-99028559D01*
X150961890Y-98883569D01*
X150710000Y-98832560D01*
X149010000Y-98832560D01*
X148774683Y-98876838D01*
X148558559Y-99015910D01*
X148413569Y-99228110D01*
X148362560Y-99480000D01*
X115512819Y-99480000D01*
X115379147Y-99279946D01*
X115049974Y-99060000D01*
X115379147Y-98840054D01*
X115701054Y-98358285D01*
X115814093Y-97790000D01*
X115701054Y-97221715D01*
X115379147Y-96739946D01*
X115337548Y-96712150D01*
X115385317Y-96703162D01*
X115601441Y-96564090D01*
X115746431Y-96351890D01*
X115797440Y-96100000D01*
X115797440Y-94400000D01*
X115753162Y-94164683D01*
X115634322Y-93980000D01*
X172475907Y-93980000D01*
X172588946Y-94548285D01*
X172910853Y-95030054D01*
X173240026Y-95250000D01*
X172910853Y-95469946D01*
X172588946Y-95951715D01*
X172475907Y-96520000D01*
X172588946Y-97088285D01*
X172910853Y-97570054D01*
X173392622Y-97891961D01*
X173960907Y-98005000D01*
X174019093Y-98005000D01*
X174587378Y-97891961D01*
X175069147Y-97570054D01*
X175258345Y-97286899D01*
X175258355Y-97286924D01*
X175648642Y-97715183D01*
X176173108Y-97961486D01*
X176403000Y-97840819D01*
X176403000Y-96647000D01*
X176657000Y-96647000D01*
X176657000Y-97840819D01*
X176886892Y-97961486D01*
X177411358Y-97715183D01*
X177801645Y-97286924D01*
X177971476Y-96876890D01*
X177850155Y-96647000D01*
X176657000Y-96647000D01*
X176403000Y-96647000D01*
X176383000Y-96647000D01*
X176383000Y-96393000D01*
X176403000Y-96393000D01*
X176403000Y-96373000D01*
X176657000Y-96373000D01*
X176657000Y-96393000D01*
X177850155Y-96393000D01*
X177971476Y-96163110D01*
X177801645Y-95753076D01*
X177411358Y-95324817D01*
X177268447Y-95257702D01*
X177609147Y-95030054D01*
X177931054Y-94548285D01*
X178044093Y-93980000D01*
X177931054Y-93411715D01*
X177609147Y-92929946D01*
X177279974Y-92710000D01*
X177609147Y-92490054D01*
X177931054Y-92008285D01*
X178044093Y-91440000D01*
X177931054Y-90871715D01*
X177609147Y-90389946D01*
X177127378Y-90068039D01*
X176559093Y-89955000D01*
X176500907Y-89955000D01*
X175932622Y-90068039D01*
X175450853Y-90389946D01*
X175450029Y-90391179D01*
X175443162Y-90354683D01*
X175304090Y-90138559D01*
X175091890Y-89993569D01*
X174840000Y-89942560D01*
X173140000Y-89942560D01*
X172904683Y-89986838D01*
X172688559Y-90125910D01*
X172543569Y-90338110D01*
X172492560Y-90590000D01*
X172492560Y-92290000D01*
X172536838Y-92525317D01*
X172675910Y-92741441D01*
X172888110Y-92886431D01*
X172955541Y-92900086D01*
X172910853Y-92929946D01*
X172588946Y-93411715D01*
X172475907Y-93980000D01*
X115634322Y-93980000D01*
X115614090Y-93948559D01*
X115401890Y-93803569D01*
X115150000Y-93752560D01*
X113450000Y-93752560D01*
X113214683Y-93796838D01*
X112998559Y-93935910D01*
X112853569Y-94148110D01*
X112802560Y-94400000D01*
X112802560Y-96100000D01*
X112846838Y-96335317D01*
X112985910Y-96551441D01*
X113198110Y-96696431D01*
X113265541Y-96710086D01*
X113220853Y-96739946D01*
X112898946Y-97221715D01*
X112785907Y-97790000D01*
X112470000Y-97790000D01*
X112470000Y-80925000D01*
X112942560Y-80925000D01*
X112942560Y-82905000D01*
X112986838Y-83140317D01*
X113125910Y-83356441D01*
X113338110Y-83501431D01*
X113590000Y-83552440D01*
X117550000Y-83552440D01*
X117785317Y-83508162D01*
X118001441Y-83369090D01*
X118146431Y-83156890D01*
X118197440Y-82905000D01*
X118197440Y-81565750D01*
X136945000Y-81565750D01*
X136945000Y-82256309D01*
X137041673Y-82489698D01*
X137220301Y-82668327D01*
X137453690Y-82765000D01*
X138144250Y-82765000D01*
X138303000Y-82606250D01*
X138303000Y-81407000D01*
X138557000Y-81407000D01*
X138557000Y-82606250D01*
X138715750Y-82765000D01*
X139406310Y-82765000D01*
X139639699Y-82668327D01*
X139818327Y-82489698D01*
X139905136Y-82280122D01*
X140203076Y-82551645D01*
X140613110Y-82721476D01*
X140843000Y-82600155D01*
X140843000Y-81407000D01*
X141097000Y-81407000D01*
X141097000Y-82600155D01*
X141326890Y-82721476D01*
X141736924Y-82551645D01*
X142165183Y-82161358D01*
X142240000Y-82002046D01*
X142314817Y-82161358D01*
X142743076Y-82551645D01*
X143153110Y-82721476D01*
X143383000Y-82600155D01*
X143383000Y-81407000D01*
X143637000Y-81407000D01*
X143637000Y-82600155D01*
X143866890Y-82721476D01*
X144276924Y-82551645D01*
X144705183Y-82161358D01*
X144780000Y-82002046D01*
X144854817Y-82161358D01*
X145283076Y-82551645D01*
X145693110Y-82721476D01*
X145923000Y-82600155D01*
X145923000Y-81407000D01*
X146177000Y-81407000D01*
X146177000Y-82600155D01*
X146406890Y-82721476D01*
X146816924Y-82551645D01*
X147245183Y-82161358D01*
X147320000Y-82002046D01*
X147394817Y-82161358D01*
X147823076Y-82551645D01*
X148233110Y-82721476D01*
X148463000Y-82600155D01*
X148463000Y-81407000D01*
X148717000Y-81407000D01*
X148717000Y-82600155D01*
X148946890Y-82721476D01*
X149356924Y-82551645D01*
X149785183Y-82161358D01*
X149860000Y-82002046D01*
X149934817Y-82161358D01*
X150363076Y-82551645D01*
X150773110Y-82721476D01*
X151003000Y-82600155D01*
X151003000Y-81407000D01*
X151257000Y-81407000D01*
X151257000Y-82600155D01*
X151486890Y-82721476D01*
X151896924Y-82551645D01*
X152325183Y-82161358D01*
X152571486Y-81636892D01*
X152450819Y-81407000D01*
X151257000Y-81407000D01*
X151003000Y-81407000D01*
X148717000Y-81407000D01*
X148463000Y-81407000D01*
X146177000Y-81407000D01*
X145923000Y-81407000D01*
X143637000Y-81407000D01*
X143383000Y-81407000D01*
X141097000Y-81407000D01*
X140843000Y-81407000D01*
X138557000Y-81407000D01*
X138303000Y-81407000D01*
X137103750Y-81407000D01*
X136945000Y-81565750D01*
X118197440Y-81565750D01*
X118197440Y-80925000D01*
X118153162Y-80689683D01*
X118014090Y-80473559D01*
X117801890Y-80328569D01*
X117679039Y-80303691D01*
X136945000Y-80303691D01*
X136945000Y-80994250D01*
X137103750Y-81153000D01*
X138303000Y-81153000D01*
X138303000Y-79953750D01*
X138557000Y-79953750D01*
X138557000Y-81153000D01*
X140843000Y-81153000D01*
X140843000Y-79959845D01*
X141097000Y-79959845D01*
X141097000Y-81153000D01*
X143383000Y-81153000D01*
X143383000Y-79959845D01*
X143637000Y-79959845D01*
X143637000Y-81153000D01*
X145923000Y-81153000D01*
X145923000Y-79959845D01*
X146177000Y-79959845D01*
X146177000Y-81153000D01*
X148463000Y-81153000D01*
X148463000Y-79959845D01*
X148717000Y-79959845D01*
X148717000Y-81153000D01*
X151003000Y-81153000D01*
X151003000Y-79959845D01*
X151257000Y-79959845D01*
X151257000Y-81153000D01*
X152450819Y-81153000D01*
X152571486Y-80923108D01*
X152325183Y-80398642D01*
X151896924Y-80008355D01*
X151486890Y-79838524D01*
X151257000Y-79959845D01*
X151003000Y-79959845D01*
X150773110Y-79838524D01*
X150363076Y-80008355D01*
X149934817Y-80398642D01*
X149860000Y-80557954D01*
X149785183Y-80398642D01*
X149356924Y-80008355D01*
X148946890Y-79838524D01*
X148717000Y-79959845D01*
X148463000Y-79959845D01*
X148233110Y-79838524D01*
X147823076Y-80008355D01*
X147394817Y-80398642D01*
X147320000Y-80557954D01*
X147245183Y-80398642D01*
X146816924Y-80008355D01*
X146406890Y-79838524D01*
X146177000Y-79959845D01*
X145923000Y-79959845D01*
X145693110Y-79838524D01*
X145283076Y-80008355D01*
X144854817Y-80398642D01*
X144780000Y-80557954D01*
X144705183Y-80398642D01*
X144276924Y-80008355D01*
X143866890Y-79838524D01*
X143637000Y-79959845D01*
X143383000Y-79959845D01*
X143153110Y-79838524D01*
X142743076Y-80008355D01*
X142314817Y-80398642D01*
X142240000Y-80557954D01*
X142165183Y-80398642D01*
X141736924Y-80008355D01*
X141326890Y-79838524D01*
X141097000Y-79959845D01*
X140843000Y-79959845D01*
X140613110Y-79838524D01*
X140203076Y-80008355D01*
X139905136Y-80279878D01*
X139818327Y-80070302D01*
X139639699Y-79891673D01*
X139406310Y-79795000D01*
X138715750Y-79795000D01*
X138557000Y-79953750D01*
X138303000Y-79953750D01*
X138144250Y-79795000D01*
X137453690Y-79795000D01*
X137220301Y-79891673D01*
X137041673Y-80070302D01*
X136945000Y-80303691D01*
X117679039Y-80303691D01*
X117550000Y-80277560D01*
X113590000Y-80277560D01*
X113354683Y-80321838D01*
X113138559Y-80460910D01*
X112993569Y-80673110D01*
X112942560Y-80925000D01*
X112470000Y-80925000D01*
X112470000Y-79160000D01*
X187097560Y-79160000D01*
X187097560Y-80860000D01*
X187141838Y-81095317D01*
X187280910Y-81311441D01*
X187493110Y-81456431D01*
X187745000Y-81507440D01*
X189445000Y-81507440D01*
X189680317Y-81463162D01*
X189896441Y-81324090D01*
X190041431Y-81111890D01*
X190055086Y-81044459D01*
X190084946Y-81089147D01*
X190566715Y-81411054D01*
X191135000Y-81524093D01*
X191703285Y-81411054D01*
X192185054Y-81089147D01*
X192405000Y-80759974D01*
X192624946Y-81089147D01*
X193106715Y-81411054D01*
X193675000Y-81524093D01*
X194243285Y-81411054D01*
X194725054Y-81089147D01*
X194945000Y-80759974D01*
X195164946Y-81089147D01*
X195646715Y-81411054D01*
X196215000Y-81524093D01*
X196783285Y-81411054D01*
X197265054Y-81089147D01*
X197586961Y-80607378D01*
X197700000Y-80039093D01*
X197700000Y-79980907D01*
X197586961Y-79412622D01*
X197265054Y-78930853D01*
X196981899Y-78741655D01*
X196981924Y-78741645D01*
X197410183Y-78351358D01*
X197656486Y-77826892D01*
X197535819Y-77597000D01*
X196342000Y-77597000D01*
X196342000Y-77617000D01*
X196088000Y-77617000D01*
X196088000Y-77597000D01*
X193802000Y-77597000D01*
X193802000Y-77617000D01*
X193548000Y-77617000D01*
X193548000Y-77597000D01*
X191262000Y-77597000D01*
X191262000Y-77617000D01*
X191008000Y-77617000D01*
X191008000Y-77597000D01*
X188722000Y-77597000D01*
X188722000Y-77617000D01*
X188468000Y-77617000D01*
X188468000Y-77597000D01*
X187268750Y-77597000D01*
X187110000Y-77755750D01*
X187110000Y-78446309D01*
X187206673Y-78679698D01*
X187264871Y-78737896D01*
X187148569Y-78908110D01*
X187097560Y-79160000D01*
X112470000Y-79160000D01*
X112470000Y-75350000D01*
X136932560Y-75350000D01*
X136932560Y-77050000D01*
X136976838Y-77285317D01*
X137115910Y-77501441D01*
X137328110Y-77646431D01*
X137580000Y-77697440D01*
X139280000Y-77697440D01*
X139515317Y-77653162D01*
X139731441Y-77514090D01*
X139876431Y-77301890D01*
X139890086Y-77234459D01*
X139919946Y-77279147D01*
X140401715Y-77601054D01*
X140970000Y-77714093D01*
X141538285Y-77601054D01*
X142020054Y-77279147D01*
X142240000Y-76949974D01*
X142459946Y-77279147D01*
X142941715Y-77601054D01*
X143510000Y-77714093D01*
X144078285Y-77601054D01*
X144560054Y-77279147D01*
X144780000Y-76949974D01*
X144999946Y-77279147D01*
X145481715Y-77601054D01*
X146050000Y-77714093D01*
X146618285Y-77601054D01*
X147100054Y-77279147D01*
X147320000Y-76949974D01*
X147539946Y-77279147D01*
X148021715Y-77601054D01*
X148590000Y-77714093D01*
X149158285Y-77601054D01*
X149640054Y-77279147D01*
X149860000Y-76949974D01*
X150079946Y-77279147D01*
X150561715Y-77601054D01*
X151130000Y-77714093D01*
X151698285Y-77601054D01*
X152180054Y-77279147D01*
X152501961Y-76797378D01*
X152615000Y-76229093D01*
X152615000Y-76170907D01*
X152501961Y-75602622D01*
X152180054Y-75120853D01*
X151850881Y-74900907D01*
X187110000Y-74900907D01*
X187110000Y-74959093D01*
X187223039Y-75527378D01*
X187544946Y-76009147D01*
X187550858Y-76013097D01*
X187385301Y-76081673D01*
X187206673Y-76260302D01*
X187110000Y-76493691D01*
X187110000Y-77184250D01*
X187268750Y-77343000D01*
X188468000Y-77343000D01*
X188468000Y-77323000D01*
X188722000Y-77323000D01*
X188722000Y-77343000D01*
X191008000Y-77343000D01*
X191008000Y-77323000D01*
X191262000Y-77323000D01*
X191262000Y-77343000D01*
X193548000Y-77343000D01*
X193548000Y-77323000D01*
X193802000Y-77323000D01*
X193802000Y-77343000D01*
X196088000Y-77343000D01*
X196088000Y-77323000D01*
X196342000Y-77323000D01*
X196342000Y-77343000D01*
X197535819Y-77343000D01*
X197656486Y-77113108D01*
X197410183Y-76588642D01*
X197204496Y-76401192D01*
X197300317Y-76383162D01*
X197516441Y-76244090D01*
X197661431Y-76031890D01*
X197712440Y-75780000D01*
X197712440Y-74080000D01*
X197668162Y-73844683D01*
X197549322Y-73660000D01*
X202955907Y-73660000D01*
X203068946Y-74228285D01*
X203390853Y-74710054D01*
X203720026Y-74930000D01*
X203390853Y-75149946D01*
X203068946Y-75631715D01*
X202955907Y-76200000D01*
X203068946Y-76768285D01*
X203390853Y-77250054D01*
X203720026Y-77470000D01*
X203390853Y-77689946D01*
X203068946Y-78171715D01*
X202955907Y-78740000D01*
X203068946Y-79308285D01*
X203390853Y-79790054D01*
X203720026Y-80010000D01*
X203390853Y-80229946D01*
X203068946Y-80711715D01*
X202955907Y-81280000D01*
X203068946Y-81848285D01*
X203390853Y-82330054D01*
X203720026Y-82550000D01*
X203390853Y-82769946D01*
X203068946Y-83251715D01*
X202955907Y-83820000D01*
X203068946Y-84388285D01*
X203390853Y-84870054D01*
X203720026Y-85090000D01*
X203390853Y-85309946D01*
X203068946Y-85791715D01*
X202955907Y-86360000D01*
X203068946Y-86928285D01*
X203390853Y-87410054D01*
X203720026Y-87630000D01*
X203390853Y-87849946D01*
X203068946Y-88331715D01*
X202955907Y-88900000D01*
X203068946Y-89468285D01*
X203390853Y-89950054D01*
X203720026Y-90170000D01*
X203390853Y-90389946D01*
X203068946Y-90871715D01*
X202955907Y-91440000D01*
X203068946Y-92008285D01*
X203390853Y-92490054D01*
X203720026Y-92710000D01*
X203390853Y-92929946D01*
X203068946Y-93411715D01*
X202955907Y-93980000D01*
X203068946Y-94548285D01*
X203390853Y-95030054D01*
X203720026Y-95250000D01*
X203390853Y-95469946D01*
X203068946Y-95951715D01*
X202955907Y-96520000D01*
X203068946Y-97088285D01*
X203390853Y-97570054D01*
X203720026Y-97790000D01*
X203390853Y-98009946D01*
X203068946Y-98491715D01*
X202955907Y-99060000D01*
X203068946Y-99628285D01*
X203390853Y-100110054D01*
X203720026Y-100330000D01*
X203390853Y-100549946D01*
X203068946Y-101031715D01*
X202955907Y-101600000D01*
X203068946Y-102168285D01*
X203390853Y-102650054D01*
X203720026Y-102870000D01*
X203390853Y-103089946D01*
X203068946Y-103571715D01*
X202955907Y-104140000D01*
X203068946Y-104708285D01*
X203390853Y-105190054D01*
X203720026Y-105410000D01*
X203390853Y-105629946D01*
X203068946Y-106111715D01*
X202955907Y-106680000D01*
X203068946Y-107248285D01*
X203390853Y-107730054D01*
X203720026Y-107950000D01*
X203390853Y-108169946D01*
X203068946Y-108651715D01*
X202955907Y-109220000D01*
X203068946Y-109788285D01*
X203390853Y-110270054D01*
X203720026Y-110490000D01*
X203390853Y-110709946D01*
X203068946Y-111191715D01*
X202955907Y-111760000D01*
X203068946Y-112328285D01*
X203390853Y-112810054D01*
X203720026Y-113030000D01*
X203390853Y-113249946D01*
X203068946Y-113731715D01*
X202955907Y-114300000D01*
X203068946Y-114868285D01*
X203390853Y-115350054D01*
X203872622Y-115671961D01*
X204440907Y-115785000D01*
X204499093Y-115785000D01*
X205067378Y-115671961D01*
X205549147Y-115350054D01*
X205738345Y-115066899D01*
X205738355Y-115066924D01*
X206128642Y-115495183D01*
X206653108Y-115741486D01*
X206883000Y-115620819D01*
X206883000Y-114427000D01*
X207137000Y-114427000D01*
X207137000Y-115620819D01*
X207366892Y-115741486D01*
X207891358Y-115495183D01*
X208281645Y-115066924D01*
X208451476Y-114656890D01*
X208330155Y-114427000D01*
X207137000Y-114427000D01*
X206883000Y-114427000D01*
X206863000Y-114427000D01*
X206863000Y-114173000D01*
X206883000Y-114173000D01*
X206883000Y-114153000D01*
X207137000Y-114153000D01*
X207137000Y-114173000D01*
X208330155Y-114173000D01*
X208451476Y-113943110D01*
X208281645Y-113533076D01*
X207891358Y-113104817D01*
X207748447Y-113037702D01*
X208089147Y-112810054D01*
X208411054Y-112328285D01*
X208524093Y-111760000D01*
X208411054Y-111191715D01*
X208089147Y-110709946D01*
X207759974Y-110490000D01*
X208089147Y-110270054D01*
X208411054Y-109788285D01*
X208524093Y-109220000D01*
X208411054Y-108651715D01*
X208089147Y-108169946D01*
X207759974Y-107950000D01*
X208089147Y-107730054D01*
X208411054Y-107248285D01*
X208524093Y-106680000D01*
X208411054Y-106111715D01*
X208089147Y-105629946D01*
X207759974Y-105410000D01*
X208089147Y-105190054D01*
X208411054Y-104708285D01*
X208524093Y-104140000D01*
X208471382Y-103875000D01*
X211177560Y-103875000D01*
X211177560Y-105675000D01*
X211221838Y-105910317D01*
X211360910Y-106126441D01*
X211573110Y-106271431D01*
X211825000Y-106322440D01*
X213625000Y-106322440D01*
X213860317Y-106278162D01*
X214076441Y-106139090D01*
X214221431Y-105926890D01*
X214272440Y-105675000D01*
X214272440Y-103875000D01*
X214228162Y-103639683D01*
X214089090Y-103423559D01*
X213876890Y-103278569D01*
X213860656Y-103275281D01*
X214143155Y-102852491D01*
X214260000Y-102265072D01*
X214260000Y-102204928D01*
X214143155Y-101617509D01*
X213810409Y-101119519D01*
X213572418Y-100960499D01*
X213962966Y-100602576D01*
X214216046Y-100059742D01*
X214168336Y-99965258D01*
X218853954Y-99965258D01*
X218974003Y-100203000D01*
X220218000Y-100203000D01*
X220218000Y-98959622D01*
X220472000Y-98959622D01*
X220472000Y-100203000D01*
X221715997Y-100203000D01*
X221836046Y-99965258D01*
X221582966Y-99422424D01*
X221141417Y-99017760D01*
X220709740Y-98838964D01*
X220472000Y-98959622D01*
X220218000Y-98959622D01*
X219980260Y-98838964D01*
X219548583Y-99017760D01*
X219107034Y-99422424D01*
X218853954Y-99965258D01*
X214168336Y-99965258D01*
X214095997Y-99822000D01*
X212852000Y-99822000D01*
X212852000Y-99842000D01*
X212598000Y-99842000D01*
X212598000Y-99822000D01*
X211354003Y-99822000D01*
X211233954Y-100059742D01*
X211487034Y-100602576D01*
X211877582Y-100960499D01*
X211639591Y-101119519D01*
X211306845Y-101617509D01*
X211190000Y-102204928D01*
X211190000Y-102265072D01*
X211306845Y-102852491D01*
X211587837Y-103273026D01*
X211373559Y-103410910D01*
X211228569Y-103623110D01*
X211177560Y-103875000D01*
X208471382Y-103875000D01*
X208411054Y-103571715D01*
X208089147Y-103089946D01*
X207759974Y-102870000D01*
X208089147Y-102650054D01*
X208411054Y-102168285D01*
X208524093Y-101600000D01*
X208411054Y-101031715D01*
X208089147Y-100549946D01*
X207759974Y-100330000D01*
X208089147Y-100110054D01*
X208411054Y-99628285D01*
X208470335Y-99330258D01*
X211233954Y-99330258D01*
X211354003Y-99568000D01*
X212598000Y-99568000D01*
X212598000Y-98324622D01*
X212852000Y-98324622D01*
X212852000Y-99568000D01*
X214095997Y-99568000D01*
X214216046Y-99330258D01*
X213962966Y-98787424D01*
X213521417Y-98382760D01*
X213089740Y-98203964D01*
X212852000Y-98324622D01*
X212598000Y-98324622D01*
X212360260Y-98203964D01*
X211928583Y-98382760D01*
X211487034Y-98787424D01*
X211233954Y-99330258D01*
X208470335Y-99330258D01*
X208524093Y-99060000D01*
X208411054Y-98491715D01*
X208089147Y-98009946D01*
X207759974Y-97790000D01*
X208089147Y-97570054D01*
X208411054Y-97088285D01*
X208524093Y-96520000D01*
X208411054Y-95951715D01*
X208089147Y-95469946D01*
X207759974Y-95250000D01*
X208089147Y-95030054D01*
X208411054Y-94548285D01*
X208524093Y-93980000D01*
X208471382Y-93715000D01*
X218797560Y-93715000D01*
X218797560Y-95515000D01*
X218841838Y-95750317D01*
X218980910Y-95966441D01*
X219193110Y-96111431D01*
X219445000Y-96162440D01*
X221245000Y-96162440D01*
X221480317Y-96118162D01*
X221696441Y-95979090D01*
X221841431Y-95766890D01*
X221892440Y-95515000D01*
X221892440Y-93715000D01*
X221848162Y-93479683D01*
X221709090Y-93263559D01*
X221496890Y-93118569D01*
X221480656Y-93115281D01*
X221763155Y-92692491D01*
X221880000Y-92105072D01*
X221880000Y-92044928D01*
X221763155Y-91457509D01*
X221430409Y-90959519D01*
X221192418Y-90800499D01*
X221582966Y-90442576D01*
X221836046Y-89899742D01*
X221715997Y-89662000D01*
X220472000Y-89662000D01*
X220472000Y-89682000D01*
X220218000Y-89682000D01*
X220218000Y-89662000D01*
X218974003Y-89662000D01*
X218853954Y-89899742D01*
X219107034Y-90442576D01*
X219497582Y-90800499D01*
X219259591Y-90959519D01*
X218926845Y-91457509D01*
X218810000Y-92044928D01*
X218810000Y-92105072D01*
X218926845Y-92692491D01*
X219207837Y-93113026D01*
X218993559Y-93250910D01*
X218848569Y-93463110D01*
X218797560Y-93715000D01*
X208471382Y-93715000D01*
X208411054Y-93411715D01*
X208089147Y-92929946D01*
X207748447Y-92702298D01*
X207891358Y-92635183D01*
X208281645Y-92206924D01*
X208451476Y-91796890D01*
X208330155Y-91567000D01*
X207137000Y-91567000D01*
X207137000Y-91587000D01*
X206883000Y-91587000D01*
X206883000Y-91567000D01*
X206863000Y-91567000D01*
X206863000Y-91313000D01*
X206883000Y-91313000D01*
X206883000Y-91293000D01*
X207137000Y-91293000D01*
X207137000Y-91313000D01*
X208330155Y-91313000D01*
X208451476Y-91083110D01*
X208281645Y-90673076D01*
X207891358Y-90244817D01*
X207748447Y-90177702D01*
X208089147Y-89950054D01*
X208411054Y-89468285D01*
X208470335Y-89170258D01*
X218853954Y-89170258D01*
X218974003Y-89408000D01*
X220218000Y-89408000D01*
X220218000Y-88164622D01*
X220472000Y-88164622D01*
X220472000Y-89408000D01*
X221715997Y-89408000D01*
X221836046Y-89170258D01*
X221582966Y-88627424D01*
X221141417Y-88222760D01*
X220709740Y-88043964D01*
X220472000Y-88164622D01*
X220218000Y-88164622D01*
X219980260Y-88043964D01*
X219548583Y-88222760D01*
X219107034Y-88627424D01*
X218853954Y-89170258D01*
X208470335Y-89170258D01*
X208524093Y-88900000D01*
X208411054Y-88331715D01*
X208089147Y-87849946D01*
X207759974Y-87630000D01*
X208089147Y-87410054D01*
X208411054Y-86928285D01*
X208524093Y-86360000D01*
X208411054Y-85791715D01*
X208089147Y-85309946D01*
X207759974Y-85090000D01*
X208089147Y-84870054D01*
X208411054Y-84388285D01*
X208524093Y-83820000D01*
X208411054Y-83251715D01*
X208189410Y-82920000D01*
X218797560Y-82920000D01*
X218797560Y-84720000D01*
X218841838Y-84955317D01*
X218980910Y-85171441D01*
X219193110Y-85316431D01*
X219445000Y-85367440D01*
X221245000Y-85367440D01*
X221480317Y-85323162D01*
X221696441Y-85184090D01*
X221841431Y-84971890D01*
X221892440Y-84720000D01*
X221892440Y-82920000D01*
X221848162Y-82684683D01*
X221709090Y-82468559D01*
X221496890Y-82323569D01*
X221480656Y-82320281D01*
X221763155Y-81897491D01*
X221880000Y-81310072D01*
X221880000Y-81249928D01*
X221763155Y-80662509D01*
X221430409Y-80164519D01*
X221192418Y-80005499D01*
X221582966Y-79647576D01*
X221836046Y-79104742D01*
X221715997Y-78867000D01*
X220472000Y-78867000D01*
X220472000Y-78887000D01*
X220218000Y-78887000D01*
X220218000Y-78867000D01*
X218974003Y-78867000D01*
X218853954Y-79104742D01*
X219107034Y-79647576D01*
X219497582Y-80005499D01*
X219259591Y-80164519D01*
X218926845Y-80662509D01*
X218810000Y-81249928D01*
X218810000Y-81310072D01*
X218926845Y-81897491D01*
X219207837Y-82318026D01*
X218993559Y-82455910D01*
X218848569Y-82668110D01*
X218797560Y-82920000D01*
X208189410Y-82920000D01*
X208089147Y-82769946D01*
X207759974Y-82550000D01*
X208089147Y-82330054D01*
X208411054Y-81848285D01*
X208524093Y-81280000D01*
X208411054Y-80711715D01*
X208089147Y-80229946D01*
X207759974Y-80010000D01*
X208089147Y-79790054D01*
X208411054Y-79308285D01*
X208524093Y-78740000D01*
X208451542Y-78375258D01*
X218853954Y-78375258D01*
X218974003Y-78613000D01*
X220218000Y-78613000D01*
X220218000Y-77369622D01*
X220472000Y-77369622D01*
X220472000Y-78613000D01*
X221715997Y-78613000D01*
X221836046Y-78375258D01*
X221582966Y-77832424D01*
X221141417Y-77427760D01*
X220709740Y-77248964D01*
X220472000Y-77369622D01*
X220218000Y-77369622D01*
X219980260Y-77248964D01*
X219548583Y-77427760D01*
X219107034Y-77832424D01*
X218853954Y-78375258D01*
X208451542Y-78375258D01*
X208411054Y-78171715D01*
X208089147Y-77689946D01*
X207759974Y-77470000D01*
X208089147Y-77250054D01*
X208411054Y-76768285D01*
X208524093Y-76200000D01*
X208411054Y-75631715D01*
X208089147Y-75149946D01*
X207759974Y-74930000D01*
X208089147Y-74710054D01*
X208411054Y-74228285D01*
X208524093Y-73660000D01*
X208411054Y-73091715D01*
X208089147Y-72609946D01*
X207759974Y-72390000D01*
X208089147Y-72170054D01*
X208411054Y-71688285D01*
X208450495Y-71490000D01*
X218797560Y-71490000D01*
X218797560Y-73290000D01*
X218841838Y-73525317D01*
X218980910Y-73741441D01*
X219193110Y-73886431D01*
X219445000Y-73937440D01*
X221245000Y-73937440D01*
X221480317Y-73893162D01*
X221696441Y-73754090D01*
X221841431Y-73541890D01*
X221892440Y-73290000D01*
X221892440Y-71490000D01*
X221848162Y-71254683D01*
X221709090Y-71038559D01*
X221496890Y-70893569D01*
X221480656Y-70890281D01*
X221763155Y-70467491D01*
X221880000Y-69880072D01*
X221880000Y-69819928D01*
X221763155Y-69232509D01*
X221430409Y-68734519D01*
X221192418Y-68575499D01*
X221582966Y-68217576D01*
X221836046Y-67674742D01*
X221715997Y-67437000D01*
X220472000Y-67437000D01*
X220472000Y-67457000D01*
X220218000Y-67457000D01*
X220218000Y-67437000D01*
X218974003Y-67437000D01*
X218853954Y-67674742D01*
X219107034Y-68217576D01*
X219497582Y-68575499D01*
X219259591Y-68734519D01*
X218926845Y-69232509D01*
X218810000Y-69819928D01*
X218810000Y-69880072D01*
X218926845Y-70467491D01*
X219207837Y-70888026D01*
X218993559Y-71025910D01*
X218848569Y-71238110D01*
X218797560Y-71490000D01*
X208450495Y-71490000D01*
X208524093Y-71120000D01*
X208411054Y-70551715D01*
X208089147Y-70069946D01*
X207607378Y-69748039D01*
X207039093Y-69635000D01*
X206980907Y-69635000D01*
X206412622Y-69748039D01*
X205930853Y-70069946D01*
X205930029Y-70071179D01*
X205923162Y-70034683D01*
X205784090Y-69818559D01*
X205571890Y-69673569D01*
X205320000Y-69622560D01*
X203620000Y-69622560D01*
X203384683Y-69666838D01*
X203168559Y-69805910D01*
X203023569Y-70018110D01*
X202972560Y-70270000D01*
X202972560Y-71970000D01*
X203016838Y-72205317D01*
X203155910Y-72421441D01*
X203368110Y-72566431D01*
X203435541Y-72580086D01*
X203390853Y-72609946D01*
X203068946Y-73091715D01*
X202955907Y-73660000D01*
X197549322Y-73660000D01*
X197529090Y-73628559D01*
X197316890Y-73483569D01*
X197065000Y-73432560D01*
X195365000Y-73432560D01*
X195129683Y-73476838D01*
X194913559Y-73615910D01*
X194768569Y-73828110D01*
X194754914Y-73895541D01*
X194725054Y-73850853D01*
X194243285Y-73528946D01*
X193675000Y-73415907D01*
X193106715Y-73528946D01*
X192624946Y-73850853D01*
X192405000Y-74180026D01*
X192185054Y-73850853D01*
X191703285Y-73528946D01*
X191135000Y-73415907D01*
X190566715Y-73528946D01*
X190084946Y-73850853D01*
X189865000Y-74180026D01*
X189645054Y-73850853D01*
X189163285Y-73528946D01*
X188595000Y-73415907D01*
X188026715Y-73528946D01*
X187544946Y-73850853D01*
X187223039Y-74332622D01*
X187110000Y-74900907D01*
X151850881Y-74900907D01*
X151698285Y-74798946D01*
X151130000Y-74685907D01*
X150561715Y-74798946D01*
X150079946Y-75120853D01*
X149860000Y-75450026D01*
X149640054Y-75120853D01*
X149158285Y-74798946D01*
X148590000Y-74685907D01*
X148021715Y-74798946D01*
X147539946Y-75120853D01*
X147320000Y-75450026D01*
X147100054Y-75120853D01*
X146618285Y-74798946D01*
X146050000Y-74685907D01*
X145481715Y-74798946D01*
X144999946Y-75120853D01*
X144780000Y-75450026D01*
X144560054Y-75120853D01*
X144078285Y-74798946D01*
X143510000Y-74685907D01*
X142941715Y-74798946D01*
X142459946Y-75120853D01*
X142240000Y-75450026D01*
X142020054Y-75120853D01*
X141538285Y-74798946D01*
X140970000Y-74685907D01*
X140401715Y-74798946D01*
X139919946Y-75120853D01*
X139892150Y-75162452D01*
X139883162Y-75114683D01*
X139744090Y-74898559D01*
X139531890Y-74753569D01*
X139280000Y-74702560D01*
X137580000Y-74702560D01*
X137344683Y-74746838D01*
X137128559Y-74885910D01*
X136983569Y-75098110D01*
X136932560Y-75350000D01*
X112470000Y-75350000D01*
X112470000Y-71090907D01*
X127674000Y-71090907D01*
X127674000Y-71149093D01*
X127787039Y-71717378D01*
X128108946Y-72199147D01*
X128590715Y-72521054D01*
X129159000Y-72634093D01*
X129727285Y-72521054D01*
X130209054Y-72199147D01*
X130429000Y-71869974D01*
X130648946Y-72199147D01*
X131130715Y-72521054D01*
X131699000Y-72634093D01*
X132267285Y-72521054D01*
X132749054Y-72199147D01*
X132969000Y-71869974D01*
X133188946Y-72199147D01*
X133670715Y-72521054D01*
X134239000Y-72634093D01*
X134807285Y-72521054D01*
X135289054Y-72199147D01*
X135516702Y-71858447D01*
X135583817Y-72001358D01*
X136012076Y-72391645D01*
X136422110Y-72561476D01*
X136652000Y-72440155D01*
X136652000Y-71247000D01*
X136632000Y-71247000D01*
X136632000Y-70993000D01*
X136652000Y-70993000D01*
X136652000Y-69799845D01*
X136906000Y-69799845D01*
X136906000Y-70993000D01*
X136926000Y-70993000D01*
X136926000Y-71247000D01*
X136906000Y-71247000D01*
X136906000Y-72440155D01*
X137135890Y-72561476D01*
X137545924Y-72391645D01*
X137974183Y-72001358D01*
X138041298Y-71858447D01*
X138268946Y-72199147D01*
X138750715Y-72521054D01*
X139319000Y-72634093D01*
X139887285Y-72521054D01*
X140369054Y-72199147D01*
X140589000Y-71869974D01*
X140808946Y-72199147D01*
X141290715Y-72521054D01*
X141859000Y-72634093D01*
X142427285Y-72521054D01*
X142909054Y-72199147D01*
X143129000Y-71869974D01*
X143348946Y-72199147D01*
X143830715Y-72521054D01*
X144399000Y-72634093D01*
X144967285Y-72521054D01*
X145449054Y-72199147D01*
X145669000Y-71869974D01*
X145888946Y-72199147D01*
X146370715Y-72521054D01*
X146939000Y-72634093D01*
X147507285Y-72521054D01*
X147989054Y-72199147D01*
X148209000Y-71869974D01*
X148428946Y-72199147D01*
X148910715Y-72521054D01*
X149479000Y-72634093D01*
X150047285Y-72521054D01*
X150529054Y-72199147D01*
X150556850Y-72157548D01*
X150565838Y-72205317D01*
X150704910Y-72421441D01*
X150917110Y-72566431D01*
X151169000Y-72617440D01*
X152869000Y-72617440D01*
X153104317Y-72573162D01*
X153320441Y-72434090D01*
X153465431Y-72221890D01*
X153516440Y-71970000D01*
X153516440Y-71090907D01*
X154598000Y-71090907D01*
X154598000Y-71149093D01*
X154711039Y-71717378D01*
X155032946Y-72199147D01*
X155514715Y-72521054D01*
X156083000Y-72634093D01*
X156651285Y-72521054D01*
X157133054Y-72199147D01*
X157353000Y-71869974D01*
X157572946Y-72199147D01*
X158054715Y-72521054D01*
X158623000Y-72634093D01*
X159191285Y-72521054D01*
X159673054Y-72199147D01*
X159893000Y-71869974D01*
X160112946Y-72199147D01*
X160594715Y-72521054D01*
X161163000Y-72634093D01*
X161731285Y-72521054D01*
X162213054Y-72199147D01*
X162433000Y-71869974D01*
X162652946Y-72199147D01*
X163134715Y-72521054D01*
X163703000Y-72634093D01*
X164271285Y-72521054D01*
X164753054Y-72199147D01*
X164973000Y-71869974D01*
X165192946Y-72199147D01*
X165674715Y-72521054D01*
X166243000Y-72634093D01*
X166811285Y-72521054D01*
X167293054Y-72199147D01*
X167513000Y-71869974D01*
X167732946Y-72199147D01*
X168214715Y-72521054D01*
X168783000Y-72634093D01*
X169351285Y-72521054D01*
X169833054Y-72199147D01*
X170053000Y-71869974D01*
X170272946Y-72199147D01*
X170754715Y-72521054D01*
X171323000Y-72634093D01*
X171891285Y-72521054D01*
X172373054Y-72199147D01*
X172400850Y-72157548D01*
X172409838Y-72205317D01*
X172548910Y-72421441D01*
X172761110Y-72566431D01*
X173013000Y-72617440D01*
X174713000Y-72617440D01*
X174948317Y-72573162D01*
X175164441Y-72434090D01*
X175309431Y-72221890D01*
X175360440Y-71970000D01*
X175360440Y-71090907D01*
X177458000Y-71090907D01*
X177458000Y-71149093D01*
X177571039Y-71717378D01*
X177892946Y-72199147D01*
X178374715Y-72521054D01*
X178943000Y-72634093D01*
X179511285Y-72521054D01*
X179993054Y-72199147D01*
X180213000Y-71869974D01*
X180432946Y-72199147D01*
X180914715Y-72521054D01*
X181483000Y-72634093D01*
X182051285Y-72521054D01*
X182533054Y-72199147D01*
X182753000Y-71869974D01*
X182972946Y-72199147D01*
X183454715Y-72521054D01*
X184023000Y-72634093D01*
X184591285Y-72521054D01*
X185073054Y-72199147D01*
X185293000Y-71869974D01*
X185512946Y-72199147D01*
X185994715Y-72521054D01*
X186563000Y-72634093D01*
X187131285Y-72521054D01*
X187613054Y-72199147D01*
X187833000Y-71869974D01*
X188052946Y-72199147D01*
X188534715Y-72521054D01*
X189103000Y-72634093D01*
X189671285Y-72521054D01*
X190153054Y-72199147D01*
X190373000Y-71869974D01*
X190592946Y-72199147D01*
X191074715Y-72521054D01*
X191643000Y-72634093D01*
X192211285Y-72521054D01*
X192693054Y-72199147D01*
X192913000Y-71869974D01*
X193132946Y-72199147D01*
X193614715Y-72521054D01*
X194183000Y-72634093D01*
X194751285Y-72521054D01*
X195233054Y-72199147D01*
X195260850Y-72157548D01*
X195269838Y-72205317D01*
X195408910Y-72421441D01*
X195621110Y-72566431D01*
X195873000Y-72617440D01*
X197573000Y-72617440D01*
X197808317Y-72573162D01*
X198024441Y-72434090D01*
X198169431Y-72221890D01*
X198220440Y-71970000D01*
X198220440Y-70270000D01*
X198176162Y-70034683D01*
X198037090Y-69818559D01*
X197824890Y-69673569D01*
X197573000Y-69622560D01*
X195873000Y-69622560D01*
X195637683Y-69666838D01*
X195421559Y-69805910D01*
X195276569Y-70018110D01*
X195262914Y-70085541D01*
X195233054Y-70040853D01*
X194751285Y-69718946D01*
X194183000Y-69605907D01*
X193614715Y-69718946D01*
X193132946Y-70040853D01*
X192913000Y-70370026D01*
X192693054Y-70040853D01*
X192211285Y-69718946D01*
X191643000Y-69605907D01*
X191074715Y-69718946D01*
X190592946Y-70040853D01*
X190373000Y-70370026D01*
X190153054Y-70040853D01*
X189671285Y-69718946D01*
X189103000Y-69605907D01*
X188534715Y-69718946D01*
X188052946Y-70040853D01*
X187833000Y-70370026D01*
X187613054Y-70040853D01*
X187131285Y-69718946D01*
X186563000Y-69605907D01*
X185994715Y-69718946D01*
X185512946Y-70040853D01*
X185293000Y-70370026D01*
X185073054Y-70040853D01*
X184591285Y-69718946D01*
X184023000Y-69605907D01*
X183454715Y-69718946D01*
X182972946Y-70040853D01*
X182753000Y-70370026D01*
X182533054Y-70040853D01*
X182051285Y-69718946D01*
X181483000Y-69605907D01*
X180914715Y-69718946D01*
X180432946Y-70040853D01*
X180213000Y-70370026D01*
X179993054Y-70040853D01*
X179511285Y-69718946D01*
X178943000Y-69605907D01*
X178374715Y-69718946D01*
X177892946Y-70040853D01*
X177571039Y-70522622D01*
X177458000Y-71090907D01*
X175360440Y-71090907D01*
X175360440Y-70270000D01*
X175316162Y-70034683D01*
X175177090Y-69818559D01*
X174964890Y-69673569D01*
X174713000Y-69622560D01*
X173013000Y-69622560D01*
X172777683Y-69666838D01*
X172561559Y-69805910D01*
X172416569Y-70018110D01*
X172402914Y-70085541D01*
X172373054Y-70040853D01*
X171891285Y-69718946D01*
X171323000Y-69605907D01*
X170754715Y-69718946D01*
X170272946Y-70040853D01*
X170053000Y-70370026D01*
X169833054Y-70040853D01*
X169351285Y-69718946D01*
X168783000Y-69605907D01*
X168214715Y-69718946D01*
X167732946Y-70040853D01*
X167513000Y-70370026D01*
X167293054Y-70040853D01*
X166811285Y-69718946D01*
X166243000Y-69605907D01*
X165674715Y-69718946D01*
X165192946Y-70040853D01*
X164973000Y-70370026D01*
X164753054Y-70040853D01*
X164271285Y-69718946D01*
X163703000Y-69605907D01*
X163134715Y-69718946D01*
X162652946Y-70040853D01*
X162433000Y-70370026D01*
X162213054Y-70040853D01*
X161731285Y-69718946D01*
X161163000Y-69605907D01*
X160594715Y-69718946D01*
X160112946Y-70040853D01*
X159893000Y-70370026D01*
X159673054Y-70040853D01*
X159191285Y-69718946D01*
X158623000Y-69605907D01*
X158054715Y-69718946D01*
X157572946Y-70040853D01*
X157353000Y-70370026D01*
X157133054Y-70040853D01*
X156651285Y-69718946D01*
X156083000Y-69605907D01*
X155514715Y-69718946D01*
X155032946Y-70040853D01*
X154711039Y-70522622D01*
X154598000Y-71090907D01*
X153516440Y-71090907D01*
X153516440Y-70270000D01*
X153472162Y-70034683D01*
X153333090Y-69818559D01*
X153120890Y-69673569D01*
X152869000Y-69622560D01*
X151169000Y-69622560D01*
X150933683Y-69666838D01*
X150717559Y-69805910D01*
X150572569Y-70018110D01*
X150558914Y-70085541D01*
X150529054Y-70040853D01*
X150047285Y-69718946D01*
X149479000Y-69605907D01*
X148910715Y-69718946D01*
X148428946Y-70040853D01*
X148209000Y-70370026D01*
X147989054Y-70040853D01*
X147507285Y-69718946D01*
X146939000Y-69605907D01*
X146370715Y-69718946D01*
X145888946Y-70040853D01*
X145669000Y-70370026D01*
X145449054Y-70040853D01*
X144967285Y-69718946D01*
X144399000Y-69605907D01*
X143830715Y-69718946D01*
X143348946Y-70040853D01*
X143129000Y-70370026D01*
X142909054Y-70040853D01*
X142427285Y-69718946D01*
X141859000Y-69605907D01*
X141290715Y-69718946D01*
X140808946Y-70040853D01*
X140589000Y-70370026D01*
X140369054Y-70040853D01*
X139887285Y-69718946D01*
X139319000Y-69605907D01*
X138750715Y-69718946D01*
X138268946Y-70040853D01*
X138041298Y-70381553D01*
X137974183Y-70238642D01*
X137545924Y-69848355D01*
X137135890Y-69678524D01*
X136906000Y-69799845D01*
X136652000Y-69799845D01*
X136422110Y-69678524D01*
X136012076Y-69848355D01*
X135583817Y-70238642D01*
X135516702Y-70381553D01*
X135289054Y-70040853D01*
X134807285Y-69718946D01*
X134239000Y-69605907D01*
X133670715Y-69718946D01*
X133188946Y-70040853D01*
X132969000Y-70370026D01*
X132749054Y-70040853D01*
X132267285Y-69718946D01*
X131699000Y-69605907D01*
X131130715Y-69718946D01*
X130648946Y-70040853D01*
X130429000Y-70370026D01*
X130209054Y-70040853D01*
X129727285Y-69718946D01*
X129159000Y-69605907D01*
X128590715Y-69718946D01*
X128108946Y-70040853D01*
X127787039Y-70522622D01*
X127674000Y-71090907D01*
X112470000Y-71090907D01*
X112470000Y-66945258D01*
X218853954Y-66945258D01*
X218974003Y-67183000D01*
X220218000Y-67183000D01*
X220218000Y-65939622D01*
X220472000Y-65939622D01*
X220472000Y-67183000D01*
X221715997Y-67183000D01*
X221836046Y-66945258D01*
X221582966Y-66402424D01*
X221141417Y-65997760D01*
X220709740Y-65818964D01*
X220472000Y-65939622D01*
X220218000Y-65939622D01*
X219980260Y-65818964D01*
X219548583Y-65997760D01*
X219107034Y-66402424D01*
X218853954Y-66945258D01*
X112470000Y-66945258D01*
X112470000Y-62357000D01*
X233045000Y-62357000D01*
X233045000Y-119409923D01*
G36*
X246940000Y-126290000D02*
X233807000Y-126290000D01*
X233807000Y-123922077D01*
X235042459Y-125157536D01*
X235042461Y-125157539D01*
X235359009Y-125369049D01*
X235472608Y-125444953D01*
X235980000Y-125545881D01*
X235980005Y-125545880D01*
X239374367Y-125545880D01*
X239636908Y-125721304D01*
X240258769Y-125845000D01*
X242341231Y-125845000D01*
X242963092Y-125721304D01*
X243490280Y-125369049D01*
X243842535Y-124841861D01*
X243966231Y-124220000D01*
X243842535Y-123598139D01*
X243490280Y-123070951D01*
X242963092Y-122718696D01*
X242341231Y-122595000D01*
X240258769Y-122595000D01*
X239636908Y-122718696D01*
X239374367Y-122894120D01*
X236529197Y-122894120D01*
X233807000Y-120171923D01*
X233807000Y-114220000D01*
X238633769Y-114220000D01*
X238757465Y-114841861D01*
X239109720Y-115369049D01*
X239636908Y-115721304D01*
X240258769Y-115845000D01*
X242341231Y-115845000D01*
X242963092Y-115721304D01*
X243490280Y-115369049D01*
X243842535Y-114841861D01*
X243966231Y-114220000D01*
X243842535Y-113598139D01*
X243490280Y-113070951D01*
X242963092Y-112718696D01*
X242341231Y-112595000D01*
X240258769Y-112595000D01*
X239636908Y-112718696D01*
X239109720Y-113070951D01*
X238757465Y-113598139D01*
X238633769Y-114220000D01*
X233807000Y-114220000D01*
X233807000Y-102630000D01*
X238633769Y-102630000D01*
X238757465Y-103251861D01*
X239109720Y-103779049D01*
X239636908Y-104131304D01*
X240258769Y-104255000D01*
X242341231Y-104255000D01*
X242963092Y-104131304D01*
X243490280Y-103779049D01*
X243842535Y-103251861D01*
X243966231Y-102630000D01*
X243842535Y-102008139D01*
X243490280Y-101480951D01*
X242963092Y-101128696D01*
X242341231Y-101005000D01*
X240258769Y-101005000D01*
X239636908Y-101128696D01*
X239109720Y-101480951D01*
X238757465Y-102008139D01*
X238633769Y-102630000D01*
X233807000Y-102630000D01*
X233807000Y-92630000D01*
X238633769Y-92630000D01*
X238757465Y-93251861D01*
X239109720Y-93779049D01*
X239636908Y-94131304D01*
X240258769Y-94255000D01*
X242341231Y-94255000D01*
X242963092Y-94131304D01*
X243490280Y-93779049D01*
X243842535Y-93251861D01*
X243966231Y-92630000D01*
X243842535Y-92008139D01*
X243490280Y-91480951D01*
X242963092Y-91128696D01*
X242341231Y-91005000D01*
X240258769Y-91005000D01*
X239636908Y-91128696D01*
X239109720Y-91480951D01*
X238757465Y-92008139D01*
X238633769Y-92630000D01*
X233807000Y-92630000D01*
X233807000Y-81120000D01*
X238633769Y-81120000D01*
X238757465Y-81741861D01*
X239109720Y-82269049D01*
X239636908Y-82621304D01*
X240258769Y-82745000D01*
X242341231Y-82745000D01*
X242963092Y-82621304D01*
X243490280Y-82269049D01*
X243842535Y-81741861D01*
X243966231Y-81120000D01*
X243842535Y-80498139D01*
X243490280Y-79970951D01*
X242963092Y-79618696D01*
X242341231Y-79495000D01*
X240258769Y-79495000D01*
X239636908Y-79618696D01*
X239109720Y-79970951D01*
X238757465Y-80498139D01*
X238633769Y-81120000D01*
X233807000Y-81120000D01*
X233807000Y-71120000D01*
X238633769Y-71120000D01*
X238757465Y-71741861D01*
X239109720Y-72269049D01*
X239636908Y-72621304D01*
X240258769Y-72745000D01*
X242341231Y-72745000D01*
X242963092Y-72621304D01*
X243490280Y-72269049D01*
X243842535Y-71741861D01*
X243966231Y-71120000D01*
X243842535Y-70498139D01*
X243490280Y-69970951D01*
X242963092Y-69618696D01*
X242341231Y-69495000D01*
X240258769Y-69495000D01*
X239636908Y-69618696D01*
X239109720Y-69970951D01*
X238757465Y-70498139D01*
X238633769Y-71120000D01*
X233807000Y-71120000D01*
X233807000Y-62357000D01*
X246940000Y-62357000D01*
X246940000Y-126290000D01*
X246940000Y-126290000D01*
G37*
X246940000Y-126290000D02*
X233807000Y-126290000D01*
X233807000Y-123922077D01*
X235042459Y-125157536D01*
X235042461Y-125157539D01*
X235359009Y-125369049D01*
X235472608Y-125444953D01*
X235980000Y-125545881D01*
X235980005Y-125545880D01*
X239374367Y-125545880D01*
X239636908Y-125721304D01*
X240258769Y-125845000D01*
X242341231Y-125845000D01*
X242963092Y-125721304D01*
X243490280Y-125369049D01*
X243842535Y-124841861D01*
X243966231Y-124220000D01*
X243842535Y-123598139D01*
X243490280Y-123070951D01*
X242963092Y-122718696D01*
X242341231Y-122595000D01*
X240258769Y-122595000D01*
X239636908Y-122718696D01*
X239374367Y-122894120D01*
X236529197Y-122894120D01*
X233807000Y-120171923D01*
X233807000Y-114220000D01*
X238633769Y-114220000D01*
X238757465Y-114841861D01*
X239109720Y-115369049D01*
X239636908Y-115721304D01*
X240258769Y-115845000D01*
X242341231Y-115845000D01*
X242963092Y-115721304D01*
X243490280Y-115369049D01*
X243842535Y-114841861D01*
X243966231Y-114220000D01*
X243842535Y-113598139D01*
X243490280Y-113070951D01*
X242963092Y-112718696D01*
X242341231Y-112595000D01*
X240258769Y-112595000D01*
X239636908Y-112718696D01*
X239109720Y-113070951D01*
X238757465Y-113598139D01*
X238633769Y-114220000D01*
X233807000Y-114220000D01*
X233807000Y-102630000D01*
X238633769Y-102630000D01*
X238757465Y-103251861D01*
X239109720Y-103779049D01*
X239636908Y-104131304D01*
X240258769Y-104255000D01*
X242341231Y-104255000D01*
X242963092Y-104131304D01*
X243490280Y-103779049D01*
X243842535Y-103251861D01*
X243966231Y-102630000D01*
X243842535Y-102008139D01*
X243490280Y-101480951D01*
X242963092Y-101128696D01*
X242341231Y-101005000D01*
X240258769Y-101005000D01*
X239636908Y-101128696D01*
X239109720Y-101480951D01*
X238757465Y-102008139D01*
X238633769Y-102630000D01*
X233807000Y-102630000D01*
X233807000Y-92630000D01*
X238633769Y-92630000D01*
X238757465Y-93251861D01*
X239109720Y-93779049D01*
X239636908Y-94131304D01*
X240258769Y-94255000D01*
X242341231Y-94255000D01*
X242963092Y-94131304D01*
X243490280Y-93779049D01*
X243842535Y-93251861D01*
X243966231Y-92630000D01*
X243842535Y-92008139D01*
X243490280Y-91480951D01*
X242963092Y-91128696D01*
X242341231Y-91005000D01*
X240258769Y-91005000D01*
X239636908Y-91128696D01*
X239109720Y-91480951D01*
X238757465Y-92008139D01*
X238633769Y-92630000D01*
X233807000Y-92630000D01*
X233807000Y-81120000D01*
X238633769Y-81120000D01*
X238757465Y-81741861D01*
X239109720Y-82269049D01*
X239636908Y-82621304D01*
X240258769Y-82745000D01*
X242341231Y-82745000D01*
X242963092Y-82621304D01*
X243490280Y-82269049D01*
X243842535Y-81741861D01*
X243966231Y-81120000D01*
X243842535Y-80498139D01*
X243490280Y-79970951D01*
X242963092Y-79618696D01*
X242341231Y-79495000D01*
X240258769Y-79495000D01*
X239636908Y-79618696D01*
X239109720Y-79970951D01*
X238757465Y-80498139D01*
X238633769Y-81120000D01*
X233807000Y-81120000D01*
X233807000Y-71120000D01*
X238633769Y-71120000D01*
X238757465Y-71741861D01*
X239109720Y-72269049D01*
X239636908Y-72621304D01*
X240258769Y-72745000D01*
X242341231Y-72745000D01*
X242963092Y-72621304D01*
X243490280Y-72269049D01*
X243842535Y-71741861D01*
X243966231Y-71120000D01*
X243842535Y-70498139D01*
X243490280Y-69970951D01*
X242963092Y-69618696D01*
X242341231Y-69495000D01*
X240258769Y-69495000D01*
X239636908Y-69618696D01*
X239109720Y-69970951D01*
X238757465Y-70498139D01*
X238633769Y-71120000D01*
X233807000Y-71120000D01*
X233807000Y-62357000D01*
X246940000Y-62357000D01*
X246940000Y-126290000D01*
M02*
