M48
;DRILL file {KiCad 4.0.7} date 02/13/18 18:01:52
;FORMAT={-:-/ absolute / inch / decimal}
FMAT,2
INCH,TZ
T1C0.013
T2C0.039
T3C0.052
%
G90
G05
M72
T1
X8.5177Y-4.2823
X8.55Y-4.25
X8.6Y-4.25
X9.25Y-2.525
X9.25Y-2.675
X9.25Y-3.075
X9.25Y-3.525
X9.25Y-4.15
X9.25Y-4.4
X9.25Y-4.8
X9.3Y-2.525
X9.3Y-2.675
X9.3Y-3.075
X9.3Y-3.525
X9.3Y-4.15
X9.3Y-4.4
X9.3Y-4.6
X9.3Y-4.8
X9.35Y-2.525
X9.35Y-2.675
X9.35Y-3.075
X9.35Y-3.525
X9.35Y-4.15
X9.35Y-4.4
X9.35Y-4.6
X9.35Y-4.8
X9.4Y-2.525
X9.4Y-2.675
X9.4Y-3.075
X9.4Y-3.525
X9.4Y-4.15
X9.4Y-4.4
X9.4Y-4.6
X9.4Y-4.8
X9.45Y-2.525
X9.45Y-2.675
X9.45Y-3.075
X9.45Y-3.525
X9.45Y-4.15
X9.45Y-4.4
X9.45Y-4.6
X9.45Y-4.8
X9.5Y-2.525
X9.5Y-2.675
X9.5Y-3.075
X9.5Y-3.525
X9.5Y-4.15
X9.5Y-4.4
X9.5Y-4.6
X9.5Y-4.8
X9.55Y-2.525
X9.55Y-2.675
X9.55Y-3.075
X9.55Y-3.525
X9.55Y-4.15
X9.55Y-4.4
X9.55Y-4.6
X9.55Y-4.8
X9.6Y-2.525
X9.6Y-2.675
X9.6Y-3.075
X9.6Y-3.525
X9.6Y-4.15
X9.6Y-4.4
X9.6Y-4.6
X9.6Y-4.8
X9.65Y-2.525
X9.65Y-2.6
X9.65Y-2.675
X9.65Y-2.75
X9.65Y-2.85
X9.65Y-2.95
X9.65Y-3.075
X9.65Y-3.15
X9.65Y-3.225
X9.65Y-3.3
X9.65Y-3.375
X9.65Y-3.45
X9.65Y-3.525
X9.65Y-3.6
X9.65Y-3.675
X9.65Y-3.75
X9.65Y-3.825
X9.65Y-3.9
X9.65Y-3.975
X9.65Y-4.075
X9.65Y-4.15
X9.65Y-4.225
X9.65Y-4.3
X9.65Y-4.4
X9.65Y-4.475
X9.65Y-4.6
X9.65Y-4.675
X9.65Y-4.8
X9.65Y-4.875
X9.7Y-2.525
X9.7Y-2.6
X9.7Y-2.675
X9.7Y-2.75
X9.7Y-2.85
X9.7Y-2.95
X9.7Y-3.075
X9.7Y-3.15
X9.7Y-3.225
X9.7Y-3.3
X9.7Y-3.375
X9.7Y-3.45
X9.7Y-3.525
X9.7Y-3.6
X9.7Y-3.675
X9.7Y-3.75
X9.7Y-3.825
X9.7Y-3.9
X9.7Y-3.975
X9.7Y-4.075
X9.7Y-4.15
X9.7Y-4.225
X9.7Y-4.3
X9.7Y-4.4
X9.7Y-4.475
X9.7Y-4.6
X9.7Y-4.675
X9.7Y-4.8
X9.7Y-4.875
T2
X4.5Y-3.75
X4.5Y-3.85
X4.5Y-3.95
X4.5Y-4.15
X4.5Y-4.35
X5.085Y-2.8
X5.185Y-2.8
X5.285Y-2.8
X5.385Y-2.8
X5.45Y-3.
X5.45Y-3.2
X5.45Y-4.7
X5.485Y-2.8
X5.55Y-3.
X5.55Y-3.2
X5.55Y-4.7
X5.585Y-2.8
X5.65Y-3.
X5.65Y-3.2
X5.65Y-4.7
X5.685Y-2.8
X5.75Y-3.
X5.75Y-3.2
X5.75Y-4.7
X5.785Y-2.8
X5.85Y-3.
X5.85Y-3.2
X5.85Y-4.7
X5.885Y-2.8
X5.9Y-3.95
X5.9Y-4.05
X5.95Y-3.
X5.95Y-3.2
X5.95Y-4.7
X5.985Y-2.8
X6.Y-3.95
X6.Y-4.05
X6.05Y-4.7
X6.1Y-3.95
X6.1Y-4.05
X6.145Y-2.8
X6.15Y-4.7
X6.2Y-3.95
X6.2Y-4.05
X6.245Y-2.8
X6.3Y-3.95
X6.3Y-4.05
X6.345Y-2.8
X6.35Y-4.575
X6.35Y-4.7
X6.4Y-3.95
X6.4Y-4.05
X6.445Y-2.8
X6.45Y-4.575
X6.45Y-4.7
X6.5Y-3.95
X6.5Y-4.05
X6.545Y-2.8
X6.55Y-4.575
X6.55Y-4.7
X6.6Y-3.95
X6.6Y-4.05
X6.645Y-2.8
X6.65Y-4.575
X6.65Y-4.7
X6.7Y-3.95
X6.7Y-4.05
X6.745Y-2.8
X6.75Y-4.575
X6.75Y-4.7
X6.8Y-3.95
X6.8Y-4.05
X6.845Y-2.8
X6.85Y-3.6
X6.85Y-3.7
X6.85Y-3.8
X6.85Y-4.575
X6.85Y-4.7
X6.9Y-3.95
X6.9Y-4.05
X6.95Y-3.6
X6.95Y-3.7
X6.95Y-3.8
X6.95Y-4.575
X6.95Y-4.7
X7.Y-3.95
X7.Y-4.05
X7.045Y-2.8
X7.05Y-4.575
X7.05Y-4.7
X7.1Y-3.95
X7.1Y-4.05
X7.145Y-2.8
X7.2Y-3.95
X7.2Y-4.05
X7.2Y-4.575
X7.245Y-2.8
X7.25Y-4.7
X7.3Y-3.95
X7.3Y-4.05
X7.3Y-4.575
X7.345Y-2.8
X7.35Y-4.7
X7.4Y-3.95
X7.4Y-4.05
X7.4Y-4.575
X7.425Y-2.95
X7.425Y-3.05
X7.425Y-3.15
X7.445Y-2.8
X7.45Y-4.7
X7.5Y-4.575
X7.525Y-2.95
X7.525Y-3.05
X7.525Y-3.15
X7.545Y-2.8
X7.55Y-4.7
X7.6Y-4.575
X7.625Y-2.95
X7.625Y-3.05
X7.625Y-3.15
X7.645Y-2.8
X7.65Y-4.7
X7.7Y-4.575
X7.725Y-2.95
X7.725Y-3.05
X7.725Y-3.15
X7.745Y-2.8
X7.75Y-4.7
X7.8Y-4.575
X7.85Y-4.7
X7.9Y-4.575
X7.95Y-4.7
X8.05Y-2.8
X8.05Y-2.9
X8.05Y-3.
X8.05Y-3.1
X8.05Y-3.2
X8.05Y-3.3
X8.05Y-3.4
X8.05Y-3.5
X8.05Y-3.6
X8.05Y-3.7
X8.05Y-3.8
X8.05Y-3.9
X8.05Y-4.
X8.05Y-4.1
X8.05Y-4.2
X8.05Y-4.3
X8.05Y-4.4
X8.05Y-4.5
X8.15Y-2.8
X8.15Y-2.9
X8.15Y-3.
X8.15Y-3.1
X8.15Y-3.2
X8.15Y-3.3
X8.15Y-3.4
X8.15Y-3.5
X8.15Y-3.6
X8.15Y-3.7
X8.15Y-3.8
X8.15Y-3.9
X8.15Y-4.
X8.15Y-4.1
X8.15Y-4.2
X8.15Y-4.3
X8.15Y-4.4
X8.15Y-4.5
X8.375Y-3.925
X8.375Y-4.025
X8.375Y-4.125
X8.675Y-2.65
X8.675Y-2.75
X8.675Y-2.85
X8.675Y-3.1
X8.675Y-3.2
X8.675Y-3.3
X8.675Y-3.525
X8.675Y-3.625
X8.675Y-3.725
X8.675Y-3.95
X8.675Y-4.05
X8.675Y-4.15
X8.675Y-4.375
X8.675Y-4.475
X8.675Y-4.575
T3
X4.55Y-3.225
X4.55Y-3.4219
X9.5Y-2.6031
X9.5Y-2.8
X9.5Y-2.9969
X9.5Y-3.1937
X9.5Y-3.45
X9.5Y-3.6469
X9.5Y-3.8437
X9.5Y-4.0406
X9.5Y-4.3
X9.5Y-4.4969
X9.5Y-4.6937
X9.5Y-4.8906
T0
M30
